<svg width="125" height="51" fill="none" xmlns="http://www.w3.org/2000/svg">
  <g clip-path="url(#clip0)">
    <path d="M21.62 19.07h5.98v1.25h-2.2v7.16h-1.57v-7.16h-2.2v-1.25h-.01zM40.37 22.02a2.72 2.72 0 01-1.88 2.73l1.72 2.74h-1.57l-1.56-2.53h-1.62v2.53H33.9v-8.4h3.3c.98 0 1.75.26 2.32.81.57.54.85 1.26.85 2.12zm-4.9-1.7v3.39h1.58c.5 0 .93-.16 1.27-.5.34-.31.5-.71.5-1.2 0-.46-.16-.87-.5-1.2-.34-.33-.77-.49-1.28-.49h-1.58zM53.97 27.48h-1.58l-.5-1.55h-3.64l-.5 1.55h-1.58l2.73-8.4h2.35l2.72 8.4zm-3.9-7.15l-1.41 4.35h2.82l-1.42-4.35zM63.6 26.14c.5 0 .97-.12 1.4-.35.42-.23.75-.56 1.01-.97l1.37.66a4 4 0 01-1.55 1.53c-.67.37-1.4.56-2.22.56a4.5 4.5 0 01-2.23-.55 3.94 3.94 0 01-1.58-1.53 4.26 4.26 0 01-.57-2.21 4.26 4.26 0 012.15-3.76 4.6 4.6 0 012.23-.54c.8 0 1.54.2 2.22.56.66.38 1.18.88 1.55 1.53l-1.37.67a2.66 2.66 0 00-1-.97 2.89 2.89 0 00-1.4-.35c-.8 0-1.46.27-2 .82a2.75 2.75 0 00-.84 2.04c0 .82.28 1.5.83 2.04.54.54 1.22.82 2 .82zM78.4 19.07h1.65l-2.79 3.72 2.79 4.7H78.4l-2.1-3.43-1.13 1.5v1.92h-1.55v-8.4h1.55v4.37l3.23-4.38zM86.11 27.48v-8.4h1.56v8.4h-1.56zM99.68 25.24v-6.17h1.55v8.41h-1.96l-3.5-6.16v6.16h-1.55v-8.4h1.95l3.5 6.16zM111.66 24.09v-1.41h4.54v.59c0 .82-.2 1.55-.58 2.21a4.03 4.03 0 01-1.59 1.53c-.66.37-1.4.55-2.22.55a4.5 4.5 0 01-2.22-.55 3.95 3.95 0 01-1.58-1.53 4.26 4.26 0 01-.58-2.21 4.26 4.26 0 012.16-3.76 4.6 4.6 0 012.22-.54c.82 0 1.56.2 2.23.56.66.38 1.18.88 1.55 1.53l-1.37.67a2.66 2.66 0 00-1-.97 2.9 2.9 0 00-1.4-.35c-.8 0-1.47.27-2.02.82a2.75 2.75 0 00-.83 2.04c0 .8.28 1.49.83 2.03.55.55 1.22.83 2.02.83.61 0 1.17-.2 1.68-.59.5-.39.85-.88 1.04-1.45h-2.89zM29.18 50.91h-1.57l-.5-1.55h-3.65l-.5 1.55h-1.58l2.72-8.41h2.36l2.72 8.41zm-3.9-7.15l-1.4 4.35h2.82l-1.42-4.35zM35.26 42.5h3.3c.97 0 1.75.27 2.32.82.57.55.85 1.26.85 2.12 0 .86-.28 1.58-.85 2.12a3.2 3.2 0 01-2.32.82H36.8v2.53h-1.56V42.5h.01zm1.55 4.63h1.59c.5 0 .92-.16 1.26-.5.34-.32.5-.72.5-1.2 0-.47-.16-.87-.5-1.2-.34-.33-.76-.49-1.27-.49h-1.6v3.39h.02zM48.05 42.5h3.3c.97 0 1.75.27 2.32.82.57.55.85 1.26.85 2.12 0 .86-.28 1.58-.85 2.12a3.2 3.2 0 01-2.33.82H49.6v2.53h-1.56V42.5zm1.55 4.63h1.58c.5 0 .93-.16 1.27-.5.34-.32.5-.72.5-1.2 0-.47-.16-.87-.5-1.2-.34-.33-.77-.49-1.28-.49H49.6v3.39zM66.75 44.58l-1.54.12c-.1-.34-.28-.6-.53-.8a1.43 1.43 0 00-.9-.28c-.44 0-.78.1-1.04.31s-.38.5-.38.86c-.02.28.13.53.45.74.1.07.32.17.66.3l.4.11.8.26.67.25c.4.16.75.38 1.05.63.21.18.37.39.46.62.1.23.14.52.15.86 0 .79-.29 1.39-.87 1.8-.58.42-1.34.63-2.3.63-.9 0-1.65-.2-2.24-.6-.6-.41-.93-.98-1-1.73l1.54-.13c.08.38.27.68.59.88.3.2.68.32 1.1.32.49 0 .88-.1 1.16-.3.27-.2.43-.48.44-.84 0-.31-.13-.57-.38-.8a2.5 2.5 0 00-.46-.28c-.21-.1-.4-.17-.54-.22l-.62-.2-.4-.12a7.28 7.28 0 01-1.36-.55 3.22 3.22 0 01-.37-.3c-.18-.17-.3-.36-.39-.57-.08-.2-.12-.49-.13-.83A2 2 0 0161.6 43c.56-.4 1.28-.6 2.16-.6.8-.01 1.48.18 2.01.56.54.38.88.92.98 1.62zM25.99 7.16c.5 0 .96-.12 1.39-.35.43-.23.76-.56 1.02-.97l1.36.66a4 4 0 01-1.54 1.53c-.67.37-1.41.56-2.23.56a4.5 4.5 0 01-2.23-.55A3.94 3.94 0 0122.2 6.5a4.26 4.26 0 01-.58-2.21A4.26 4.26 0 0123.76.54 4.66 4.66 0 0126 0c.8 0 1.55.19 2.23.56.65.38 1.17.88 1.54 1.53l-1.36.66a2.66 2.66 0 00-1.01-.96A2.88 2.88 0 0026 1.44c-.8 0-1.47.27-2.02.81a2.75 2.75 0 00-.82 2.05c0 .82.27 1.5.82 2.04.55.55 1.22.82 2.01.82zM36.02 8.5V.09h5.62v1.25h-4.06v2.44h3.7v1.26h-3.7v2.2h4.24V8.5h-5.8zM53.57 8.5h-5.2V.09h1.56v7.16h3.64V8.5zM65.31 8.5h-5.19V.09h1.56v7.16h3.63V8.5z" fill="#000"/>
    <path d="M11.36 3.97H.5V34.7h124v12.14H77.75" stroke="#010202" stroke-miterlimit="10"/>
    <path d="M80.27 43.94h-5.75v5.77h5.75v-5.77z" fill="#8491C8"/>
    <path d="M14.23 1.1H8.48v5.76h5.75V1.09z" fill="#A684BB"/>
  </g>
  <defs>
    <clipPath id="clip0">
      <path fill="#fff" d="M0 0h125v51H0z"/>
    </clipPath>
  </defs>
</svg>
