<svg version="1.1" id="Group_17_copy_1_" xmlns="http://www.w3.org/2000/svg" x="0" y="0" width="171" height="16.3" viewBox="-324 389.1 171 16.3" xml:space="preserve"><path d="M-319 394.5c.4-.3.9-.4 1.5-.4.5 0 1 .1 1.5.4.5.3 1 .7 1.4 1.2l2.1-2.4c-.6-.6-1.4-1.1-2.3-1.5-.9-.4-1.8-.6-2.7-.6-1.2 0-2.3.3-3.3.8s-1.8 1.2-2.3 2.1c-.6.9-.8 1.9-.8 3.1 0 1.1.3 2.2.8 3.1.6.9 1.3 1.7 2.3 2.2 1 .5 2.1.8 3.3.8.9 0 1.8-.2 2.7-.6.9-.4 1.7-1 2.4-1.6l-2.1-2.1c-.4.4-.9.8-1.4 1-.5.2-1 .4-1.5.4s-1-.1-1.5-.4c-.4-.3-.8-.6-1-1.1-.3-.5-.4-1-.4-1.6 0-.6.1-1.1.4-1.6.2-.6.5-.9.9-1.2zm37.4 3.3c.4-.6.5-1.4.5-2.2 0-1.3-.4-2.3-1.3-3.1-.9-.7-2.1-1.1-3.8-1.1h-5.6V403h3.6v-3.1h1.9l1.6 3.1h4.1l-2.4-3.8c.6-.3 1.1-.8 1.4-1.4zm-3.3-.9c-.3.3-.7.4-1.2.4h-2v-3.2h2c.5 0 1 .1 1.2.4.3.3.4.7.4 1.2.1.5-.1.9-.4 1.2zm15.8.9c.4-.6.5-1.4.5-2.2 0-1.3-.4-2.3-1.3-3.1-.9-.7-2.1-1.1-3.8-1.1h-5.6V403h3.6v-3.1h1.9l1.6 3.1h4.1l-2.4-3.8c.6-.3 1.1-.8 1.4-1.4zm-3.3-.9c-.3.3-.7.4-1.2.4h-2v-3.2h2c.5 0 1 .1 1.2.4.3.3.4.7.4 1.2s-.1.9-.4 1.2zm9.2 1.7h5.7v-2.7h-5.7v-1.8h6.3v-2.7h-9.9V403h10v-2.7h-6.5c.1.1.1-1.7.1-1.7zm12.5-4.1c.4-.3.9-.4 1.5-.4.5 0 1 .1 1.5.4.5.3 1 .7 1.4 1.2l2.1-2.4c-.6-.6-1.4-1.1-2.3-1.5-.9-.4-1.8-.6-2.7-.6-1.2 0-2.3.3-3.3.8s-1.8 1.2-2.3 2.1c-.6.9-.8 1.9-.8 3.1 0 1.1.3 2.2.8 3.1.6.9 1.3 1.7 2.3 2.2 1 .5 2.1.8 3.3.8.9 0 1.8-.2 2.7-.6.9-.4 1.7-1 2.4-1.6l-2.1-2.1c-.4.4-.9.8-1.4 1-.5.2-1 .4-1.5.4s-1-.1-1.5-.4c-.4-.3-.8-.6-1-1.1-.3-.5-.4-1-.4-1.6 0-.6.1-1.1.4-1.6.2-.6.5-.9.9-1.2zm6.6-.3h3.5v8.9h3.6v-8.9h3.5v-2.8h-10.6v2.8zm23.3 7.5c-.6.3-1.3.4-1.9.4-.9 0-1.8-.2-2.6-.7-.8-.4-1.4-1-1.8-1.8-.5-.7-.7-1.6-.7-2.4s.2-1.7.7-2.4c.5-.7 1.1-1.3 1.8-1.8.8-.4 1.6-.6 2.6-.6.7 0 1.3.1 2 .4.6.3 1.2.6 1.7 1.1l.7-.8c-.6-.5-1.2-.9-2-1.2-.8-.3-1.5-.4-2.4-.4-1.1 0-2.2.3-3.1.8-1 .5-1.7 1.2-2.3 2.1-.6.9-.8 1.9-.8 3s.3 2.1.8 3c.6.9 1.3 1.6 2.3 2.2 1 .5 2 .8 3.1.8.8 0 1.6-.2 2.4-.5.8-.3 1.4-.7 2-1.3l-.7-.7c-.6.3-1.2.6-1.8.8zm8.6-10.2l-5.4 11.6h1.3l1.4-3.1h6.7l1.4 3.1h1.3l-5.4-11.6h-1.3zm-2.3 7.5l2.9-6.3 2.9 6.3h-5.8zm16.5-1.7c-.5-.2-1.2-.5-2-.7-.7-.2-1.2-.4-1.7-.6-.4-.2-.7-.4-1-.7-.3-.3-.4-.7-.4-1.2s.3-1 .7-1.3c.5-.3 1.2-.5 2-.5.5 0 1.1.1 1.7.2s1.1.4 1.6.7l.5-1c-.5-.3-1.1-.6-1.7-.7-.7-.2-1.3-.3-2-.3-.8 0-1.5.1-2.2.4-.6.2-1.1.6-1.4 1-.3.4-.5 1-.5 1.5 0 .7.2 1.2.5 1.7.3.4.8.7 1.3 1 .5.2 1.1.4 2 .7.7.2 1.3.4 1.7.6.4.2.7.4 1 .7.3.3.4.7.4 1.2 0 .6-.3 1.1-.8 1.5-.5.4-1.3.5-2.2.5-.7 0-1.4-.1-2.1-.4-.7-.3-1.3-.7-1.9-1.2l-.5.9c.6.5 1.3 1 2.1 1.3.8.3 1.6.5 2.5.5.8 0 1.6-.1 2.3-.4.7-.3 1.2-.6 1.5-1.1.4-.5.5-1 .5-1.6 0-.7-.2-1.3-.5-1.7-.5-.4-.9-.7-1.4-1zm4.7 5.8h1.2v-11.6h-1.2v11.6zm13.7-1.8l-7.5-9.8h-1.3v11.6h1.2v-9.8l7.5 9.8h1.3v-11.6h-1.2v9.8zm13.3-9.1c-1-.5-2-.8-3.2-.8-1.1 0-2.2.3-3.2.8s-1.7 1.2-2.3 2.1c-.6.9-.8 1.9-.8 3s.3 2.1.8 3c.6.9 1.3 1.6 2.3 2.2 1 .5 2 .8 3.2.8 1.1 0 2.2-.3 3.2-.8s1.7-1.2 2.3-2.2c.6-.9.8-1.9.8-3s-.3-2.1-.8-3c-.6-.9-1.3-1.6-2.3-2.1zm1.2 7.5c-.5.8-1.1 1.3-1.9 1.8-.8.4-1.6.7-2.5.7-.9 0-1.8-.2-2.5-.7-.8-.4-1.4-1-1.9-1.8s-.7-1.6-.7-2.5c0-.9.2-1.7.7-2.4.5-.7 1.1-1.3 1.9-1.8.8-.4 1.6-.6 2.5-.6.9 0 1.8.2 2.5.6.8.4 1.4 1 1.9 1.8s.7 1.6.7 2.4c0 .9-.2 1.8-.7 2.5zm11.5-1.4c-.4-.4-.8-.8-1.3-1-.5-.2-1.2-.5-2-.7-.7-.2-1.3-.4-1.7-.6-.4-.2-.7-.4-1-.7-.3-.3-.4-.7-.4-1.2s.3-1 .7-1.3c.5-.3 1.2-.5 2-.5.5 0 1.1.1 1.7.2.6.2 1.1.4 1.6.7l.5-1c-.5-.3-1.1-.6-1.8-.7-.7-.2-1.3-.3-2-.3-.8 0-1.5.1-2.2.4-.6.2-1.1.6-1.4 1-.3.4-.5 1-.5 1.5 0 .7.2 1.2.5 1.7.3.4.8.7 1.3 1 .5.2 1.1.4 2 .7.7.2 1.3.4 1.7.6.4.2.7.4 1 .7.3.3.4.7.4 1.2 0 .6-.3 1.1-.8 1.5-.5.4-1.3.5-2.2.5-.7 0-1.4-.1-2.1-.4-.7-.3-1.3-.7-1.9-1.2l-.6.9c.6.5 1.3 1 2.1 1.3.8.3 1.6.5 2.5.5.8 0 1.6-.1 2.3-.4.7-.3 1.2-.6 1.5-1.1.4-.5.5-1 .5-1.6.2-.7 0-1.2-.4-1.7z" id="C______rrect_Casinos"/><path d="M-302.9 391c.7 0 1.5.1 2.1.4l.9-1.6c-.9-.4-2-.6-3.1-.6-1 0-2 .2-2.9.5l1 1.7c.6-.3 1.3-.4 2-.4zm-2.9.7l-.9-1.6c-1.5.8-2.7 2.1-3.5 3.6l1.6.9c.6-1.2 1.6-2.3 2.8-2.9zm7.6 1.5l1.4-1.2c-.6-.7-1.3-1.4-2.2-1.9l-.9 1.6c.7.4 1.2.9 1.7 1.5zm4.2 0l-.4-.5c-.2-.2-.4-.2-.6-.1l-.8.7-6.8 5.9c-.2.2-.5.1-.6-.1l-.4-.5-2.1-2.6c-.2-.2-.1-.5.1-.6l.5-.4c.2-.2.5-.1.6.1l1.8 2.3 3.8-3.3c-1-1.1-2.4-1.8-3.9-1.8-2.9 0-5.2 2.3-5.2 5.2s2.3 5.2 5.2 5.2c2.9 0 5.2-2.3 5.2-5.2v-.4l1-.8c.1.4.2.8.2 1.2 0 .6-.1 1.2-.3 1.8l1.7 1c.3-.9.5-1.8.5-2.8 0-.9-.1-1.7-.4-2.5l1.1-1c0-.4 0-.6-.2-.8zm-15.2 4.1c0-.6.1-1.2.2-1.7l-1.7-1c-.3.8-.5 1.7-.5 2.7 0 1 .2 2 .5 2.9l1.7-1c-.1-.6-.2-1.3-.2-1.9zm.7 2.8l-1.6.9c.8 1.6 2.1 2.9 3.7 3.6l.9-1.6c-1.3-.6-2.4-1.6-3-2.9zm8.3 2.9l.9 1.6c1.6-.8 2.9-2.1 3.7-3.6l-1.6-.9c-.7 1.2-1.7 2.2-3 2.9zm.5 2.8c.1 0 .1-.1.2-.1-.4.1-.7.2-1.1.3.3-.1.6-.1.9-.2zm-1.4-2.5c-.6.2-1.2.3-1.8.3-.6 0-1.1-.1-1.6-.2l-1 1.7c.8.3 1.7.4 2.6.4 1 0 1.9-.2 2.7-.5l-.9-1.7z" id="Shape_8" fill="#cd0303"/></svg>