<svg xmlns="http://www.w3.org/2000/svg" height="83.536" width="702.02" version="1.1" data-name="Layer 1" id="Layer_1"><defs id="defs4"><style id="style2">.cls-1{fill:#fff}.cls-2{fill:#fee100}</style></defs><path id="path6" d="M113.89 13.428h11.79l19.63 27.12c3.17 4.31 6.78 10.47 6.78 10.47v-37.59h12.33v57.05h-11.89l-19-26.06c-3.79-5.11-7.31-11.18-7.31-11.18v37.24h-12.33zm56.55 35.04a22.6 22.6 0 0122.8-22.89c12 0 21.39 10.21 21.39 22.71a39.61 39.61 0 01-.26 4.23h-32c1.41 6.07 6.43 9 12.24 9a21.86 21.86 0 0011.88-3.44l4.4 8.45a29.63 29.63 0 01-16.37 4.85c-12.81-.02-24.08-8.39-24.08-22.91zm33.1-3.79a10.63 10.63 0 00-10.65-9.24c-5.11 0-9.51 3.7-10.65 9.24zm17.84 11.62v-20.33h-6.43v-9.51h6.43v-8.45l11.79-2.64v11.09h12.15v9.51h-12.15v20.16c0 3.78 1.85 5 4 5a10.89 10.89 0 005.64-1.84l3.34 8.71a20.28 20.28 0 01-11.18 3.35c-8.84.01-13.59-5.1-13.59-15.05z" class="cls-1"/><path id="path8" d="M250.95 56.298v-20.33h-6.42v-9.51h6.42v-8.45l11.8-2.64v11.09h12.15v9.51h-12.15v20.16c0 3.78 1.85 5 4 5a10.8 10.8 0 005.63-1.84l3.35 8.71a20.28 20.28 0 01-11.18 3.35c-8.84.01-13.6-5.1-13.6-15.05zm27.07-42.16a7 7 0 117 6.95 7 7 0 01-7-6.95zm1.15 12.32h11.85v44h-11.84zm18.7-13.91h11.79v32.22l15.14-18.31h14.35l-17.13 19.19 20 24.83h-14.14l-13.2-16.82-5 6v10.83h-11.81z" class="cls-1"/><path id="path10" d="M339.65 48.468c0-12.68 7.75-22.89 19.9-22.89 5.1 0 10.56 2 13.73 6.25v-5.37h11.53v44h-11.53v-5.29c-3.08 4.23-8.63 6.17-13.73 6.17-12.15.02-19.9-10.2-19.9-22.87zm33.37 0c0-6.87-4.4-12-10.48-12-6.34 0-10.91 5.1-10.91 12s4.57 12 10.91 12c6.08-.03 10.48-4.96 10.48-12zm15.91 16.9l4.22-9.07a21.29 21.29 0 0013.73 4.67c2.73 0 7.22-1.06 7.22-3.7s-3.78-3.26-7.57-4.31c-8.71-2.29-15.84-5.2-15.84-13.65 0-9 8.8-13.73 17.07-13.73a30.06 30.06 0 0116.38 4.4l-4 8.8a27.7 27.7 0 00-12.24-3.08c-2.73 0-5.28 1.24-5.28 3.08 0 2.47 3.7 3.26 7.74 4.14 7.49 1.76 15.67 5 15.67 14 0 10.83-11 14.44-19.19 14.44-9.38 0-15.45-3.7-17.91-5.99zm40.52-51.23a7 7 0 117 6.95 7 7 0 01-7-6.95zm1.14 12.32h11.8v44h-11.8zm18.69 0h11.53v5.9a16.43 16.43 0 0113.91-6.78c11.62 0 15.67 7.48 15.67 19.54v25.36h-11.8v-23.86c0-6.43-1.67-9.86-7.65-9.86s-9.86 4.75-9.86 11.44v22.28h-11.8zm45.38 22.01c0-12.77 10.39-22.89 23.5-22.89s23.6 10.12 23.6 22.89c0 12.77-10.39 22.89-23.6 22.89s-23.5-10.13-23.5-22.89zm35 0c0-6.87-4.93-12-11.54-12-6.61 0-11.53 5.1-11.53 12s4.93 12 11.53 12 11.58-5.05 11.58-12zm18.67 7.83v-20.33h-6.42v-9.51h6.42v-8.45l11.8-2.64v11.09h12.15v9.51h-12.15v20.16c0 3.78 1.85 5 4 5a10.8 10.8 0 005.63-1.84l3.35 8.71a20.28 20.28 0 01-11.18 3.35c-8.84.01-13.6-5.1-13.6-15.05zm31.78 12.06a3 3 0 013-3.08 3.12 3.12 0 013.08 3.08 3.05 3.05 0 01-3.08 3 3 3 0 01-3-3zm9.07-18.92a21.92 21.92 0 1121.92 21.92 21.65 21.65 0 01-21.92-21.92zm40.32 0a18.4 18.4 0 10-18.4 18.66 18.23 18.23 0 0018.4-18.66zm10.63-21.04h3.34v9.59c3.34-7 9.77-10.47 17.34-10.47v3.52c-10.47 0-17.34 7.83-17.34 17.16v22.28h-3.34zm58.56 30.19c-2.82 6.07-9.51 10.12-17.25 10.12-12.06 0-20.78-9-20.78-20.68s8.72-20.51 20.78-20.51c7.66 0 14.26 3.78 17.34 9.94v-9.06h3.24v32.66c0 19.45-14.79 22.35-20.69 22.35a20.79 20.79 0 01-15.76-6.86l1.76-2.29a18.6 18.6 0 0013.91 6.25c5.11 0 17.43-2.82 17.43-19.54zm-17.08-27.82a17 17 0 00-17.43 17.26c0 10 7.31 17.43 17.52 17.43a17.35 17.35 0 00-.09-34.69z" class="cls-1"/><path id="path12" d="M6.82 82.848l-6.27-6.92a2.07 2.07 0 01-.55-1.4V9.008a2.07 2.07 0 01.55-1.4L6.82.688a2.09 2.09 0 013.64 1.41v79.34a2.09 2.09 0 01-3.64 1.41z" class="cls-2"/><circle id="circle14" r="7.48" cy="19.768" cx="30.25" class="cls-2"/><circle id="circle16" r="7.48" cy="41.658" cx="52.05" class="cls-2"/><circle id="circle18" r="7.48" cy="63.738" cx="74.34" class="cls-2"/></svg>