<svg id="Layer_1" data-name="Layer 1" xmlns="http://www.w3.org/2000/svg" viewBox="0 0 700 119.29"><defs><style>.cls-1{fill:#333;}.cls-2{fill:#29abe2;}.cls-3{fill:#fff;}.cls-4{fill:#00a388;}.cls-5{fill:#2980b9;}.cls-6{fill:#ffd34e;}.cls-7{fill:#3498db;}.cls-8{fill:#e74c3c;}</style></defs><title>site_splat</title><g id="_Group_" data-name="&lt;Group&gt;"><g id="_Group_2" data-name="&lt;Group&gt;"><path id="_Compound_Path_" data-name="&lt;Compound Path&gt;" class="cls-1" d="M350.83,186.33c-18.63,0-23.87-8.76-24.47-9.79a4.35,4.35,0,0,1,1.72-5.84,4.29,4.29,0,0,1,5.75,1.63,10.39,10.39,0,0,0,3.26,2.58c4.29,2.32,9.87,2.83,13.74,2.83,5.67,0,10-1.2,12.36-3.43a7.1,7.1,0,0,0,2.32-5.32,9.78,9.78,0,0,0-3-7.56c-2.66-2.66-7.3-4.64-13.82-5.92a34.43,34.43,0,0,1-12.11-4.89,20.7,20.7,0,0,1-6.44-7,18.09,18.09,0,0,1-2.49-9.19,16.75,16.75,0,0,1,5.84-12.36,20.56,20.56,0,0,1,6.52-3.86,24.22,24.22,0,0,1,8.33-1.37c16.74,0,21.63,7.9,22.15,8.84a4.32,4.32,0,0,1-1.63,5.84,4.27,4.27,0,0,1-5.75-1.54,11.42,11.42,0,0,0-2.83-2.23c-2.06-1-5.75-2.32-11.93-2.32-4.72,0-7.56,1.63-9.19,3.09a8.43,8.43,0,0,0-2.92,6.1v0.17a9.6,9.6,0,0,0,1.54,5,12.38,12.38,0,0,0,3.95,3.95,26.08,26.08,0,0,0,8.67,3.35c8.24,1.63,14.16,4.29,18.11,8.16A18.51,18.51,0,0,1,374.09,169,15.92,15.92,0,0,1,369,180.66C365,184.44,358.81,186.33,350.83,186.33Z" transform="translate(-150 -90.71)"/><path id="_Compound_Path_2" data-name="&lt;Compound Path&gt;" class="cls-1" d="M392.13,185.3a4.31,4.31,0,0,1-4.29-4.29V122.11a4.36,4.36,0,0,1,4.29-4.29,4.3,4.3,0,0,1,4.29,4.29V181A4.25,4.25,0,0,1,392.13,185.3Z" transform="translate(-150 -90.71)"/><path id="_Compound_Path_3" data-name="&lt;Compound Path&gt;" class="cls-1" d="M465,122.11a4.25,4.25,0,0,1-4.29,4.29h-18.8V181a4.31,4.31,0,0,1-4.29,4.29,4.25,4.25,0,0,1-4.29-4.29v-54.6H414.45a4.29,4.29,0,1,1,0-8.58h46.27A4.25,4.25,0,0,1,465,122.11Z" transform="translate(-150 -90.71)"/><path id="_Compound_Path_4" data-name="&lt;Compound Path&gt;" class="cls-1" d="M528.38,180.92a4.25,4.25,0,0,1-4.29,4.29H483a4.31,4.31,0,0,1-4.29-4.29V122.11a4.3,4.3,0,0,1,4.29-4.29h40.18a4.29,4.29,0,1,1,0,8.58H487.34V147.1h31.77a4.31,4.31,0,0,1,4.29,4.29,4.25,4.25,0,0,1-4.29,4.29H487.34v20.95h36.74A4.25,4.25,0,0,1,528.38,180.92Z" transform="translate(-150 -90.71)"/><path id="_Compound_Path_5" data-name="&lt;Compound Path&gt;" class="cls-2" d="M567.1,186.33c-18.63,0-23.87-8.76-24.47-9.79a4.35,4.35,0,0,1,1.72-5.84,4.29,4.29,0,0,1,5.75,1.63,10.39,10.39,0,0,0,3.26,2.58c4.29,2.32,9.87,2.83,13.74,2.83,5.67,0,10-1.2,12.36-3.43a7.1,7.1,0,0,0,2.32-5.32,9.78,9.78,0,0,0-3-7.56c-2.66-2.66-7.3-4.64-13.82-5.92a34.43,34.43,0,0,1-12.11-4.89,20.7,20.7,0,0,1-6.44-7,18.09,18.09,0,0,1-2.49-9.19,16.75,16.75,0,0,1,5.84-12.36,20.56,20.56,0,0,1,6.52-3.86,24.22,24.22,0,0,1,8.33-1.37c16.74,0,21.63,7.9,22.15,8.84a4.32,4.32,0,0,1-1.63,5.84,4.27,4.27,0,0,1-5.75-1.54,11.42,11.42,0,0,0-2.83-2.23c-2.06-1-5.75-2.32-11.93-2.32-4.72,0-7.56,1.63-9.19,3.09a8.43,8.43,0,0,0-2.92,6.1v0.17a9.6,9.6,0,0,0,1.54,5,12.38,12.38,0,0,0,3.95,3.95,26.08,26.08,0,0,0,8.67,3.35c8.24,1.63,14.16,4.29,18.11,8.16A18.51,18.51,0,0,1,590.37,169a15.92,15.92,0,0,1-5.06,11.68C581.27,184.44,575.09,186.33,567.1,186.33Z" transform="translate(-150 -90.71)"/><path id="_Compound_Path_6" data-name="&lt;Compound Path&gt;" class="cls-2" d="M608.4,185.3a4.31,4.31,0,0,1-4.29-4.29V122.11a4.3,4.3,0,0,1,4.29-4.29h25.5a20.8,20.8,0,0,1,5.07.69,21.48,21.48,0,0,1,9.7,5.32,19.82,19.82,0,0,1,4.46,6.87,27.84,27.84,0,0,1,1.72,10c0,8.16-3.43,14.34-9.87,18-4.64,2.66-10.82,3.95-18.46,3.95a4.29,4.29,0,1,1,0-8.58c6.09,0,10.9-.94,14.17-2.83,3.78-2.15,5.58-5.49,5.58-10.56a17.18,17.18,0,0,0-1.89-8.41,10.26,10.26,0,0,0-3.95-3.95,14.45,14.45,0,0,0-6.52-1.89h-21.2V181A4.25,4.25,0,0,1,608.4,185.3Z" transform="translate(-150 -90.71)"/><path id="_Compound_Path_7" data-name="&lt;Compound Path&gt;" class="cls-2" d="M710.31,185.3H672.88a4.31,4.31,0,0,1-4.29-4.29V122.11a4.3,4.3,0,0,1,4.29-4.29,4.25,4.25,0,0,1,4.29,4.29v54.6h33.14A4.29,4.29,0,1,1,710.31,185.3Z" transform="translate(-150 -90.71)"/><path id="_Compound_Path_8" data-name="&lt;Compound Path&gt;" class="cls-2" d="M732.21,185.3a4.3,4.3,0,0,1-3.86-6.18l28.59-58.89a4.39,4.39,0,0,1,3.86-2.4,4.29,4.29,0,0,1,3.86,2.4L793.42,179a4.3,4.3,0,0,1-7.73,3.78L779,169a30.5,30.5,0,0,0-14.25-.51,51.35,51.35,0,0,0-14.68,5.24,76.68,76.68,0,0,0-14.94,10.39A4.23,4.23,0,0,1,732.21,185.3Zm28.59-53.4-17.26,35.63c0.77-.43,1.54-0.86,2.4-1.29a59.31,59.31,0,0,1,17.17-6.18,41.2,41.2,0,0,1,11.16-.6Z" transform="translate(-150 -90.71)"/><path id="_Compound_Path_9" data-name="&lt;Compound Path&gt;" class="cls-2" d="M850,122.11a4.25,4.25,0,0,1-4.29,4.29h-18.8V181a4.31,4.31,0,0,1-4.29,4.29,4.25,4.25,0,0,1-4.29-4.29v-54.6H799.43a4.29,4.29,0,1,1,0-8.58h46.27A4.25,4.25,0,0,1,850,122.11Z" transform="translate(-150 -90.71)"/></g><g id="_Group_3" data-name="&lt;Group&gt;"><path id="_Path_" data-name="&lt;Path&gt;" class="cls-2" d="M282.87,99H206.75c0,6-3.58,9.47-8.44,10.87a16.47,16.47,0,0,1-1.07,29.31,7.46,7.46,0,0,1,2.65,5.7,7.55,7.55,0,0,1-7.56,7.54c-0.24,0-.47,0-0.71,0a11.25,11.25,0,0,1,3.73,8.91c0,5.11-4.34,9.45-8.34,11v21.06c0,8.58,7.84,16.65,16.42,16.65h79.45c8.58,0,15.13-8.07,15.13-16.65V113.9C298,105.32,291.45,99,282.87,99Z" transform="translate(-150 -90.71)"/><g id="_Group_4" data-name="&lt;Group&gt;"><path id="_Compound_Path_10" data-name="&lt;Compound Path&gt;" class="cls-3" d="M236.1,173.52l36.69-15v11L249.53,179l23.26,9.57v11l-36.69-15-4.83-2v-7Z" transform="translate(-150 -90.71)"/></g><path id="_Path_2" data-name="&lt;Path&gt;" class="cls-4" d="M195.11,90.71h0a7.65,7.65,0,0,0,0,15.3h0a7.65,7.65,0,0,0,7.65-7.62v0A7.65,7.65,0,0,0,195.11,90.71Z" transform="translate(-150 -90.71)"/><circle id="_Path_3" data-name="&lt;Path&gt;" class="cls-5" cx="7.65" cy="20.62" r="7.65"/><circle id="_Path_4" data-name="&lt;Path&gt;" class="cls-6" cx="23.77" cy="11.22" r="3.57"/><circle id="_Path_5" data-name="&lt;Path&gt;" class="cls-7" cx="42.32" cy="54.12" r="3.57"/><circle id="_Path_6" data-name="&lt;Path&gt;" class="cls-4" cx="18.87" cy="36.9" r="3.57"/><circle id="_Path_7" data-name="&lt;Path&gt;" class="cls-8" cx="18.87" cy="54.12" r="3.57"/><circle id="_Path_8" data-name="&lt;Path&gt;" class="cls-8" cx="40.04" cy="33.33" r="12.71"/><circle id="_Path_9" data-name="&lt;Path&gt;" class="cls-6" cx="34.14" cy="70.56" r="7.65"/></g></g></svg>