<?xml version="1.0" standalone="no"?>
<!DOCTYPE svg PUBLIC "-//W3C//DTD SVG 1.1//EN" "http://www.w3.org/Graphics/SVG/1.1/DTD/svg11.dtd" >
<svg>
<metadata>
Created by FontForge 20110222 at Thu Mar 28 15:30:32 2013
 By Orthosie Webmaster
Copyright (C) 2006, 2007 Hoefler &#38; Frere-Jones. http://www.typography.com
</metadata>
<defs>
<font id="GothamRoundedBook" horiz-adv-x="664" >
  <font-face 
    font-family="GothamRoundedBook"
    font-weight="325"
    font-stretch="normal"
    units-per-em="1000"
    panose-1="0 0 0 0 0 0 0 0 0 0"
    ascent="800"
    descent="-200"
    x-height="517"
    cap-height="705"
    bbox="-48 -243 1159 1040"
    underline-thickness="50"
    underline-position="-50"
    unicode-range="U+0020-FB04"
  />
<missing-glyph horiz-adv-x="500" 
d="M0 -200v1000h500v-1000h-500zM71 750l179 -390l179 390h-358zM50 -76l172 376l-172 376v-752zM450 676l-172 -376l172 -376v752zM250 240l-179 -390h358z" />
    <glyph glyph-name="f_f" unicode="ff" horiz-adv-x="735" 
d="M115 34v415h-42q-14 0 -23.5 10t-9.5 24q0 13 10 23t23 10h42v45q0 88 45 133q40 40 111 40q35 0 61 -6q28 -6 28 -33q0 -15 -11 -25t-26 -8q-32 5 -42 5q-90 0 -90 -110v-42h134q14 0 24 -9.5t10 -23.5t-10 -23.5t-24 -9.5h-133v-415q0 -16 -11 -27.5t-27 -11.5
t-27.5 11.5t-11.5 27.5zM482 34v415h-42q-14 0 -23.5 10t-9.5 24q0 13 9.5 23t23.5 10h42v45q0 88 45 133q40 40 111 40q36 0 61 -6q28 -6 28 -33q0 -15 -11 -25t-26 -8q-32 5 -42 5q-90 0 -90 -110v-42h134q14 0 24 -9.5t10 -23.5t-10 -23.5t-24 -9.5h-133v-415
q0 -16 -11 -27.5t-27 -11.5t-27.5 11.5t-11.5 27.5z" />
    <glyph glyph-name="fi" unicode="fi" horiz-adv-x="631" 
d="M453 666v13q0 18 13 29.5t32 11.5q20 0 33 -11.5t13 -29.5v-13q0 -18 -13 -29.5t-33 -11.5q-19 0 -32 11.5t-13 29.5zM460 34v449q0 16 11 27.5t27 11.5t27.5 -11t11.5 -28v-449q0 -17 -11 -28t-27 -11q-17 0 -28 11.5t-11 27.5zM115 34v415h-42q-14 0 -23.5 10t-9.5 24
q0 13 10 23t23 10h42v45q0 88 45 133q40 40 111 40q35 0 61 -6q28 -6 28 -33q0 -15 -11 -25t-26 -8q-32 5 -42 5q-90 0 -90 -110v-42h134q14 0 24 -9.5t10 -23.5t-10 -23.5t-24 -9.5h-133v-415q0 -16 -11 -27.5t-27 -11.5t-27.5 11.5t-11.5 27.5z" />
    <glyph glyph-name="fl" unicode="fl" horiz-adv-x="631" 
d="M460 34v662q0 16 11 27.5t27 11.5t27.5 -11.5t11.5 -27.5v-662q0 -17 -11 -28t-27 -11q-17 0 -28 11.5t-11 27.5zM115 34v415h-42q-14 0 -23.5 10t-9.5 24q0 13 10 23t23 10h42v45q0 88 45 133q40 40 111 40q35 0 61 -6q28 -6 28 -33q0 -15 -11 -25t-26 -8q-32 5 -42 5
q-90 0 -90 -110v-42h134q14 0 24 -9.5t10 -23.5t-10 -23.5t-24 -9.5h-133v-415q0 -16 -11 -27.5t-27 -11.5t-27.5 11.5t-11.5 27.5z" />
    <glyph glyph-name="f_f_i" unicode="ffi" horiz-adv-x="998" 
d="M820 666v13q0 18 13 29.5t32 11.5q20 0 33 -11.5t13 -29.5v-13q0 -18 -13 -29.5t-33 -11.5q-19 0 -32 11.5t-13 29.5zM827 34v449q0 16 11 27.5t27 11.5q17 0 28 -11t11 -28v-449q0 -17 -11 -28t-27 -11t-27.5 11.5t-11.5 27.5zM115 34v415h-42q-14 0 -23.5 10t-9.5 24
q0 13 10 23t23 10h42v45q0 88 45 133q40 40 111 40q35 0 61 -6q28 -6 28 -33q0 -15 -11 -25t-26 -8q-32 5 -42 5q-90 0 -90 -110v-42h134q14 0 24 -9.5t10 -23.5t-10 -23.5t-24 -9.5h-133v-415q0 -16 -11 -27.5t-27 -11.5t-27.5 11.5t-11.5 27.5zM482 34v415h-42
q-14 0 -23.5 10t-9.5 24q0 13 9.5 23t23.5 10h42v45q0 88 45 133q40 40 111 40q36 0 61 -6q28 -6 28 -33q0 -15 -11 -25t-26 -8q-32 5 -42 5q-90 0 -90 -110v-42h134q14 0 24 -9.5t10 -23.5t-10 -23.5t-24 -9.5h-133v-415q0 -16 -11 -27.5t-27 -11.5t-27.5 11.5t-11.5 27.5z
" />
    <glyph glyph-name="f_f_l" unicode="ffl" horiz-adv-x="997" 
d="M115 34v415h-42q-14 0 -23.5 10t-9.5 24q0 13 10 23t23 10h42v45q0 88 45 133q40 40 111 40q35 0 61 -6q28 -6 28 -33q0 -15 -11 -25t-26 -8q-32 5 -42 5q-90 0 -90 -110v-42h134q14 0 24 -9.5t10 -23.5t-10 -23.5t-24 -9.5h-133v-415q0 -16 -11 -27.5t-27 -11.5
t-27.5 11.5t-11.5 27.5zM482 34v415h-42q-14 0 -23.5 10t-9.5 24q0 13 9.5 23t23.5 10h42v45q0 88 45 133q40 40 111 40q36 0 61 -6q28 -6 28 -33q0 -15 -11 -25t-26 -8q-32 5 -42 5q-90 0 -90 -110v-42h134q14 0 24 -9.5t10 -23.5t-10 -23.5t-24 -9.5h-133v-415
q0 -16 -11 -27.5t-27 -11.5t-27.5 11.5t-11.5 27.5zM827 34v662q0 16 11 27.5t27 11.5t27.5 -11.5t11.5 -27.5v-662q0 -17 -11 -28t-27 -11t-27.5 11.5t-11.5 27.5z" />
    <glyph glyph-name=".notdef" horiz-adv-x="500" 
d="M0 -200v1000h500v-1000h-500zM71 750l179 -390l179 390h-358zM50 -76l172 376l-172 376v-752zM450 676l-172 -376l172 -376v752zM250 240l-179 -390h358z" />
    <glyph glyph-name=".null" horiz-adv-x="0" 
 />
    <glyph glyph-name="nonmarkingreturn" horiz-adv-x="333" 
 />
    <glyph glyph-name="space" unicode=" " horiz-adv-x="300" 
 />
    <glyph glyph-name="exclam" unicode="!" horiz-adv-x="271" 
d="M112 217l-23 454q-1 13 7.5 22.5t21.5 9.5h35q13 0 21.5 -9t7.5 -23l-23 -454q-1 -10 -7.5 -16.5t-15.5 -6.5q-22 0 -24 23zM88 63q0 20 13.5 33.5t34.5 13.5q20 0 33.5 -13.5t13.5 -33.5v-20q0 -20 -13.5 -34t-33.5 -14q-21 0 -34.5 14t-13.5 34v20z" />
    <glyph glyph-name="quotedbl" unicode="&#x22;" horiz-adv-x="440" 
d="M262 450l25 215q5 38 40 38h26q23 0 23 -24l-5 -23l-63 -209q-8 -23 -24 -23q-25 0 -22 26zM67 450l25 215q5 38 40 38h26q23 0 23 -24l-5 -23l-63 -209q-8 -23 -24 -23q-25 0 -22 26z" />
    <glyph glyph-name="numbersign" unicode="#" horiz-adv-x="700" 
d="M131 37l24 140h-80q-14 0 -24 10t-10 24t10 24.5t24 10.5h92l37 212h-90q-14 0 -24.5 10t-10.5 24t10.5 24.5t24.5 10.5h102l25 147q2 14 12 22.5t23 8.5q17 0 26.5 -13t7.5 -29l-24 -136h188l25 147q2 14 12 22.5t23 8.5q17 0 26.5 -13t7.5 -29l-23 -136h79
q14 0 24.5 -10t10.5 -24t-10.5 -24.5t-24.5 -10.5h-91l-37 -212h89q14 0 24.5 -10t10.5 -24t-10.5 -24.5t-24.5 -10.5h-101l-26 -151q-1 -13 -11 -22t-24 -9q-17 0 -26.5 13t-7.5 29l25 140h-188l-26 -151q-2 -13 -11.5 -22t-23.5 -9q-17 0 -26.5 12.5t-7.5 29.5zM238 246
h187l37 212h-187z" />
    <glyph glyph-name="dollar" unicode="$" horiz-adv-x="636" 
d="M292 731q0 13 9.5 22.5t22.5 9.5t22.5 -9.5t9.5 -22.5v-33q90 -10 169 -64q20 -15 20 -33q0 -16 -11 -26t-27 -10q-13 0 -22 7q-66 48 -132 58v-247q114 -25 165 -71.5t51 -122.5q0 -80 -59 -131.5t-154 -57.5v-71q0 -13 -9.5 -22.5t-22.5 -9.5t-22.5 9.5t-9.5 22.5v73
q-116 10 -217 89q-17 12 -17 32q0 15 11 25.5t26 10.5q13 0 23 -8q84 -71 177 -82v251q-112 27 -162.5 72t-50.5 123q0 77 59 128.5t151 56.5v31zM492 184q0 46 -30 74.5t-109 48.5v-241q64 4 101.5 36t37.5 82zM159 520q0 -46 29 -74t107 -49v236q-62 -3 -99 -34.5
t-37 -78.5z" />
    <glyph glyph-name="percent" unicode="%" horiz-adv-x="834" 
d="M210 350q-69 0 -113.5 52t-44.5 125v2q0 73 45 126t115 53q69 0 113 -52t44 -125v-2q0 -73 -45 -126t-114 -53zM149 23q0 10 6 19l476 649q11 14 25 14q12 0 20.5 -8.5t8.5 -19.5q0 -10 -6 -19l-476 -649q-10 -14 -25 -14q-12 0 -20.5 8.5t-8.5 19.5zM622 -8
q-69 0 -113 52t-44 125v2q0 73 45 126t114 53t113 -52t44 -125v-2q0 -74 -44.5 -126.5t-114.5 -52.5zM212 406q40 0 65.5 35t25.5 86v2q0 52 -27 87.5t-66 35.5q-40 0 -65.5 -35t-25.5 -86v-2q0 -52 27 -87.5t66 -35.5zM624 48q40 0 65.5 35t25.5 86v2q0 52 -27 87.5
t-66 35.5q-40 0 -65.5 -35t-25.5 -86v-2q0 -52 27 -87.5t66 -35.5z" />
    <glyph glyph-name="ampersand" unicode="&#x26;" horiz-adv-x="696" 
d="M618 -9q-16 0 -32 14l-91 95q-102 -110 -230 -110q-95 0 -157.5 54.5t-62.5 141.5v2q0 136 169 202q-70 82 -70 154v2q0 70 51.5 118t133.5 48q73 0 121.5 -46t48.5 -112v-2q0 -124 -165 -182l160 -163q41 61 73 133q11 21 32 21q15 0 25.5 -10.5t10.5 -25.5q0 -8 -5 -18
q-42 -88 -87 -149l97 -99q15 -17 15 -31q0 -16 -10.5 -26.5t-26.5 -10.5zM290 415q135 46 135 133v2q0 42 -28 69.5t-71 27.5q-47 0 -76.5 -29t-29.5 -72v-2q0 -31 15 -58.5t55 -70.5zM271 57q94 0 176 92l-188 192q-67 -25 -100.5 -64.5t-33.5 -85.5v-2q0 -57 41 -94.5
t105 -37.5z" />
    <glyph glyph-name="quotesingle" unicode="'" horiz-adv-x="245" 
d="M67 450l25 215q5 38 40 38h26q23 0 23 -24q0 -5 -4 -23l-64 -209q-8 -23 -24 -23q-25 0 -22 26z" />
    <glyph glyph-name="parenleft" unicode="(" horiz-adv-x="434" 
d="M349 -137q-14 0 -18 4q-263 155 -263 420t263 420q4 4 18 4q12 0 21 -9t9 -21q0 -17 -15 -27q-218 -143 -218 -367t218 -367q15 -10 15 -27q0 -12 -9 -21t-21 -9z" />
    <glyph glyph-name="parenright" unicode=")" horiz-adv-x="434" 
d="M85 -137q-12 0 -21 9t-9 21q0 17 15 27q218 143 218 367t-218 367q-15 10 -15 27q0 12 9 21t21 9q14 0 18 -4q263 -155 263 -420t-263 -420q-4 -4 -18 -4z" />
    <glyph glyph-name="asterisk" unicode="*" horiz-adv-x="430" 
d="M191 420l8 102l-84 -59q-11 -8 -20 -8q-10 0 -17.5 7.5t-7.5 18.5q0 17 18 23l97 45l-97 45q-18 9 -18 24q0 10 7.5 17.5t17.5 8.5q9 0 20 -8l84 -59l-8 101q-1 12 6 20.5t18 8.5t18.5 -8.5t5.5 -19.5l-8 -102l84 59q11 8 20 8q10 0 17.5 -7.5t7.5 -18.5q0 -16 -18 -24
l-97 -45l97 -45q18 -6 18 -23q0 -10 -7.5 -18t-17.5 -8q-9 0 -20 8l-84 59l8 -102q2 -11 -5.5 -19.5t-18.5 -8.5t-18.5 8.5t-5.5 19.5z" />
    <glyph glyph-name="plus" unicode="+" horiz-adv-x="625" 
d="M275 143v173h-175q-15 0 -26 10.5t-11 25.5t11 25.5t26 10.5h175v173q0 16 11 26.5t27 10.5q15 0 26 -10.5t11 -26.5v-173h176q15 0 25.5 -10.5t10.5 -25.5t-10.5 -25.5t-25.5 -10.5h-176v-173q0 -16 -11 -26.5t-26 -10.5q-16 0 -27 10.5t-11 26.5z" />
    <glyph glyph-name="comma" unicode="," horiz-adv-x="245" 
d="M45 -100q0 13 13 18q59 26 56 82q-39 9 -39 48v16q0 20 13 33t33 13q22 0 35.5 -15t13.5 -40v-19q0 -84 -36 -120q-15 -15 -35.5 -25.5t-32.5 -10.5q-21 0 -21 20z" />
    <glyph glyph-name="hyphen" unicode="-" horiz-adv-x="408" 
d="M100 260q-16 0 -28 12t-12 29q0 16 12 28t28 12h208q16 0 28 -12t12 -28q0 -17 -12 -29t-28 -12h-208z" />
    <glyph glyph-name="period" unicode="." horiz-adv-x="245" 
d="M75 63q0 20 13.5 33.5t34.5 13.5q20 0 33.5 -13.5t13.5 -33.5v-20q0 -20 -13.5 -34t-33.5 -14q-21 0 -34.5 14t-13.5 34v20z" />
    <glyph glyph-name="slash" unicode="/" horiz-adv-x="508" 
d="M-4 -102q0 10 5 17l435 868q10 20 30 20q13 0 22 -9t9 -22q0 -9 -4 -17l-436 -868q-10 -20 -29 -20q-13 0 -22.5 9t-9.5 22z" />
    <glyph glyph-name="zero" unicode="0" horiz-adv-x="715" 
d="M357 -12q-132 0 -213.5 104.5t-81.5 255.5v2q0 151 82.5 256.5t214.5 105.5t213 -104.5t81 -255.5v-2q0 -151 -82 -256.5t-214 -105.5zM359 60q95 0 153.5 84.5t58.5 203.5v2q0 119 -59.5 204.5t-154.5 85.5t-154 -84t-59 -204v-2q0 -119 60 -204.5t155 -85.5z" />
    <glyph glyph-name="one" unicode="1" horiz-adv-x="358" 
d="M179 35v591l-98 -32q-9 -3 -17 -3q-14 0 -24 10t-10 24q0 24 28 34l115 40q29 9 43 9h2q17 0 28 -11.5t11 -27.5v-634q0 -17 -11.5 -28.5t-27.5 -11.5t-27.5 12t-11.5 28z" />
    <glyph glyph-name="two" unicode="2" horiz-adv-x="599" 
d="M44 37q0 21 19 37l239 211q82 73 114 120.5t32 99.5q0 60 -41 97t-100 37q-53 0 -94 -25t-80 -77q-10 -14 -29 -14q-15 0 -25.5 10.5t-10.5 25.5q0 12 8 22q47 65 101 97t136 32q94 0 155.5 -56t61.5 -142v-2q0 -73 -39 -129.5t-138 -142.5l-187 -166h339q15 0 26 -10.5
t11 -25.5t-11 -25.5t-26 -10.5h-421q-17 0 -28.5 10.5t-11.5 26.5z" />
    <glyph glyph-name="three" unicode="3" horiz-adv-x="613" 
d="M311 -12q-150 0 -244 106q-13 13 -13 28q0 16 11.5 27.5t27.5 11.5q17 0 29 -12q78 -89 190 -89q65 0 109 38t44 98v2q0 64 -54 99.5t-142 35.5h-25q-14 0 -24.5 10t-10.5 24q0 15 16 31l204 231h-310q-15 0 -26 10t-11 25t11 25.5t26 10.5h382q17 0 27.5 -9.5
t10.5 -24.5q0 -18 -19 -39l-206 -229q100 -8 165.5 -57.5t65.5 -139.5v-2q0 -92 -67.5 -151.5t-166.5 -59.5z" />
    <glyph glyph-name="four" unicode="4" horiz-adv-x="671" 
d="M432 33v133h-348q-17 0 -28.5 11t-11.5 27q0 18 15 38l364 444q19 24 44 24q18 0 30 -12t12 -29v-437h79q14 0 24 -10t10 -24q0 -13 -10 -22.5t-24 -9.5h-79v-133q0 -16 -11.5 -27t-27.5 -11t-27 11t-11 27zM138 232h294v361z" />
    <glyph glyph-name="five" unicode="5" horiz-adv-x="612" 
d="M304 -12q-126 0 -228 91q-16 13 -16 33q0 14 11 25.5t27 11.5q15 0 27 -10q87 -79 180 -79q74 0 121 43.5t47 111.5v2q0 66 -48.5 106.5t-125.5 40.5q-49 0 -95 -17t-47 -17q-17 0 -40 15q-19 13 -17 43l16 274q1 17 11.5 27.5t26.5 10.5h336q15 0 25.5 -10.5t10.5 -26.5
q0 -15 -10.5 -25.5t-25.5 -10.5h-302l-15 -224q71 31 138 31q105 0 173.5 -58t68.5 -156v-2q0 -101 -70 -165.5t-179 -64.5z" />
    <glyph glyph-name="six" unicode="6" horiz-adv-x="647" 
d="M333 -12q-113 0 -184 71q-45 45 -66.5 107t-21.5 164v2q0 164 78.5 272t212.5 108q99 0 182 -62q19 -13 19 -33q0 -16 -11 -27t-27 -11q-11 0 -22 7q-71 54 -145 54q-94 0 -150 -86t-55 -223q73 107 199 107q101 0 171.5 -59.5t70.5 -155.5v-2q0 -101 -72 -167t-179 -66z
M334 58q76 0 122.5 46t46.5 114v2q0 65 -48 107.5t-123 42.5q-76 0 -125.5 -46t-49.5 -107v-2q0 -67 50 -112t127 -45z" />
    <glyph glyph-name="seven" unicode="7" horiz-adv-x="596" 
d="M157 32q0 10 6 24l290 572h-353q-15 0 -26 10.5t-11 25.5t11 25.5t26 10.5h410q17 0 27.5 -9.5t10.5 -25.5q0 -15 -11 -35l-302 -607q-13 -28 -38 -28q-16 0 -28 10.5t-12 26.5z" />
    <glyph glyph-name="eight" unicode="8" horiz-adv-x="630" 
d="M315 -10q-113 0 -188 55.5t-75 142.5v2q0 60 39 104t105 68q-120 55 -120 161v2q0 79 70.5 132t168.5 53t168.5 -53t70.5 -132v-2q0 -106 -120 -161q66 -25 105 -68t39 -103v-2q0 -88 -75 -143.5t-188 -55.5zM315 390q68 0 114 36t46 92v2q0 52 -46 86.5t-114 34.5
q-69 0 -114.5 -34.5t-45.5 -86.5v-2q0 -56 46 -92t114 -36zM315 59q84 0 133.5 38t49.5 93v2q0 58 -53 95.5t-130 37.5t-130 -37.5t-53 -95.5v-2q0 -55 50 -93t133 -38z" />
    <glyph glyph-name="nine" unicode="9" horiz-adv-x="647" 
d="M295 -12q-102 0 -195 70q-18 13 -18 32q0 16 11 27t27 11q12 0 25 -8q73 -60 152 -60q94 0 152 86t56 221q-70 -112 -198 -112q-108 0 -176 61t-68 156v2q0 101 71 169.5t181 68.5q112 0 184 -72q87 -87 87 -271v-2q0 -167 -81 -273t-210 -106zM316 323q77 0 125.5 47.5
t48.5 110.5v2q0 68 -50 113.5t-128 45.5q-76 0 -122 -48t-46 -116v-2q0 -67 48 -110t124 -43z" />
    <glyph glyph-name="colon" unicode=":" horiz-adv-x="255" 
d="M80 475q0 20 13.5 33.5t34.5 13.5q20 0 33.5 -13.5t13.5 -33.5v-21q0 -20 -13.5 -33.5t-33.5 -13.5q-21 0 -34.5 13.5t-13.5 33.5v21zM80 63q0 20 13.5 33.5t34.5 13.5q20 0 33.5 -13.5t13.5 -33.5v-20q0 -20 -13.5 -34t-33.5 -14q-21 0 -34.5 14t-13.5 34v20z" />
    <glyph glyph-name="semicolon" unicode=";" horiz-adv-x="255" 
d="M80 475q0 20 13.5 33.5t34.5 13.5q20 0 33.5 -13.5t13.5 -33.5v-21q0 -20 -13.5 -33.5t-33.5 -13.5q-21 0 -34.5 13.5t-13.5 33.5v21zM50 -100q0 13 13 18q59 26 56 82q-39 9 -39 48v16q0 20 13 33t33 13q22 0 35.5 -15t13.5 -40v-19q0 -84 -36 -120q-15 -15 -35.5 -25.5
t-32.5 -10.5q-21 0 -21 20z" />
    <glyph glyph-name="less" unicode="&#x3c;" horiz-adv-x="625" 
d="M504 101q-6 0 -19 5l-395 201q-29 15 -29 43v4q0 28 29 43l395 201q10 5 21 5q13 1 22.5 -9.5t9.5 -24.5q0 -23 -23 -34l-367 -182l367 -184q23 -11 23 -34q0 -14 -9.5 -24t-24.5 -10z" />
    <glyph glyph-name="equal" unicode="=" horiz-adv-x="625" 
d="M113 198q-15 0 -26 10.5t-11 26.5q0 15 11 26t26 11h399q16 0 27 -11t11 -26q0 -16 -11 -26.5t-27 -10.5h-399zM113 432q-15 0 -26 10.5t-11 26.5q0 15 11 26t26 11h399q16 0 27 -11t11 -26q0 -16 -11 -26.5t-27 -10.5h-399z" />
    <glyph glyph-name="greater" unicode="&#x3e;" horiz-adv-x="625" 
d="M121 603q5 0 20 -5l394 -201q30 -15 30 -43v-4q0 -28 -30 -43l-394 -201q-12 -5 -21 -5q-13 -1 -23 9.5t-10 24.5q0 22 23 34l367 182l-367 184q-23 12 -23 34q0 14 10 24t24 10z" />
    <glyph glyph-name="question" unicode="?" horiz-adv-x="537" 
d="M248 193h-4q-10 0 -17.5 7.5t-8.5 19.5l-11 112q-1 14 7 23.5t22 11.5q81 6 127 41.5t46 97.5v2q0 55 -40 92.5t-106 37.5q-93 0 -165 -78q-13 -11 -27 -11q-15 0 -25.5 10t-10.5 25t12 27q90 98 218 98q100 0 162 -56t62 -142v-2q0 -89 -58 -139.5t-150 -63.5l-7 -86
q-3 -27 -26 -27zM197 63q0 20 14 33.5t34 13.5t34 -13.5t14 -33.5v-20q0 -20 -14 -34t-34 -14t-34 14t-14 34v20z" />
    <glyph glyph-name="at" unicode="@" horiz-adv-x="980" 
d="M499 -162q-190 0 -318 127.5t-128 308.5q0 180 127.5 309t310.5 129q181 0 308.5 -118.5t127.5 -277.5q0 -119 -55.5 -182t-131.5 -63q-53 0 -89 22.5t-51 61.5q-71 -84 -165 -84q-75 0 -127 50.5t-52 131.5q0 103 71.5 176t159.5 73q99 0 146 -83l8 43q6 34 35 34
q16 0 26 -12.5t7 -29.5l-36 -202q-7 -39 -7 -61q0 -38 22.5 -59.5t62.5 -21.5q58 0 99 53t41 153q0 142 -116.5 252t-283.5 110q-171 0 -286.5 -118t-115.5 -286q0 -169 116 -285.5t294 -116.5q130 0 241 64q4 2 10 2t10.5 -5t4.5 -11t-8 -14q-120 -70 -258 -70zM450 133
q64 0 114 54.5t50 125.5q0 55 -34.5 91t-87.5 36q-65 0 -114.5 -53t-49.5 -129q0 -58 34 -91.5t88 -33.5z" />
    <glyph glyph-name="A" unicode="A" horiz-adv-x="784" 
d="M51 31q0 11 5 21l284 621q16 35 50 35h4q35 0 49 -35l284 -620q5 -12 5 -20q0 -16 -11 -27t-27 -11q-26 0 -39 29l-73 161h-384l-73 -163q-11 -27 -38 -27q-15 0 -25.5 10.5t-10.5 25.5zM229 257h322l-161 358z" />
    <glyph glyph-name="B" unicode="B" horiz-adv-x="722" 
d="M99 40v620q0 16 11.5 28t27.5 12h259q119 0 183 -62q45 -47 45 -112v-2q0 -114 -111 -162q150 -45 150 -169v-2q0 -89 -69 -140t-185 -51h-272q-16 0 -27.5 12t-11.5 28zM177 388h207q73 0 117 32.5t44 92.5v2q0 53 -40.5 83.5t-114.5 30.5h-213v-241zM177 71h235
q80 0 126 33.5t46 91.5v2q0 58 -47.5 89t-138.5 31h-221v-247z" />
    <glyph glyph-name="C" unicode="C" horiz-adv-x="738" 
d="M419 -12q-150 0 -250.5 104t-100.5 256v2q0 151 101 256.5t253 105.5q79 0 137.5 -23t112.5 -68q16 -14 16 -32q0 -16 -12 -27.5t-28 -11.5q-12 0 -26 9q-90 80 -201 80q-116 0 -193.5 -83t-77.5 -204v-2q0 -122 78 -205.5t193 -83.5t208 85q11 11 25 11q15 0 26.5 -11.5
t11.5 -26.5q0 -17 -13 -28q-113 -103 -260 -103z" />
    <glyph glyph-name="D" unicode="D" horiz-adv-x="782" 
d="M99 40v620q0 16 11.5 28t27.5 12h204q163 0 267.5 -99.5t104.5 -248.5v-2q0 -150 -104.5 -250t-267.5 -100h-204q-16 0 -27.5 12t-11.5 28zM178 73h164q130 0 210 78t80 197v2q0 119 -80 198t-210 79h-164v-554z" />
    <glyph glyph-name="E" unicode="E" horiz-adv-x="670" 
d="M138 0q-16 0 -27.5 12t-11.5 28v620q0 16 11.5 28t27.5 12h435q15 0 25.5 -10.5t10.5 -25.5t-10.5 -25.5t-25.5 -10.5h-395v-239h350q15 0 25.5 -11t10.5 -25q0 -15 -10.5 -25.5t-25.5 -10.5h-350v-245h400q15 0 25.5 -10.5t10.5 -25.5t-10.5 -25.5t-25.5 -10.5h-440z
" />
    <glyph glyph-name="F" unicode="F" horiz-adv-x="656" 
d="M99 35v625q0 16 11.5 28t27.5 12h433q15 0 25.5 -10.5t10.5 -25.5t-10.5 -26t-25.5 -11h-393v-250h348q15 0 25.5 -10.5t10.5 -25.5t-10.5 -25.5t-25.5 -10.5h-348v-270q0 -17 -12 -28.5t-28 -11.5t-27.5 12t-11.5 28z" />
    <glyph glyph-name="G" unicode="G" horiz-adv-x="784" 
d="M424 -12q-161 0 -258.5 103t-97.5 257v2q0 148 99 255t252 107q137 0 239 -75q16 -12 16 -32q0 -16 -11.5 -28t-27.5 -12q-12 0 -25 10q-84 64 -194 64q-114 0 -190 -84t-76 -203v-2q0 -127 75.5 -209t201.5 -82q116 0 202 70v174h-188q-14 0 -24.5 10.5t-10.5 24.5
q0 15 10.5 25.5t24.5 10.5h225q16 0 27.5 -12t11.5 -28v-213q0 -30 -27 -48q-116 -85 -254 -85z" />
    <glyph glyph-name="H" unicode="H" horiz-adv-x="760" 
d="M99 35v630q0 16 11.5 28t27.5 12t28 -11.5t12 -28.5v-276h404v276q0 17 12 28.5t28 11.5t27.5 -12t11.5 -28v-630q0 -16 -11.5 -28t-27.5 -12t-28 11.5t-12 28.5v280h-404v-280q0 -17 -12 -28.5t-28 -11.5t-27.5 12t-11.5 28z" />
    <glyph glyph-name="I" unicode="I" horiz-adv-x="291" 
d="M106 35v630q0 16 11.5 28t27.5 12q17 0 28.5 -11.5t11.5 -28.5v-630q0 -17 -11.5 -28.5t-28.5 -11.5q-16 0 -27.5 12t-11.5 28z" />
    <glyph glyph-name="J" unicode="J" horiz-adv-x="553" 
d="M247 -10q-124 0 -198 100q-11 11 -11 27t11.5 27.5t27.5 11.5t28 -14q30 -41 63.5 -60t80.5 -19q61 0 99 43.5t38 124.5v434q0 17 12 28.5t28 11.5t27.5 -11.5t11.5 -28.5v-433q0 -120 -64 -184q-60 -58 -154 -58z" />
    <glyph glyph-name="K" unicode="K" horiz-adv-x="714" 
d="M99 35v630q0 16 11.5 28t27.5 12t28 -11.5t12 -28.5v-383l399 409q16 14 31 14t26.5 -12t11.5 -27t-13 -28l-248 -246l266 -328q11 -14 11 -29q0 -16 -12 -28t-28 -12q-19 0 -32 18l-261 325l-151 -151v-152q0 -17 -12 -28.5t-28 -11.5t-27.5 12t-11.5 28z" />
    <glyph glyph-name="L" unicode="L" horiz-adv-x="619" 
d="M99 40v625q0 16 11.5 28t27.5 12t28 -11.5t12 -28.5v-592h363q15 0 25.5 -11t10.5 -26t-10.5 -25.5t-25.5 -10.5h-403q-16 0 -27.5 12t-11.5 28z" />
    <glyph glyph-name="M" unicode="M" horiz-adv-x="868" 
d="M99 34v630q0 16 11.5 27.5t27.5 11.5h9q23 0 37 -21l250 -376l250 376q13 21 37 21h9q16 0 27.5 -11.5t11.5 -27.5v-629q0 -16 -11.5 -28t-27.5 -12t-28 12t-12 28v522l-224 -329q-14 -20 -33 -20q-20 0 -34 20l-223 328v-522q0 -16 -11 -27.5t-28 -11.5q-16 0 -27 11.5
t-11 27.5z" />
    <glyph glyph-name="N" unicode="N" horiz-adv-x="790" 
d="M99 34v630q0 16 11.5 27.5t27.5 11.5h11q22 0 40 -23l425 -542v528q0 16 11.5 27.5t27.5 11.5t27 -11.5t11 -27.5v-632q0 -16 -10 -26.5t-26 -10.5h-4q-20 0 -41 24l-434 555v-542q0 -16 -11.5 -27.5t-27.5 -11.5t-27 11.5t-11 27.5z" />
    <glyph glyph-name="O" unicode="O" horiz-adv-x="850" 
d="M424 -12q-156 0 -256 105.5t-100 254.5v2q0 149 101 255.5t257 106.5t256 -105.5t100 -254.5v-2q0 -149 -101 -255.5t-257 -106.5zM426 61q119 0 196.5 83t77.5 204v2q0 121 -78.5 205t-197.5 84t-196.5 -83t-77.5 -204v-2q0 -121 78.5 -205t197.5 -84z" />
    <glyph glyph-name="P" unicode="P" horiz-adv-x="668" 
d="M99 35v625q0 16 11.5 28t27.5 12h223q119 0 190.5 -59.5t71.5 -162.5v-2q0 -109 -78.5 -169t-196.5 -60h-170v-212q0 -17 -12 -28.5t-28 -11.5t-27.5 12t-11.5 28zM178 319h173q87 0 139.5 42.5t52.5 111.5v2q0 73 -50.5 112.5t-137.5 39.5h-177v-308z" />
    <glyph glyph-name="Q" unicode="Q" horiz-adv-x="850" 
d="M424 -12q-156 0 -256 105.5t-100 254.5v2q0 149 101 255.5t257 106.5t256 -105.5t100 -254.5v-2q0 -133 -83 -235l66 -55q16 -14 16 -33q0 -16 -11.5 -27.5t-27.5 -11.5q-15 0 -30 13l-68 61q-95 -74 -220 -74zM482 204q-17 14 -17 32q0 16 11.5 28t27.5 12q15 0 30 -13
l107 -98q59 78 59 183v2q0 121 -78.5 205t-197.5 84t-196.5 -83t-77.5 -204v-2q0 -121 78.5 -205t197.5 -84q93 0 162 52z" />
    <glyph glyph-name="R" unicode="R" horiz-adv-x="723" 
d="M99 35v625q0 16 11.5 28t27.5 12h262q129 0 199 -70q54 -54 54 -138v-2q0 -83 -50.5 -135t-136.5 -68l174 -224q13 -15 13 -29q0 -16 -12.5 -27.5t-27.5 -11.5q-21 0 -37 21l-197 256h-201v-237q0 -17 -12 -28.5t-28 -11.5t-27.5 12t-11.5 28zM178 343h215q80 0 130 39
t50 105v2q0 65 -47.5 101.5t-131.5 36.5h-216v-284z" />
    <glyph glyph-name="S" unicode="S" horiz-adv-x="640" 
d="M339 -10q-147 0 -265 94q-15 10 -15 30q0 16 11 27.5t27 11.5q15 0 24 -9q98 -83 221 -83q70 0 113 33.5t43 85.5v2q0 51 -38 81t-144 52q-124 27 -179.5 72.5t-55.5 129.5v2q0 83 65 137t165 54q127 0 223 -69q17 -13 17 -32q0 -16 -11 -27t-27 -11q-13 0 -23 7
q-84 61 -181 61q-67 0 -108 -32.5t-41 -80.5v-2q0 -52 39.5 -82t150.5 -54q119 -26 173.5 -72.5t54.5 -125.5v-2q0 -89 -67 -143.5t-172 -54.5z" />
    <glyph glyph-name="T" unicode="T" horiz-adv-x="648" 
d="M284 35v592h-203q-15 0 -26 10.5t-11 25.5t11 26t26 11h486q15 0 26 -11t11 -26t-11 -25.5t-26 -10.5h-203v-592q0 -17 -12 -28.5t-28 -11.5t-28 11.5t-12 28.5z" />
    <glyph glyph-name="U" unicode="U" horiz-adv-x="759" 
d="M379 -11q-133 0 -212 79.5t-79 224.5v372q0 16 11.5 28t27.5 12q17 0 28.5 -11.5t11.5 -28.5v-367q0 -112 57 -174t157 -62q99 0 155 59t56 172v372q0 17 12 28.5t28 11.5t27.5 -12t11.5 -28v-366q0 -150 -79 -230t-213 -80z" />
    <glyph glyph-name="V" unicode="V" horiz-adv-x="744" 
d="M370 -8q-33 0 -46 33l-270 623q-4 8 -4 18q0 15 12 27t28 12q29 0 41 -30l242 -580l243 582q14 28 39 28q16 0 27.5 -11.5t11.5 -26.5q0 -9 -3 -16l-271 -626q-15 -33 -46 -33h-4z" />
    <glyph glyph-name="W" unicode="W" horiz-adv-x="1101" 
d="M281 25l-224 622q-4 12 -4 18q0 16 12.5 28t28.5 12q30 0 41 -33l193 -556l183 558q10 31 39 31h5q29 0 39 -31l183 -558l194 558q10 31 38 31q16 0 28 -12t12 -27q0 -4 -5 -19l-224 -622q-12 -34 -41 -34h-6q-29 0 -41 34l-182 538l-181 -538q-12 -34 -41 -34h-6
q-30 0 -41 34z" />
    <glyph glyph-name="X" unicode="X" horiz-adv-x="719" 
d="M66 32q0 15 11 28l234 297l-222 280q-13 17 -13 30q0 15 11.5 26.5t27.5 11.5q18 0 35 -20l211 -274l208 271q19 23 38 23q15 0 25.5 -10.5t10.5 -26.5q0 -15 -11 -28l-223 -282l231 -295q13 -15 13 -29q0 -16 -11.5 -27.5t-27.5 -11.5q-18 0 -35 20l-221 287l-218 -284
q-19 -23 -39 -23q-14 0 -24.5 11t-10.5 26z" />
    <glyph glyph-name="Y" unicode="Y" horiz-adv-x="708" 
d="M314 35v240l-260 364q-9 14 -9 27q0 16 12 27.5t29 11.5q21 0 38 -24l231 -333l233 333q17 24 37 24q16 0 27.5 -11.5t11.5 -27.5q0 -11 -11 -29l-259 -360v-242q0 -17 -12 -28.5t-28 -11.5t-28 11.5t-12 28.5z" />
    <glyph glyph-name="Z" unicode="Z" horiz-adv-x="693" 
d="M104 0q-15 0 -26 10t-11 24v2q0 18 14 35l439 558h-406q-15 0 -25.5 10.5t-10.5 24.5q0 15 10.5 25.5t25.5 10.5h477q14 0 25 -10.5t11 -23.5v-2q0 -18 -14 -35l-439 -558h422q15 0 25.5 -10.5t10.5 -24.5q0 -15 -10.5 -25.5t-25.5 -10.5h-492z" />
    <glyph glyph-name="bracketleft" unicode="[" horiz-adv-x="439" 
d="M94 -91v752q0 16 11.5 27.5t27.5 11.5h222q12 0 21 -9t9 -21t-9 -21t-21 -9h-188v-710h188q12 0 21 -9t9 -21t-9 -21t-21 -9h-222q-16 0 -27.5 11.5t-11.5 27.5z" />
    <glyph glyph-name="backslash" unicode="\" horiz-adv-x="508" 
d="M512 -102q0 -13 -9.5 -22t-22.5 -9q-19 0 -29 20l-436 868q-4 8 -4 17q0 13 9 22t22 9q20 0 30 -20l436 -868q4 -8 4 -17z" />
    <glyph glyph-name="bracketright" unicode="]" horiz-adv-x="439" 
d="M346 661v-752q0 -16 -11.5 -27.5t-27.5 -11.5h-222q-13 0 -22 9t-9 21t9 21t22 9h188v710h-188q-13 0 -22 9t-9 21t9 21t22 9h222q16 0 27.5 -11.5t11.5 -27.5z" />
    <glyph glyph-name="asciicircum" unicode="^" horiz-adv-x="500" 
d="M249 647l-101 -133q-20 -25 -50 -25q-8 0 -13.5 4.5t-5.5 9.5q0 9 7 19l119 159q20 25 41 25h8q21 0 41 -25l118 -159q8 -9 8 -19q0 -14 -20 -14q-31 0 -51 25z" />
    <glyph glyph-name="underscore" unicode="_" horiz-adv-x="600" 
d="M-2 -160q-13 0 -22.5 9.5t-9.5 22.5t9.5 22t22.5 9h604q13 0 22.5 -9t9.5 -22t-9.5 -22.5t-22.5 -9.5h-604z" />
    <glyph glyph-name="grave" unicode="`" horiz-adv-x="500" 
d="M289 591q-28 0 -47 19l-75 71q-14 14 -14 23q0 10 18 20t36 10q21 0 36 -23l60 -91q5 -7 5 -15q0 -14 -19 -14z" />
    <glyph glyph-name="a" unicode="a" horiz-adv-x="579" 
d="M240 -11q-78 0 -135.5 43t-57.5 118v2q0 80 60 123.5t161 43.5q81 0 159 -22v18q0 69 -40 105t-114 36q-69 0 -134 -29q-7 -3 -14 -3q-14 0 -24 10t-10 23q0 24 21 32q81 35 169 35q110 0 167 -57q53 -53 53 -151v-283q0 -16 -10.5 -27t-26.5 -11t-26.5 10.5t-10.5 25.5
v47q-68 -89 -187 -89zM255 50q72 0 122.5 39.5t50.5 100.5v50q-76 22 -152 22q-72 0 -111.5 -29t-39.5 -78v-2q0 -47 37.5 -75t92.5 -28z" />
    <glyph glyph-name="b" unicode="b" 
d="M86 34v662q0 16 11 27.5t27 11.5t27.5 -11.5t11.5 -27.5v-283q78 115 198 115q99 0 173 -73t74 -195v-2q0 -121 -74 -195t-173 -74q-122 0 -198 110v-65q0 -16 -11 -27.5t-27 -11.5t-27.5 11.5t-11.5 27.5zM347 58q78 0 130 54t52 145v2q0 89 -53 144.5t-129 55.5
q-75 0 -131 -56.5t-56 -142.5v-2q0 -87 56 -143.5t131 -56.5z" />
    <glyph glyph-name="c" unicode="c" horiz-adv-x="571" 
d="M319 -12q-112 0 -188.5 79t-76.5 189v2q0 111 76.5 190.5t188.5 79.5q108 0 190 -75q12 -10 12 -27q0 -16 -11 -26.5t-26 -10.5q-14 0 -25 9q-67 62 -141 62q-78 0 -131.5 -58t-53.5 -142v-2q0 -84 54.5 -142.5t135.5 -58.5q77 0 144 63q10 10 22 10q14 0 24.5 -10.5
t10.5 -24.5t-10 -24q-83 -83 -195 -83z" />
    <glyph glyph-name="d" unicode="d" 
d="M578 696v-662q0 -16 -11 -27.5t-27 -11.5t-27.5 11.5t-11.5 27.5v70q-78 -115 -198 -115q-99 0 -173 73t-74 195v2q0 121 74 195t173 74q122 0 198 -110v278q0 17 11 28t27 11q17 0 28 -11.5t11 -27.5zM317 459q-78 0 -130 -54t-52 -145v-2q0 -89 53.5 -144.5
t128.5 -55.5t131 56.5t56 143.5v2q0 86 -56 142.5t-131 56.5z" />
    <glyph glyph-name="e" unicode="e" horiz-adv-x="592" 
d="M132 287h333q-6 76 -49 126t-116 50q-67 0 -113.5 -50t-54.5 -126zM507 66q-81 -78 -195 -78q-109 0 -183.5 75.5t-74.5 193.5v2q0 113 71 191t177 78q110 0 175 -77t65 -185q0 -15 -10.5 -25.5t-25.5 -10.5h-374q8 -82 59.5 -128.5t122.5 -46.5q84 0 149 60q11 9 22 9
q14 0 24 -9.5t10 -23.5q0 -15 -12 -25z" />
    <glyph glyph-name="f" unicode="f" horiz-adv-x="367" 
d="M115 34v415h-42q-14 0 -23.5 10t-9.5 24q0 13 10 23t23 10h42v45q0 88 45 133q40 40 111 40q35 0 61 -6q28 -6 28 -33q0 -15 -11 -25t-26 -8q-32 5 -42 5q-90 0 -90 -110v-42h134q14 0 24 -9.5t10 -23.5t-10 -23.5t-24 -9.5h-133v-415q0 -16 -11 -27.5t-27 -11.5
t-27.5 11.5t-11.5 27.5z" />
    <glyph glyph-name="g" unicode="g" 
d="M315 -162q-117 0 -216 61q-20 10 -20 32q0 13 11 23.5t24 10.5q9 0 17 -5q84 -56 183 -56q87 0 137.5 47.5t50.5 136.5v61q-82 -109 -203 -109q-98 0 -170.5 67.5t-72.5 174.5v2q0 109 73 176.5t170 67.5q124 0 202 -104v59q0 16 11 27.5t27 11.5t27.5 -11.5t11.5 -27.5
v-393q0 -117 -66 -183q-69 -69 -197 -69zM314 108q76 0 133 49.5t57 125.5v2q0 77 -56.5 126t-133.5 49q-75 0 -127 -48t-52 -126v-2q0 -76 52.5 -126t126.5 -50z" />
    <glyph glyph-name="h" unicode="h" horiz-adv-x="616" 
d="M86 34v662q0 16 11 27.5t27 11.5t27.5 -11.5t11.5 -27.5v-269q61 101 177 101q92 0 145 -56.5t53 -150.5v-287q0 -16 -11 -27.5t-27 -11.5t-27.5 11.5t-11.5 27.5v268q0 73 -37.5 114.5t-105.5 41.5q-67 0 -111 -45t-44 -117v-262q0 -17 -11 -28t-27 -11q-17 0 -28 11.5
t-11 27.5z" />
    <glyph glyph-name="i" unicode="i" horiz-adv-x="263" 
d="M86 666v13q0 18 13 29.5t32 11.5q20 0 33 -11.5t13 -29.5v-13q0 -18 -13 -29.5t-33 -11.5q-19 0 -32 11.5t-13 29.5zM93 34v449q0 16 11 27.5t27 11.5q17 0 28 -11t11 -28v-449q0 -17 -11 -28t-27 -11t-27.5 11.5t-11.5 27.5z" />
    <glyph glyph-name="j" unicode="j" horiz-adv-x="263" 
d="M86 666v13q0 18 13 29.5t32 11.5q20 0 33 -11.5t13 -29.5v-13q0 -18 -13 -29.5t-33 -11.5q-19 0 -32 11.5t-13 29.5zM47 -163q-13 0 -18 1q-39 2 -39 33q0 13 9.5 22.5t22.5 9.5q3 0 9 -0.5t8 -0.5q54 0 54 66v515q0 16 11 27.5t27 11.5q17 0 28 -11t11 -28v-513
q0 -66 -32.5 -99.5t-90.5 -33.5z" />
    <glyph glyph-name="k" unicode="k" horiz-adv-x="568" 
d="M86 34v662q0 16 11 27.5t27 11.5t27.5 -11.5t11.5 -27.5v-474l280 285q13 15 30 15q15 0 25 -10.5t10 -25.5t-15 -30l-169 -166l185 -233q10 -13 10 -26q0 -16 -10.5 -26t-26.5 -10q-19 0 -33 18l-179 226l-107 -106v-99q0 -17 -11 -28t-27 -11q-17 0 -28 11.5t-11 27.5z
" />
    <glyph glyph-name="l" unicode="l" horiz-adv-x="263" 
d="M93 34v662q0 16 11 27.5t27 11.5t27.5 -11.5t11.5 -27.5v-662q0 -17 -11 -28t-27 -11t-27.5 11.5t-11.5 27.5z" />
    <glyph glyph-name="m" unicode="m" horiz-adv-x="951" 
d="M86 34v449q0 16 11 27.5t27 11.5t27.5 -11t11.5 -28v-53q65 98 167 98q116 0 166 -103q67 103 182 103q89 0 140.5 -56t51.5 -152v-286q0 -16 -11 -27.5t-27 -11.5t-27.5 11.5t-11.5 27.5v268q0 75 -35.5 115.5t-98.5 40.5q-61 0 -101.5 -43t-40.5 -117v-264
q0 -16 -11.5 -27.5t-27.5 -11.5t-27 11.5t-11 27.5v270q0 72 -35.5 113t-97.5 41t-103 -46t-41 -117v-261q0 -17 -11 -28t-27 -11q-17 0 -28 11.5t-11 27.5z" />
    <glyph glyph-name="n" unicode="n" horiz-adv-x="616" 
d="M86 34v449q0 16 11 27.5t27 11.5t27.5 -11t11.5 -28v-56q61 101 177 101q92 0 145 -56.5t53 -150.5v-287q0 -16 -11 -27.5t-27 -11.5t-27.5 11.5t-11.5 27.5v268q0 73 -37.5 114.5t-105.5 41.5q-67 0 -111 -45t-44 -117v-262q0 -17 -11 -28t-27 -11q-17 0 -28 11.5
t-11 27.5z" />
    <glyph glyph-name="o" unicode="o" horiz-adv-x="646" 
d="M322 -12q-115 0 -191.5 78.5t-76.5 189.5v2q0 111 77.5 190.5t192.5 79.5t192 -78.5t77 -189.5v-2q0 -111 -78 -190.5t-193 -79.5zM324 57q83 0 136.5 58t53.5 141v2q0 84 -55.5 143t-136.5 59q-82 0 -135.5 -58.5t-53.5 -141.5v-2q0 -84 55 -142.5t136 -58.5z" />
    <glyph glyph-name="p" unicode="p" 
d="M86 -126v609q0 16 11 27.5t27 11.5t27.5 -11t11.5 -28v-70q78 115 198 115q99 0 173 -73t74 -195v-2q0 -121 -74 -195t-173 -74q-122 0 -198 110v-225q0 -17 -11 -28t-27 -11q-17 0 -28 11.5t-11 27.5zM347 58q78 0 130 54t52 145v2q0 89 -53 144.5t-129 55.5
q-75 0 -131 -56.5t-56 -142.5v-2q0 -87 56 -143.5t131 -56.5z" />
    <glyph glyph-name="q" unicode="q" 
d="M578 483v-609q0 -16 -11 -27.5t-27 -11.5t-27.5 11.5t-11.5 27.5v230q-78 -115 -198 -115q-99 0 -173 73t-74 195v2q0 121 74 195t173 74q122 0 198 -110v65q0 16 11 27.5t27 11.5t27.5 -11.5t11.5 -27.5zM317 459q-78 0 -130 -54t-52 -145v-2q0 -89 53.5 -144.5
t128.5 -55.5t131 56.5t56 143.5v2q0 86 -56 142.5t-131 56.5z" />
    <glyph glyph-name="r" unicode="r" horiz-adv-x="405" 
d="M86 34v449q0 16 11 27.5t27 11.5t27.5 -11t11.5 -28v-97q28 63 78 100.5t100 37.5q17 0 27.5 -11t10.5 -28q0 -16 -9.5 -26.5t-24.5 -12.5q-80 -10 -131 -70t-51 -166v-176q0 -16 -11 -27.5t-27 -11.5q-17 0 -28 11.5t-11 27.5z" />
    <glyph glyph-name="s" unicode="s" horiz-adv-x="498" 
d="M257 -10q-108 0 -199 65q-14 10 -14 28q0 14 10 23.5t24 9.5q12 0 19 -6q81 -55 164 -55q47 0 77 22.5t30 59.5v2q0 35 -32.5 54t-96.5 37q-39 11 -62 20t-52 25.5t-43 41.5t-14 59v2q0 66 49.5 107t126.5 41q84 0 165 -44q19 -11 19 -32q0 -14 -10 -23.5t-24 -9.5
q-9 0 -17 4q-70 40 -135 40q-45 0 -72.5 -21t-27.5 -54v-2q0 -14 8 -26t18 -20t31.5 -17t34.5 -13t41 -13q29 -9 48.5 -16t44 -19.5t39 -27t24.5 -36.5t10 -49v-2q0 -72 -52 -113.5t-132 -41.5z" />
    <glyph glyph-name="t" unicode="t" horiz-adv-x="404" 
d="M259 -9q-67 0 -106.5 35.5t-39.5 110.5v312h-42q-13 0 -23.5 10.5t-10.5 23.5q0 14 10 24t24 10h42v122q0 16 11 27.5t27 11.5t27.5 -11.5t11.5 -27.5v-122h134q14 0 24.5 -10t10.5 -24t-10.5 -24t-24.5 -10h-134v-302q0 -86 87 -86q16 0 31 3l16 4q14 0 23.5 -10
t9.5 -23q0 -22 -22 -30q-34 -14 -76 -14z" />
    <glyph glyph-name="u" unicode="u" horiz-adv-x="616" 
d="M529 483v-449q0 -16 -11 -27.5t-27 -11.5t-27 11.5t-11 27.5v56q-63 -101 -177 -101q-92 0 -145 56.5t-53 150.5v287q0 17 11 28t27 11t27.5 -11.5t11.5 -27.5v-268q0 -73 37.5 -114.5t105.5 -41.5q67 0 111 45t44 117v262q0 17 11 28t27 11t27 -11.5t11 -27.5z" />
    <glyph glyph-name="v" unicode="v" horiz-adv-x="584" 
d="M337 25q-15 -33 -43 -33h-4q-29 0 -44 33l-194 438q-5 17 -5 21q0 15 11.5 26.5t27.5 11.5q28 0 39 -30l167 -404l170 406q9 28 36 28q16 0 27 -11t11 -27q0 -9 -4 -19z" />
    <glyph glyph-name="w" unicode="w" horiz-adv-x="858" 
d="M255 -8q-31 0 -43 35l-157 437q-5 15 -5 21q0 15 11 26t28 11q29 0 39 -32l130 -388l131 389q10 31 38 31h4q30 0 40 -31l130 -389l132 390q9 30 37 30q16 0 27 -10.5t11 -25.5q0 -6 -5 -21l-158 -438q-12 -35 -42 -35h-3q-31 0 -42 35l-129 377l-130 -377
q-11 -35 -42 -35h-2z" />
    <glyph glyph-name="x" unicode="x" horiz-adv-x="571" 
d="M60 30q0 15 10 25l169 208l-159 195q-12 14 -12 28q0 16 10.5 26t25.5 10q19 0 34 -18l149 -189l148 188q16 19 33 19q15 0 25 -10t10 -25q0 -13 -10 -25l-161 -197l168 -206q11 -14 11 -28q0 -16 -10.5 -26t-25.5 -10q-19 0 -34 18l-157 199l-156 -198q-16 -19 -33 -19
q-15 0 -25 10.5t-10 24.5z" />
    <glyph glyph-name="y" unicode="y" horiz-adv-x="587" 
d="M161 -163q-42 0 -85 15q-24 10 -24 33q0 14 10 23.5t23 9.5q7 0 19 -4q27 -9 56 -9q35 0 58.5 21.5t45.5 70.5l4 8l-216 458q-5 12 -5 21q0 16 11.5 27t27.5 11q27 0 39 -30l180 -406l160 407q11 29 37 29q16 0 27 -11t11 -27q0 -7 -4 -19l-202 -482
q-33 -79 -73.5 -112.5t-99.5 -33.5z" />
    <glyph glyph-name="z" unicode="z" horiz-adv-x="556" 
d="M93 0q-15 0 -26 9t-11 22v2q0 18 16 35l327 384h-302q-14 0 -23.5 9.5t-9.5 22.5q0 14 10 23.5t23 9.5h369q16 0 26.5 -9t10.5 -22v-2q0 -18 -16 -35l-327 -384h315q13 0 23 -9.5t10 -22.5t-10 -23t-23 -10h-382z" />
    <glyph glyph-name="braceleft" unicode="{" horiz-adv-x="483" 
d="M398 -137q-116 24 -157.5 70t-41.5 128q0 7 0.5 37t0.5 39q0 60 -25 89.5t-89 30.5q-35 2 -35 30t35 30q64 1 89 30.5t25 89.5q0 9 -0.5 39t-0.5 37q0 82 41.5 128t157.5 70q14 3 24 -4.5t10 -20.5q0 -19 -18 -26q-91 -25 -116.5 -56.5t-25.5 -100.5q0 -10 0.5 -37
t0.5 -38q0 -60 -26.5 -92.5t-77.5 -48.5q53 -17 78.5 -49t25.5 -92q0 -11 -0.5 -38t-0.5 -37q0 -69 25.5 -100.5t116.5 -56.5q18 -7 18 -26q0 -13 -10 -20.5t-24 -4.5z" />
    <glyph glyph-name="bar" unicode="|" horiz-adv-x="303" 
d="M119 -100v870q0 14 9.5 23.5t23.5 9.5q13 0 22.5 -10t9.5 -23v-870q0 -13 -9.5 -23t-22.5 -10q-14 0 -23.5 9.5t-9.5 23.5z" />
    <glyph glyph-name="braceright" unicode="}" horiz-adv-x="483" 
d="M85 711q116 -24 157.5 -70t41.5 -128q0 -7 -0.5 -37t-0.5 -39q0 -61 25 -90t89 -30q34 -2 34 -30t-34 -30q-64 -1 -89 -30t-25 -90q0 -9 0.5 -39t0.5 -37q0 -82 -41.5 -128t-157.5 -70q-14 -3 -24 4.5t-10 20.5q0 19 18 26q90 25 116 56.5t26 100.5q0 10 -0.5 37t-0.5 38
q0 60 26.5 92.5t77.5 48.5q-53 17 -78.5 49t-25.5 92q0 11 0.5 38t0.5 37q0 69 -26 100.5t-116 56.5q-18 7 -18 26q0 13 10 20.5t24 4.5z" />
    <glyph glyph-name="asciitilde" unicode="~" horiz-adv-x="474" 
d="M126 251q-8 -16 -24 -16q-10 0 -17.5 6.5t-7.5 16.5t3 16q15 44 35.5 63t52.5 19q23 0 70.5 -20.5t63.5 -20.5q28 0 45 36q10 16 24 16q11 0 18 -6.5t7 -16.5q0 -8 -2 -16q-28 -82 -88 -82q-24 0 -71 20.5t-63 20.5q-29 0 -46 -36z" />
    <glyph glyph-name="uni00A0" unicode="&#xa0;" horiz-adv-x="300" 
 />
    <glyph glyph-name="exclamdown" unicode="&#xa1;" horiz-adv-x="271" 
d="M159 483l23 -454q1 -14 -7.5 -23t-21.5 -9h-35q-13 0 -21.5 9.5t-7.5 22.5l23 454q2 23 24 23q9 0 15.5 -6.5t7.5 -16.5zM183 637q0 -20 -13.5 -33.5t-33.5 -13.5q-21 0 -34.5 13.5t-13.5 33.5v21q0 20 13.5 33.5t34.5 13.5q20 0 33.5 -13.5t13.5 -33.5v-21z" />
    <glyph glyph-name="cent" unicode="&#xa2;" horiz-adv-x="581" 
d="M219 29l14 71q-78 28 -126.5 97t-48.5 156v2q0 111 77 190.5t188 79.5h13l11 60q6 26 32 26q15 0 24.5 -12t5.5 -28l-11 -56q59 -16 116 -66q13 -13 13 -28q0 -16 -10.5 -26.5t-25.5 -10.5t-25 10q-45 40 -85 53l-76 -392q7 -1 21 -1q79 0 145 63q10 10 24 10
q13 0 23 -10t10 -24q0 -15 -11 -24q-82 -84 -195 -84q-18 0 -27 1l-14 -71q-6 -26 -31 -26q-15 0 -25 12t-6 28zM136 355q0 -63 31 -113t83 -73l74 387h-3q-78 0 -131.5 -58t-53.5 -141v-2z" />
    <glyph glyph-name="sterling" unicode="&#xa3;" horiz-adv-x="644" 
d="M63 25q0 19 20 25l68 17v228h-53q-14 0 -24.5 10t-10.5 24t10.5 24.5t24.5 10.5h53v108q0 115 63 178q60 60 158 60q120 0 197 -88q12 -14 12 -29q0 -16 -11 -27t-28 -11q-16 0 -29 13q-30 34 -62.5 51.5t-79.5 17.5q-59 0 -98 -37q-43 -45 -43 -128v-108h249
q14 0 24.5 -10.5t10.5 -24.5t-10.5 -24t-24.5 -10h-249v-225h324q14 0 25 -10.5t11 -24.5q0 -15 -10.5 -25t-25.5 -10h-465q-11 0 -18.5 7t-7.5 18z" />
    <glyph glyph-name="yen" unicode="&#xa5;" horiz-adv-x="686" 
d="M381 266v-88h179q12 0 21.5 -9t9.5 -22t-9.5 -22t-21.5 -9h-179v-82q0 -16 -11 -27.5t-27 -11.5t-27 11.5t-11 27.5v82h-179q-12 0 -21.5 9t-9.5 22t9.5 22t21.5 9h179v88h-179q-12 0 -21.5 9t-9.5 22t9.5 22t21.5 9h154l-219 311q-9 15 -9 28q0 15 11.5 26.5t27.5 11.5
q23 0 37 -24l216 -322l217 323q16 23 37 23q15 0 26 -10.5t11 -26.5q0 -11 -10 -29l-221 -311h156q12 0 21.5 -9t9.5 -22t-9.5 -22t-21.5 -9h-179z" />
    <glyph glyph-name="section" unicode="&#xa7;" horiz-adv-x="632" 
d="M328 -10q-122 0 -212 78q-12 10 -12 27q0 15 10.5 25t24.5 10q13 0 25 -10q72 -64 166 -64q50 0 76.5 18.5t26.5 47.5v2q0 28 -36.5 49.5t-126.5 42.5q-114 27 -161 59t-47 83v2q0 45 36 74.5t96 39.5q-74 38 -74 101v2q0 60 50 96.5t134 36.5q122 0 212 -78
q12 -10 12 -27q0 -15 -10.5 -25t-24.5 -10q-13 0 -25 10q-72 64 -166 64q-50 0 -76.5 -18t-26.5 -48v-2q0 -28 35.5 -49t127.5 -43q115 -27 161.5 -58.5t46.5 -83.5v-2q0 -44 -36 -74t-96 -40q74 -36 74 -101v-2q0 -60 -50 -96.5t-134 -36.5zM387 263q48 0 78.5 20.5
t30.5 48.5v2q0 26 -31.5 47t-110.5 40q-65 16 -109 16q-48 0 -78.5 -20.5t-30.5 -48.5v-2q0 -26 31.5 -47t110.5 -40q64 -16 109 -16z" />
    <glyph glyph-name="dieresis" unicode="&#xa8;" horiz-adv-x="500" 
d="M339 695q20 0 33.5 -13t13.5 -32v-15q0 -19 -13.5 -32t-33.5 -13t-33.5 13t-13.5 32v15q0 19 13.5 32t33.5 13zM161 695q20 0 33.5 -13t13.5 -32v-15q0 -19 -13.5 -32t-33.5 -13t-33.5 13t-13.5 32v15q0 19 13.5 32t33.5 13z" />
    <glyph glyph-name="copyright" unicode="&#xa9;" horiz-adv-x="830" 
d="M414 -12q-151 0 -256 105.5t-105 254.5v2q0 149 106 255.5t257 106.5t256 -105.5t105 -254.5v-2q0 -149 -106 -255.5t-257 -106.5zM414 19q140 0 235 97t95 234v2q0 137 -94.5 233t-233.5 96q-140 0 -235 -97t-95 -234v-2q0 -137 94.5 -233t233.5 -96zM419 163
q-79 0 -132.5 56t-53.5 135v2q0 79 54 135t134 56q73 0 129 -47q12 -10 12 -23q0 -11 -8.5 -19t-19.5 -8q-7 0 -19 8q-46 39 -95 39q-56 0 -93.5 -41t-37.5 -99v-2q0 -58 38.5 -99.5t93.5 -41.5q53 0 100 41q8 6 17 6q11 0 18.5 -7.5t7.5 -17.5q0 -12 -9 -19
q-62 -54 -136 -54z" />
    <glyph glyph-name="ordfeminine" unicode="&#xaa;" horiz-adv-x="390" 
d="M168 408q-43 0 -75 24t-32 66v2q0 44 34 68.5t89 24.5q40 0 80 -11v5q0 34 -20.5 52.5t-57.5 18.5q-29 0 -68 -15q-7 -3 -13 -3q-9 0 -15.5 6t-6.5 16q0 14 15 21q45 20 93 20q59 0 93 -32q29 -29 29 -84v-154q0 -10 -7.5 -17t-17.5 -7t-17 6.5t-7 16.5v20
q-36 -44 -96 -44zM177 450q36 0 61.5 19.5t25.5 50.5v24q-37 11 -76 11q-35 0 -55 -14.5t-20 -38.5v-2q0 -23 18.5 -36.5t45.5 -13.5zM77 289q-9 0 -16 6.5t-7 16.5t7 17t16 7h222q9 0 16 -7t7 -17t-7 -16.5t-16 -6.5h-222z" />
    <glyph glyph-name="guillemotleft" unicode="&#xab;" horiz-adv-x="550" 
d="M450 42q-17 0 -28 16l-134 173q-12 15 -12 28q0 12 12 27l133 172q11 16 29 16q14 0 23 -9t9 -23q0 -11 -9 -24l-118 -158l119 -162q8 -11 8 -23q0 -14 -9.5 -23.5t-22.5 -9.5zM227 42q-16 0 -28 16l-133 173q-12 15 -12 28q0 12 12 27l132 172q11 16 29 16
q14 0 23.5 -9.5t9.5 -22.5q0 -11 -9 -24l-118 -158l119 -162q8 -11 8 -23q0 -13 -10 -23t-23 -10z" />
    <glyph glyph-name="registered" unicode="&#xae;" horiz-adv-x="403" 
d="M202 360q-73 0 -123.5 51t-50.5 123v1q0 72 51 123.5t123 51.5q73 0 123.5 -51t50.5 -123v-1q0 -72 -51 -123.5t-123 -51.5zM202 379q65 0 109.5 46t44.5 110v1q0 64 -44.5 109.5t-109.5 45.5t-109.5 -46t-44.5 -110v-1q0 -64 44.5 -109.5t109.5 -45.5zM134 464v146
q0 7 5 12t12 5h63q30 0 49 -14.5t19 -41.5q0 -40 -39 -55l34 -40q5 -6 5 -13t-4.5 -12t-11.5 -5q-9 0 -16 9l-46 56h-36v-47q0 -7 -5 -12.5t-12 -5.5q-17 0 -17 18zM168 539h43q36 0 36 29t-36 29h-43v-58z" />
    <glyph glyph-name="macron" unicode="&#xaf;" horiz-adv-x="500" 
d="M382 615h-264q-13 0 -22.5 9.5t-9.5 22.5t9.5 22.5t22.5 9.5h264q13 0 22.5 -9.5t9.5 -22.5t-9.5 -22.5t-22.5 -9.5z" />
    <glyph glyph-name="degree" unicode="&#xb0;" horiz-adv-x="458" 
d="M229 400q-62 0 -109.5 46t-47.5 106v2q0 61 47.5 106.5t109.5 45.5t109.5 -45.5t47.5 -106.5v-2q0 -60 -47.5 -106t-109.5 -46zM229 452q42 0 70.5 30t28.5 70v2q0 40 -28.5 70t-70.5 30t-70.5 -30t-28.5 -70v-2q0 -40 28.5 -70t70.5 -30z" />
    <glyph glyph-name="plusminus" unicode="&#xb1;" horiz-adv-x="625" 
d="M276 200v164h-169q-14 0 -24.5 10.5t-10.5 24.5t10.5 24.5t24.5 10.5h169v164q0 15 10.5 26t26.5 11q15 0 25.5 -11t10.5 -26v-164h169q14 0 24.5 -10.5t10.5 -24.5t-10.5 -24.5t-24.5 -10.5h-169v-164q0 -15 -10.5 -26t-25.5 -11q-16 0 -26.5 11t-10.5 26zM107 0
q-14 0 -24.5 10.5t-10.5 24.5t10.5 24t24.5 10h412q14 0 24 -10t10 -24t-10 -24.5t-24 -10.5h-412z" />
    <glyph glyph-name="acute" unicode="&#xb4;" horiz-adv-x="500" 
d="M211 591q-19 0 -19 14q0 8 5 15l60 91q15 23 36 23q18 0 36 -10t18 -20q0 -9 -14 -23l-75 -71q-19 -19 -47 -19z" />
    <glyph glyph-name="paragraph" unicode="&#xb6;" horiz-adv-x="510" 
d="M338 35v229h-11q-123 0 -201 57.5t-78 159.5v2q0 100 73 158.5t191 58.5h66q16 0 28 -12t12 -28v-625q0 -17 -11.5 -28.5t-27.5 -11.5q-17 0 -29 11.5t-12 28.5z" />
    <glyph glyph-name="periodcentered" unicode="&#xb7;" horiz-adv-x="245" 
d="M75 311q0 20 14 33.5t34 13.5t33.5 -13.5t13.5 -33.5v-20q0 -20 -13.5 -33.5t-33.5 -13.5t-34 13.5t-14 33.5v20z" />
    <glyph glyph-name="cedilla" unicode="&#xb8;" horiz-adv-x="500" 
d="M301 10l-63 -136q-12 -23 -31 -23q-15 0 -31.5 10.5t-16.5 21.5q0 7 6 18l75 109h61z" />
    <glyph glyph-name="ordmasculine" unicode="&#xba;" horiz-adv-x="390" 
d="M194 407q-62 0 -104 43t-42 104v2q0 62 42.5 105.5t105.5 43.5q62 0 104 -43t42 -104v-2q0 -62 -42.5 -105.5t-105.5 -43.5zM70 289q-10 0 -17 6.5t-7 16.5t7 17t17 7h250q10 0 17 -7t7 -17t-7 -16.5t-17 -6.5h-250zM196 455q40 0 66 29t26 70v2q0 42 -27 71.5t-67 29.5
t-66 -29t-26 -70v-2q0 -42 27 -71.5t67 -29.5z" />
    <glyph glyph-name="guillemotright" unicode="&#xbb;" horiz-adv-x="550" 
d="M323 474q16 0 28 -15l134 -174q11 -16 11 -27t-11 -27l-133 -172q-12 -17 -29 -17q-13 0 -23 10t-10 23q0 12 9 23l119 159l-119 162q-9 10 -9 23t9.5 22.5t23.5 9.5zM101 474q17 0 27 -15l134 -174q12 -15 12 -27t-12 -27l-132 -172q-14 -17 -30 -17q-13 0 -22.5 9.5
t-9.5 23.5q0 12 9 23l118 159l-119 162q-9 14 -8 23q0 14 9.5 23t23.5 9z" />
    <glyph glyph-name="questiondown" unicode="&#xbf;" horiz-adv-x="537" 
d="M289 507h3q10 0 18 -7.5t9 -19.5l10 -112q2 -14 -6 -23.5t-23 -11.5q-81 -6 -126.5 -41.5t-45.5 -97.5v-2q0 -55 40 -92.5t106 -37.5q92 0 165 78q13 11 27 11t24.5 -10t10.5 -25q0 -16 -11 -27q-90 -98 -218 -98q-101 0 -162.5 55.5t-61.5 142.5v2q0 89 58 139.5
t150 63.5l7 86q1 12 8 19.5t18 7.5zM339 637q0 -20 -13.5 -33.5t-33.5 -13.5q-21 0 -34.5 13.5t-13.5 33.5v21q0 20 13.5 33.5t34.5 13.5q20 0 33.5 -13.5t13.5 -33.5v-21z" />
    <glyph glyph-name="Agrave" unicode="&#xc0;" horiz-adv-x="784" 
d="M51 31q0 11 5 21l284 621q16 35 50 35h4q35 0 49 -35l284 -620q5 -12 5 -20q0 -16 -11 -27t-27 -11q-26 0 -39 29l-73 161h-384l-73 -163q-11 -27 -38 -27q-15 0 -25.5 10.5t-10.5 25.5zM229 257h322l-161 358zM393 768q-28 0 -47 19l-75 71q-14 14 -14 23q0 10 18 20
t36 10q21 0 36 -23l60 -91q5 -7 5 -15q0 -14 -19 -14z" />
    <glyph glyph-name="Aacute" unicode="&#xc1;" horiz-adv-x="784" 
d="M51 31q0 11 5 21l284 621q16 35 50 35h4q35 0 49 -35l284 -620q5 -12 5 -20q0 -16 -11 -27t-27 -11q-26 0 -39 29l-73 161h-384l-73 -163q-11 -27 -38 -27q-15 0 -25.5 10.5t-10.5 25.5zM229 257h322l-161 358zM389 768q-19 0 -19 14q0 8 5 15l60 91q15 23 36 23
q18 0 36 -10t18 -20q0 -9 -14 -23l-75 -71q-19 -19 -47 -19z" />
    <glyph glyph-name="Acircumflex" unicode="&#xc2;" horiz-adv-x="784" 
d="M51 31q0 11 5 21l284 621q16 35 50 35h4q35 0 49 -35l284 -620q5 -12 5 -20q0 -16 -11 -27t-27 -11q-26 0 -39 29l-73 161h-384l-73 -163q-11 -27 -38 -27q-15 0 -25.5 10.5t-10.5 25.5zM229 257h322l-161 358zM390 839l-59 -52q-20 -19 -48 -19q-18 0 -18 14q0 5 7 17
l70 86q19 22 40 22h18q21 0 40 -22l70 -86q7 -12 7 -17q0 -14 -19 -14q-29 0 -49 19z" />
    <glyph glyph-name="Atilde" unicode="&#xc3;" horiz-adv-x="784" 
d="M51 31q0 11 5 21l284 621q16 35 50 35h4q35 0 49 -35l284 -620q5 -12 5 -20q0 -16 -11 -27t-27 -11q-26 0 -39 29l-73 161h-384l-73 -163q-11 -27 -38 -27q-15 0 -25.5 10.5t-10.5 25.5zM229 257h322l-161 358zM284 777q-8 -17 -23 -17q-11 0 -18.5 7t-7.5 17q0 4 3 16
q15 43 35.5 62t52.5 19q24 0 71 -20t63 -20q17 0 27 8t19 27q8 17 23 17q11 0 18.5 -7t7.5 -17q0 -1 -3 -16q-15 -43 -35.5 -62t-52.5 -19q-24 0 -71 20t-63 20q-17 0 -27 -8t-19 -27z" />
    <glyph glyph-name="Adieresis" unicode="&#xc4;" horiz-adv-x="784" 
d="M51 31q0 11 5 21l284 621q16 35 50 35h4q35 0 49 -35l284 -620q5 -12 5 -20q0 -16 -11 -27t-27 -11q-26 0 -39 29l-73 161h-384l-73 -163q-11 -27 -38 -27q-15 0 -25.5 10.5t-10.5 25.5zM229 257h322l-161 358zM480 872q20 0 33.5 -13t13.5 -32v-15q0 -19 -13.5 -32
t-33.5 -13t-33.5 13t-13.5 32v15q0 19 13.5 32t33.5 13zM302 872q20 0 33.5 -13t13.5 -32v-15q0 -19 -13.5 -32t-33.5 -13t-33.5 13t-13.5 32v15q0 19 13.5 32t33.5 13z" />
    <glyph glyph-name="Aring" unicode="&#xc5;" horiz-adv-x="790" 
d="M444 680l288 -630q3 -9 3 -16q0 -15 -11.5 -27t-27.5 -12q-24 0 -38 29l-72 161h-385l-73 -163q-11 -27 -37 -27q-15 0 -26 11t-11 26q0 5 4 17l288 631q-25 12 -40 35.5t-15 50.5v2q0 40 31 69.5t73 29.5t73 -29.5t31 -69.5v-2q0 -27 -15 -50.5t-40 -35.5zM395 705
q25 0 43.5 18t18.5 43v2q0 25 -18.5 43t-43.5 18t-43.5 -18t-18.5 -43v-2q0 -25 18.5 -43t43.5 -18zM232 257h322l-160 358z" />
    <glyph glyph-name="AE" unicode="&#xc6;" horiz-adv-x="1045" 
d="M34 29q0 6 7 22l372 623q16 26 44 26h491q15 0 25.5 -10.5t10.5 -25.5t-10.5 -25.5t-25.5 -10.5h-377v-239h332q15 0 25.5 -11t10.5 -25q0 -15 -10.5 -25.5t-25.5 -10.5h-332v-245h382q15 0 25.5 -10.5t10.5 -25.5t-10.5 -25.5t-25.5 -10.5h-422q-17 0 -28.5 12t-11.5 28
v145h-286l-101 -169q-10 -21 -34 -21q-14 0 -25 10t-11 24zM247 257h244v373h-23z" />
    <glyph glyph-name="Ccedilla" unicode="&#xc7;" horiz-adv-x="738" 
d="M679 91q-108 -98 -244 -103l-53 -114q-12 -23 -31 -23q-15 0 -31.5 10.5t-16.5 21.5q0 7 6 18l62 90q-133 17 -218 117.5t-85 239.5v2q0 151 101 256.5t253 105.5q79 0 137.5 -23t112.5 -68q16 -14 16 -32q0 -16 -12 -27.5t-28 -11.5q-12 0 -26 9q-90 80 -201 80
q-116 0 -193.5 -83t-77.5 -204v-2q0 -122 78 -205.5t193 -83.5t208 85q11 11 25 11q15 0 26.5 -11.5t11.5 -26.5q0 -17 -13 -28z" />
    <glyph glyph-name="Egrave" unicode="&#xc8;" horiz-adv-x="670" 
d="M138 0q-16 0 -27.5 12t-11.5 28v620q0 16 11.5 28t27.5 12h435q15 0 25.5 -10.5t10.5 -25.5t-10.5 -25.5t-25.5 -10.5h-395v-239h350q15 0 25.5 -11t10.5 -25q0 -15 -10.5 -25.5t-25.5 -10.5h-350v-245h400q15 0 25.5 -10.5t10.5 -25.5t-10.5 -25.5t-25.5 -10.5h-440z
M355 758q-28 0 -47 19l-75 71q-14 14 -14 23q0 10 18 20t36 10q21 0 36 -23l60 -91q5 -7 5 -15q0 -14 -19 -14z" />
    <glyph glyph-name="Eacute" unicode="&#xc9;" horiz-adv-x="670" 
d="M351 758q-19 0 -19 14q0 8 5 15l60 91q15 23 36 23q18 0 36 -10t18 -20q0 -9 -14 -23l-75 -71q-19 -19 -47 -19zM138 0q-16 0 -27.5 12t-11.5 28v620q0 16 11.5 28t27.5 12h435q15 0 25.5 -10.5t10.5 -25.5t-10.5 -25.5t-25.5 -10.5h-395v-239h350q15 0 25.5 -11
t10.5 -25q0 -15 -10.5 -25.5t-25.5 -10.5h-350v-245h400q15 0 25.5 -10.5t10.5 -25.5t-10.5 -25.5t-25.5 -10.5h-440z" />
    <glyph glyph-name="Ecircumflex" unicode="&#xca;" horiz-adv-x="670" 
d="M352 829l-59 -52q-20 -19 -48 -19q-18 0 -18 14q0 5 7 17l70 86q19 22 40 22h18q21 0 40 -22l70 -86q7 -12 7 -17q0 -14 -19 -14q-29 0 -49 19zM138 0q-16 0 -27.5 12t-11.5 28v620q0 16 11.5 28t27.5 12h435q15 0 25.5 -10.5t10.5 -25.5t-10.5 -25.5t-25.5 -10.5h-395
v-239h350q15 0 25.5 -11t10.5 -25q0 -15 -10.5 -25.5t-25.5 -10.5h-350v-245h400q15 0 25.5 -10.5t10.5 -25.5t-10.5 -25.5t-25.5 -10.5h-440z" />
    <glyph glyph-name="Edieresis" unicode="&#xcb;" horiz-adv-x="670" 
d="M442 862q20 0 33.5 -13t13.5 -32v-15q0 -19 -13.5 -32t-33.5 -13t-33.5 13t-13.5 32v15q0 19 13.5 32t33.5 13zM264 862q20 0 33.5 -13t13.5 -32v-15q0 -19 -13.5 -32t-33.5 -13t-33.5 13t-13.5 32v15q0 19 13.5 32t33.5 13zM138 0q-16 0 -27.5 12t-11.5 28v620
q0 16 11.5 28t27.5 12h435q15 0 25.5 -10.5t10.5 -25.5t-10.5 -25.5t-25.5 -10.5h-395v-239h350q15 0 25.5 -11t10.5 -25q0 -15 -10.5 -25.5t-25.5 -10.5h-350v-245h400q15 0 25.5 -10.5t10.5 -25.5t-10.5 -25.5t-25.5 -10.5h-440z" />
    <glyph glyph-name="Igrave" unicode="&#xcc;" horiz-adv-x="291" 
d="M106 35v630q0 16 11.5 28t27.5 12q17 0 28.5 -11.5t11.5 -28.5v-630q0 -17 -11.5 -28.5t-28.5 -11.5q-16 0 -27.5 12t-11.5 28zM148 758q-28 0 -47 19l-75 71q-14 14 -14 23q0 10 18 20t36 10q21 0 36 -23l60 -91q5 -7 5 -15q0 -14 -19 -14z" />
    <glyph glyph-name="Iacute" unicode="&#xcd;" horiz-adv-x="291" 
d="M106 35v630q0 16 11.5 28t27.5 12q17 0 28.5 -11.5t11.5 -28.5v-630q0 -17 -11.5 -28.5t-28.5 -11.5q-16 0 -27.5 12t-11.5 28zM144 758q-19 0 -19 14q0 8 5 15l60 91q15 23 36 23q18 0 36 -10t18 -20q0 -9 -14 -23l-75 -71q-19 -19 -47 -19z" />
    <glyph glyph-name="Icircumflex" unicode="&#xce;" horiz-adv-x="291" 
d="M106 35v630q0 16 11.5 28t27.5 12q17 0 28.5 -11.5t11.5 -28.5v-630q0 -17 -11.5 -28.5t-28.5 -11.5q-16 0 -27.5 12t-11.5 28zM145 829l-59 -52q-20 -19 -48 -19q-18 0 -18 14q0 5 7 17l70 86q19 22 40 22h18q21 0 40 -22l70 -86q7 -12 7 -17q0 -14 -19 -14
q-29 0 -49 19z" />
    <glyph glyph-name="Idieresis" unicode="&#xcf;" horiz-adv-x="291" 
d="M106 35v630q0 16 11.5 28t27.5 12q17 0 28.5 -11.5t11.5 -28.5v-630q0 -17 -11.5 -28.5t-28.5 -11.5q-16 0 -27.5 12t-11.5 28zM235 862q20 0 33.5 -13t13.5 -32v-15q0 -19 -13.5 -32t-33.5 -13t-33.5 13t-13.5 32v15q0 19 13.5 32t33.5 13zM57 862q20 0 33.5 -13
t13.5 -32v-15q0 -19 -13.5 -32t-33.5 -13t-33.5 13t-13.5 32v15q0 19 13.5 32t33.5 13z" />
    <glyph glyph-name="Eth" unicode="&#xd0;" horiz-adv-x="812" 
d="M85 388h44v272q0 16 11.5 28t27.5 12h204q163 0 267.5 -99.5t104.5 -248.5v-2q0 -150 -104.5 -250t-267.5 -100h-204q-16 0 -27.5 12t-11.5 28v276h-44q-15 0 -25.5 10.5t-10.5 25.5t10.5 25.5t25.5 10.5zM208 627v-239h179q14 0 25 -10.5t11 -25.5t-11 -25.5t-25 -10.5
h-179v-243h164q130 0 210 78t80 197v2q0 119 -80 198t-210 79h-164z" />
    <glyph glyph-name="Ntilde" unicode="&#xd1;" horiz-adv-x="790" 
d="M99 34v630q0 16 11.5 27.5t27.5 11.5h11q22 0 40 -23l425 -542v528q0 16 11.5 27.5t27.5 11.5t27 -11.5t11 -27.5v-632q0 -16 -10 -26.5t-26 -10.5h-4q-20 0 -41 24l-434 555v-542q0 -16 -11.5 -27.5t-27.5 -11.5t-27 11.5t-11 27.5zM287 767q-9 -17 -23 -17
q-11 0 -18.5 7t-7.5 17q0 4 3 16q15 43 35.5 62t52.5 19q24 0 71 -20t63 -20q17 0 27 8t19 27q9 17 23 17q11 0 18.5 -7t7.5 -17q0 -1 -3 -16q-15 -43 -35.5 -62t-52.5 -19q-24 0 -71 20t-63 20q-17 0 -27 -8t-19 -27z" />
    <glyph glyph-name="Ograve" unicode="&#xd2;" horiz-adv-x="850" 
d="M424 -12q-156 0 -256 105.5t-100 254.5v2q0 149 101 255.5t257 106.5t256 -105.5t100 -254.5v-2q0 -149 -101 -255.5t-257 -106.5zM426 61q119 0 196.5 83t77.5 204v2q0 121 -78.5 205t-197.5 84t-196.5 -83t-77.5 -204v-2q0 -121 78.5 -205t197.5 -84zM427 768
q-28 0 -47 19l-75 71q-14 14 -14 23q0 10 18 20t36 10q21 0 36 -23l60 -91q5 -7 5 -15q0 -14 -19 -14z" />
    <glyph glyph-name="Oacute" unicode="&#xd3;" horiz-adv-x="850" 
d="M422 768q-19 0 -19 14q0 8 5 15l60 91q15 23 36 23q18 0 36 -10t18 -20q0 -9 -14 -23l-75 -71q-19 -19 -47 -19zM424 -12q-156 0 -256 105.5t-100 254.5v2q0 149 101 255.5t257 106.5t256 -105.5t100 -254.5v-2q0 -149 -101 -255.5t-257 -106.5zM426 61q119 0 196.5 83
t77.5 204v2q0 121 -78.5 205t-197.5 84t-196.5 -83t-77.5 -204v-2q0 -121 78.5 -205t197.5 -84z" />
    <glyph glyph-name="Ocircumflex" unicode="&#xd4;" horiz-adv-x="850" 
d="M424 839l-59 -52q-20 -19 -48 -19q-18 0 -18 14q0 5 7 17l70 86q19 22 40 22h18q21 0 40 -22l70 -86q7 -12 7 -17q0 -14 -19 -14q-29 0 -49 19zM424 -12q-156 0 -256 105.5t-100 254.5v2q0 149 101 255.5t257 106.5t256 -105.5t100 -254.5v-2q0 -149 -101 -255.5
t-257 -106.5zM426 61q119 0 196.5 83t77.5 204v2q0 121 -78.5 205t-197.5 84t-196.5 -83t-77.5 -204v-2q0 -121 78.5 -205t197.5 -84z" />
    <glyph glyph-name="Otilde" unicode="&#xd5;" horiz-adv-x="850" 
d="M424 -12q-156 0 -256 105.5t-100 254.5v2q0 149 101 255.5t257 106.5t256 -105.5t100 -254.5v-2q0 -149 -101 -255.5t-257 -106.5zM426 61q119 0 196.5 83t77.5 204v2q0 121 -78.5 205t-197.5 84t-196.5 -83t-77.5 -204v-2q0 -121 78.5 -205t197.5 -84zM317 777
q-9 -17 -23 -17q-11 0 -18.5 7t-7.5 17q0 4 3 16q15 43 35.5 62t52.5 19q24 0 71 -20t63 -20q17 0 27 8t19 27q9 17 23 17q11 0 18.5 -7t7.5 -17q0 -1 -3 -16q-15 -43 -35.5 -62t-52.5 -19q-24 0 -71 20t-63 20q-17 0 -27 -8t-19 -27z" />
    <glyph glyph-name="Odieresis" unicode="&#xd6;" horiz-adv-x="850" 
d="M514 872q20 0 33.5 -13t13.5 -32v-15q0 -19 -13.5 -32t-33.5 -13t-33.5 13t-13.5 32v15q0 19 13.5 32t33.5 13zM336 872q20 0 33.5 -13t13.5 -32v-15q0 -19 -13.5 -32t-33.5 -13t-33.5 13t-13.5 32v15q0 19 13.5 32t33.5 13zM424 -12q-156 0 -256 105.5t-100 254.5v2
q0 149 101 255.5t257 106.5t256 -105.5t100 -254.5v-2q0 -149 -101 -255.5t-257 -106.5zM426 61q119 0 196.5 83t77.5 204v2q0 121 -78.5 205t-197.5 84t-196.5 -83t-77.5 -204v-2q0 -121 78.5 -205t197.5 -84z" />
    <glyph glyph-name="multiply" unicode="&#xd7;" horiz-adv-x="625" 
d="M515 505l-154 -152l154 -151q12 -12 12 -28q0 -15 -10.5 -25.5t-25.5 -10.5q-16 0 -28 12l-151 154l-152 -155q-13 -11 -27 -11t-24.5 10.5t-10.5 24.5t12 26l154 152l-154 151q-12 12 -12 28q0 15 11 25.5t26 10.5t27 -12l152 -154l152 155q11 11 26 11q14 0 24.5 -10.5
t10.5 -24.5t-12 -26z" />
    <glyph glyph-name="Oslash" unicode="&#xd8;" horiz-adv-x="850" 
d="M424 -12q-129 0 -224 76l-60 -62q-12 -12 -25 -12t-21.5 8.5t-8.5 20.5q0 14 10 24l60 64q-87 99 -87 241v2q0 149 101 255.5t257 106.5q129 0 224 -77l60 63q12 12 25 12t21.5 -8.5t8.5 -20.5q0 -14 -10 -24l-61 -65q88 -101 88 -240v-2q0 -149 -101 -255.5t-257 -106.5
zM150 350q0 -106 61 -184l387 411q-76 63 -174 63q-118 0 -196 -83.5t-78 -204.5v-2zM426 60q118 0 196 83.5t78 204.5v2q0 106 -61 184l-387 -412q73 -62 174 -62z" />
    <glyph glyph-name="Ugrave" unicode="&#xd9;" horiz-adv-x="759" 
d="M379 -11q-133 0 -212 79.5t-79 224.5v372q0 16 11.5 28t27.5 12q17 0 28.5 -11.5t11.5 -28.5v-367q0 -112 57 -174t157 -62q99 0 155 59t56 172v372q0 17 12 28.5t28 11.5t27.5 -12t11.5 -28v-366q0 -150 -79 -230t-213 -80zM381 758q-28 0 -47 19l-75 71q-14 14 -14 23
q0 10 18 20t36 10q21 0 36 -23l60 -91q5 -7 5 -15q0 -14 -19 -14z" />
    <glyph glyph-name="Uacute" unicode="&#xda;" horiz-adv-x="759" 
d="M377 758q-19 0 -19 14q0 8 5 15l60 91q15 23 36 23q18 0 36 -10t18 -20q0 -9 -14 -23l-75 -71q-19 -19 -47 -19zM379 -11q-133 0 -212 79.5t-79 224.5v372q0 16 11.5 28t27.5 12q17 0 28.5 -11.5t11.5 -28.5v-367q0 -112 57 -174t157 -62q99 0 155 59t56 172v372
q0 17 12 28.5t28 11.5t27.5 -12t11.5 -28v-366q0 -150 -79 -230t-213 -80z" />
    <glyph glyph-name="Ucircumflex" unicode="&#xdb;" horiz-adv-x="759" 
d="M378 829l-59 -52q-20 -19 -48 -19q-18 0 -18 14q0 5 7 17l70 86q19 22 40 22h18q21 0 40 -22l70 -86q7 -12 7 -17q0 -14 -19 -14q-29 0 -49 19zM379 -11q-133 0 -212 79.5t-79 224.5v372q0 16 11.5 28t27.5 12q17 0 28.5 -11.5t11.5 -28.5v-367q0 -112 57 -174t157 -62
q99 0 155 59t56 172v372q0 17 12 28.5t28 11.5t27.5 -12t11.5 -28v-366q0 -150 -79 -230t-213 -80z" />
    <glyph glyph-name="Udieresis" unicode="&#xdc;" horiz-adv-x="759" 
d="M468 862q20 0 33.5 -13t13.5 -32v-15q0 -19 -13.5 -32t-33.5 -13t-33.5 13t-13.5 32v15q0 19 13.5 32t33.5 13zM290 862q20 0 33.5 -13t13.5 -32v-15q0 -19 -13.5 -32t-33.5 -13t-33.5 13t-13.5 32v15q0 19 13.5 32t33.5 13zM379 -11q-133 0 -212 79.5t-79 224.5v372
q0 16 11.5 28t27.5 12q17 0 28.5 -11.5t11.5 -28.5v-367q0 -112 57 -174t157 -62q99 0 155 59t56 172v372q0 17 12 28.5t28 11.5t27.5 -12t11.5 -28v-366q0 -150 -79 -230t-213 -80z" />
    <glyph glyph-name="Yacute" unicode="&#xdd;" horiz-adv-x="708" 
d="M314 35v240l-260 364q-9 14 -9 27q0 16 12 27.5t29 11.5q21 0 38 -24l231 -333l233 333q17 24 37 24q16 0 27.5 -11.5t11.5 -27.5q0 -11 -11 -29l-259 -360v-242q0 -17 -12 -28.5t-28 -11.5t-28 11.5t-12 28.5zM352 758q-19 0 -19 14q0 8 5 15l60 91q15 23 36 23
q18 0 36 -10t18 -20q0 -9 -14 -23l-75 -71q-19 -19 -47 -19z" />
    <glyph glyph-name="Thorn" unicode="&#xde;" horiz-adv-x="673" 
d="M99 35v630q0 16 11.5 28t27.5 12t28 -11.5t12 -28.5v-85h183q119 0 190.5 -60t71.5 -162v-2q0 -109 -78.5 -169.5t-196.5 -60.5h-170v-91q0 -17 -12 -28.5t-28 -11.5t-27.5 12t-11.5 28zM178 198h173q87 0 139.5 43t52.5 112v2q0 73 -50.5 112.5t-137.5 39.5h-177v-309z
" />
    <glyph glyph-name="germandbls" unicode="&#xdf;" horiz-adv-x="620" 
d="M287 30q0 13 8.5 22t21.5 11q76 6 121 38t45 91v2q0 55 -45 88t-119 45q-32 7 -32 35q0 23 23 34q130 53 130 154v2q0 52 -36.5 84.5t-94.5 32.5q-65 0 -105.5 -45.5t-40.5 -121.5v-469q0 -16 -11.5 -27t-27.5 -11t-27 11t-11 27v468q0 106 61.5 171t165.5 65
q93 0 149.5 -51.5t56.5 -128.5v-2q0 -66 -39.5 -111.5t-99.5 -71.5q79 -18 130.5 -62t51.5 -116v-2q0 -91 -68 -141.5t-173 -52.5q-15 0 -24.5 9t-9.5 23z" />
    <glyph glyph-name="agrave" unicode="&#xe0;" horiz-adv-x="579" 
d="M240 -11q-78 0 -135.5 43t-57.5 118v2q0 80 60 123.5t161 43.5q81 0 159 -22v18q0 69 -40 105t-114 36q-69 0 -134 -29q-7 -3 -14 -3q-14 0 -24 10t-10 23q0 24 21 32q81 35 169 35q110 0 167 -57q53 -53 53 -151v-283q0 -16 -10.5 -27t-26.5 -11t-26.5 10.5t-10.5 25.5
v47q-68 -89 -187 -89zM255 50q72 0 122.5 39.5t50.5 100.5v50q-76 22 -152 22q-72 0 -111.5 -29t-39.5 -78v-2q0 -47 37.5 -75t92.5 -28zM292 591q-28 0 -47 19l-75 71q-14 14 -14 23q0 10 18 20t36 10q21 0 36 -23l60 -91q5 -7 5 -15q0 -14 -19 -14z" />
    <glyph glyph-name="aacute" unicode="&#xe1;" horiz-adv-x="579" 
d="M240 -11q-78 0 -135.5 43t-57.5 118v2q0 80 60 123.5t161 43.5q81 0 159 -22v18q0 69 -40 105t-114 36q-69 0 -134 -29q-7 -3 -14 -3q-14 0 -24 10t-10 23q0 24 21 32q81 35 169 35q110 0 167 -57q53 -53 53 -151v-283q0 -16 -10.5 -27t-26.5 -11t-26.5 10.5t-10.5 25.5
v47q-68 -89 -187 -89zM255 50q72 0 122.5 39.5t50.5 100.5v50q-76 22 -152 22q-72 0 -111.5 -29t-39.5 -78v-2q0 -47 37.5 -75t92.5 -28zM287 591q-19 0 -19 14q0 8 5 15l60 91q15 23 36 23q18 0 36 -10t18 -20q0 -9 -14 -23l-75 -71q-19 -19 -47 -19z" />
    <glyph glyph-name="acircumflex" unicode="&#xe2;" horiz-adv-x="579" 
d="M240 -11q-78 0 -135.5 43t-57.5 118v2q0 80 60 123.5t161 43.5q81 0 159 -22v18q0 69 -40 105t-114 36q-69 0 -134 -29q-7 -3 -14 -3q-14 0 -24 10t-10 23q0 24 21 32q81 35 169 35q110 0 167 -57q53 -53 53 -151v-283q0 -16 -10.5 -27t-26.5 -11t-26.5 10.5t-10.5 25.5
v47q-68 -89 -187 -89zM255 50q72 0 122.5 39.5t50.5 100.5v50q-76 22 -152 22q-72 0 -111.5 -29t-39.5 -78v-2q0 -47 37.5 -75t92.5 -28zM288 662l-59 -52q-20 -19 -48 -19q-18 0 -18 14q0 5 7 17l70 86q19 22 40 22h18q21 0 40 -22l70 -86q7 -12 7 -17q0 -14 -19 -14
q-29 0 -49 19z" />
    <glyph glyph-name="atilde" unicode="&#xe3;" horiz-adv-x="579" 
d="M240 -11q-78 0 -135.5 43t-57.5 118v2q0 80 60 123.5t161 43.5q81 0 159 -22v18q0 69 -40 105t-114 36q-69 0 -134 -29q-7 -3 -14 -3q-14 0 -24 10t-10 23q0 24 21 32q81 35 169 35q110 0 167 -57q53 -53 53 -151v-283q0 -16 -10.5 -27t-26.5 -11t-26.5 10.5t-10.5 25.5
v47q-68 -89 -187 -89zM255 50q72 0 122.5 39.5t50.5 100.5v50q-76 22 -152 22q-72 0 -111.5 -29t-39.5 -78v-2q0 -47 37.5 -75t92.5 -28zM182 600q-8 -17 -23 -17q-11 0 -18.5 7t-7.5 17q0 4 3 16q15 43 35.5 62t52.5 19q24 0 71 -20t63 -20q17 0 27 8t19 27q8 17 23 17
q11 0 18.5 -7t7.5 -17q0 -1 -3 -16q-15 -43 -35.5 -62t-52.5 -19q-24 0 -71 20t-63 20q-17 0 -27 -8t-19 -27z" />
    <glyph glyph-name="adieresis" unicode="&#xe4;" horiz-adv-x="579" 
d="M240 -11q-78 0 -135.5 43t-57.5 118v2q0 80 60 123.5t161 43.5q81 0 159 -22v18q0 69 -40 105t-114 36q-69 0 -134 -29q-7 -3 -14 -3q-14 0 -24 10t-10 23q0 24 21 32q81 35 169 35q110 0 167 -57q53 -53 53 -151v-283q0 -16 -10.5 -27t-26.5 -11t-26.5 10.5t-10.5 25.5
v47q-68 -89 -187 -89zM255 50q72 0 122.5 39.5t50.5 100.5v50q-76 22 -152 22q-72 0 -111.5 -29t-39.5 -78v-2q0 -47 37.5 -75t92.5 -28zM378 695q20 0 33.5 -13t13.5 -32v-15q0 -19 -13.5 -32t-33.5 -13t-33.5 13t-13.5 32v15q0 19 13.5 32t33.5 13zM200 695q20 0 33.5 -13
t13.5 -32v-15q0 -19 -13.5 -32t-33.5 -13t-33.5 13t-13.5 32v15q0 19 13.5 32t33.5 13z" />
    <glyph glyph-name="aring" unicode="&#xe5;" horiz-adv-x="579" 
d="M240 -11q-78 0 -135.5 43t-57.5 118v2q0 80 60 123.5t161 43.5q81 0 159 -22v18q0 69 -40 105t-114 36q-69 0 -134 -29q-7 -3 -14 -3q-14 0 -24 10t-10 23q0 24 21 32q81 35 169 35q110 0 167 -57q53 -53 53 -151v-283q0 -16 -10.5 -27t-26.5 -11t-26.5 10.5t-10.5 25.5
v47q-68 -89 -187 -89zM255 50q72 0 122.5 39.5t50.5 100.5v50q-76 22 -152 22q-72 0 -111.5 -29t-39.5 -78v-2q0 -47 37.5 -75t92.5 -28zM289 593q-42 0 -73 29.5t-31 69.5v2q0 40 31 69.5t73 29.5t73 -29.5t31 -69.5v-2q0 -40 -31 -69.5t-73 -29.5zM289 631q25 0 43.5 18
t18.5 43v2q0 25 -18.5 43t-43.5 18t-43.5 -18t-18.5 -43v-2q0 -25 18.5 -43t43.5 -18z" />
    <glyph glyph-name="ae" unicode="&#xe6;" horiz-adv-x="953" 
d="M493 287h333q-6 76 -48.5 126t-115.5 50q-68 0 -114.5 -49.5t-54.5 -126.5zM251 51q104 0 186 92q-18 45 -21 98q-80 21 -144 21q-70 0 -108.5 -29t-38.5 -78v-2q0 -47 36 -74.5t90 -27.5zM869 66q-83 -78 -196 -78q-62 0 -116 27.5t-89 76.5q-99 -103 -226 -103
q-80 0 -137.5 42.5t-57.5 118.5v2q0 80 59.5 123.5t157.5 43.5q75 0 153 -22v18q0 69 -38.5 105t-110.5 36q-65 0 -129 -29q-7 -3 -14 -3q-14 0 -24 10t-10 23q0 24 21 32q78 35 164 35q151 0 190 -111q31 53 83 84t115 31q110 0 175 -77t65 -185q0 -15 -11 -25.5t-26 -10.5
h-373q7 -81 58.5 -128t122.5 -47q83 0 150 60q11 9 21 9q14 0 24 -9.5t10 -23.5t-11 -25z" />
    <glyph glyph-name="ccedilla" unicode="&#xe7;" horiz-adv-x="571" 
d="M514 71q-78 -78 -180 -82l-53 -115q-11 -23 -31 -23q-15 0 -31.5 10.5t-16.5 21.5q0 7 6 18l63 92q-95 16 -156 91t-61 172v2q0 111 76.5 190.5t188.5 79.5q108 0 190 -75q12 -10 12 -27q0 -16 -11 -26.5t-26 -10.5q-14 0 -25 9q-67 62 -141 62q-78 0 -131.5 -58
t-53.5 -142v-2q0 -84 54.5 -142.5t135.5 -58.5q77 0 144 63q10 10 22 10q14 0 24.5 -10.5t10.5 -24.5t-10 -24z" />
    <glyph glyph-name="egrave" unicode="&#xe8;" horiz-adv-x="592" 
d="M132 287h333q-6 76 -49 126t-116 50q-67 0 -113.5 -50t-54.5 -126zM507 66q-81 -78 -195 -78q-109 0 -183.5 75.5t-74.5 193.5v2q0 113 71 191t177 78q110 0 175 -77t65 -185q0 -15 -10.5 -25.5t-25.5 -10.5h-374q8 -82 59.5 -128.5t122.5 -46.5q84 0 149 60q11 9 22 9
q14 0 24 -9.5t10 -23.5q0 -15 -12 -25zM303 591q-28 0 -47 19l-75 71q-14 14 -14 23q0 10 18 20t36 10q21 0 36 -23l60 -91q5 -7 5 -15q0 -14 -19 -14z" />
    <glyph glyph-name="eacute" unicode="&#xe9;" horiz-adv-x="592" 
d="M299 591q-19 0 -19 14q0 8 5 15l60 91q15 23 36 23q18 0 36 -10t18 -20q0 -9 -14 -23l-75 -71q-19 -19 -47 -19zM132 287h333q-6 76 -49 126t-116 50q-67 0 -113.5 -50t-54.5 -126zM507 66q-81 -78 -195 -78q-109 0 -183.5 75.5t-74.5 193.5v2q0 113 71 191t177 78
q110 0 175 -77t65 -185q0 -15 -10.5 -25.5t-25.5 -10.5h-374q8 -82 59.5 -128.5t122.5 -46.5q84 0 149 60q11 9 22 9q14 0 24 -9.5t10 -23.5q0 -15 -12 -25z" />
    <glyph glyph-name="ecircumflex" unicode="&#xea;" horiz-adv-x="592" 
d="M300 662l-59 -52q-20 -19 -48 -19q-18 0 -18 14q0 5 7 17l70 86q19 22 40 22h18q21 0 40 -22l70 -86q7 -12 7 -17q0 -14 -19 -14q-29 0 -49 19zM132 287h333q-6 76 -49 126t-116 50q-67 0 -113.5 -50t-54.5 -126zM507 66q-81 -78 -195 -78q-109 0 -183.5 75.5
t-74.5 193.5v2q0 113 71 191t177 78q110 0 175 -77t65 -185q0 -15 -10.5 -25.5t-25.5 -10.5h-374q8 -82 59.5 -128.5t122.5 -46.5q84 0 149 60q11 9 22 9q14 0 24 -9.5t10 -23.5q0 -15 -12 -25z" />
    <glyph glyph-name="edieresis" unicode="&#xeb;" horiz-adv-x="592" 
d="M390 695q20 0 33.5 -13t13.5 -32v-15q0 -19 -13.5 -32t-33.5 -13t-33.5 13t-13.5 32v15q0 19 13.5 32t33.5 13zM212 695q20 0 33.5 -13t13.5 -32v-15q0 -19 -13.5 -32t-33.5 -13t-33.5 13t-13.5 32v15q0 19 13.5 32t33.5 13zM132 287h333q-6 76 -49 126t-116 50
q-67 0 -113.5 -50t-54.5 -126zM507 66q-81 -78 -195 -78q-109 0 -183.5 75.5t-74.5 193.5v2q0 113 71 191t177 78q110 0 175 -77t65 -185q0 -15 -10.5 -25.5t-25.5 -10.5h-374q8 -82 59.5 -128.5t122.5 -46.5q84 0 149 60q11 9 22 9q14 0 24 -9.5t10 -23.5q0 -15 -12 -25z
" />
    <glyph glyph-name="igrave" unicode="&#xec;" horiz-adv-x="263" 
d="M93 34v449q0 16 11 27.5t27 11.5q17 0 28 -11t11 -28v-449q0 -17 -11 -28t-27 -11t-27.5 11.5t-11.5 27.5zM134 591q-28 0 -47 19l-75 71q-14 14 -14 23q0 10 18 20t36 10q21 0 36 -23l60 -91q5 -7 5 -15q0 -14 -19 -14z" />
    <glyph glyph-name="iacute" unicode="&#xed;" horiz-adv-x="263" 
d="M130 591q-19 0 -19 14q0 8 5 15l60 91q15 23 36 23q18 0 36 -10t18 -20q0 -9 -14 -23l-75 -71q-19 -19 -47 -19zM93 34v449q0 16 11 27.5t27 11.5q17 0 28 -11t11 -28v-449q0 -17 -11 -28t-27 -11t-27.5 11.5t-11.5 27.5z" />
    <glyph glyph-name="icircumflex" unicode="&#xee;" horiz-adv-x="263" 
d="M131 662l-59 -52q-20 -19 -48 -19q-18 0 -18 14q0 5 7 17l70 86q19 22 40 22h18q21 0 40 -22l70 -86q7 -12 7 -17q0 -14 -19 -14q-29 0 -49 19zM93 34v449q0 16 11 27.5t27 11.5q17 0 28 -11t11 -28v-449q0 -17 -11 -28t-27 -11t-27.5 11.5t-11.5 27.5z" />
    <glyph glyph-name="idieresis" unicode="&#xef;" horiz-adv-x="263" 
d="M221 695q20 0 33.5 -13t13.5 -32v-15q0 -19 -13.5 -32t-33.5 -13t-33.5 13t-13.5 32v15q0 19 13.5 32t33.5 13zM43 695q20 0 33.5 -13t13.5 -32v-15q0 -19 -13.5 -32t-33.5 -13t-33.5 13t-13.5 32v15q0 19 13.5 32t33.5 13zM93 34v449q0 16 11 27.5t27 11.5q17 0 28 -11
t11 -28v-449q0 -17 -11 -28t-27 -11t-27.5 11.5t-11.5 27.5z" />
    <glyph glyph-name="eth" unicode="&#xf0;" horiz-adv-x="633" 
d="M453 431l-131 183l-116 -56q-8 -3 -14 -3q-12 0 -20 8.5t-8 20.5q0 17 18 26l107 50l-10 15q-8 11 -8 24q0 15 10.5 25.5t26.5 10.5q19 0 32 -18l17 -25l87 41q6 3 14 3q11 0 19.5 -8.5t8.5 -20.5q0 -17 -19 -26l-78 -36l101 -149q45 -65 66.5 -121t21.5 -123
q0 -109 -73.5 -186.5t-192.5 -77.5q-110 0 -184 75.5t-74 182.5q0 105 69.5 172.5t167.5 67.5q84 0 162 -55zM499 244q0 75 -54.5 128t-135.5 53q-80 0 -128.5 -52t-48.5 -130q0 -75 53 -131t132 -56q80 0 131 55t51 133z" />
    <glyph glyph-name="ntilde" unicode="&#xf1;" horiz-adv-x="616" 
d="M86 34v449q0 16 11 27.5t27 11.5t27.5 -11t11.5 -28v-56q61 101 177 101q92 0 145 -56.5t53 -150.5v-287q0 -16 -11 -27.5t-27 -11.5t-27.5 11.5t-11.5 27.5v268q0 73 -37.5 114.5t-105.5 41.5q-67 0 -111 -45t-44 -117v-262q0 -17 -11 -28t-27 -11q-17 0 -28 11.5
t-11 27.5zM204 600q-8 -17 -23 -17q-11 0 -18.5 7t-7.5 17q0 4 3 16q15 43 35.5 62t52.5 19q24 0 71 -20t63 -20q17 0 27 8t19 27q8 17 23 17q11 0 18.5 -7t7.5 -17q0 -1 -3 -16q-15 -43 -35.5 -62t-52.5 -19q-24 0 -71 20t-63 20q-17 0 -27 -8t-19 -27z" />
    <glyph glyph-name="ograve" unicode="&#xf2;" horiz-adv-x="646" 
d="M322 -12q-115 0 -191.5 78.5t-76.5 189.5v2q0 111 77.5 190.5t192.5 79.5t192 -78.5t77 -189.5v-2q0 -111 -78 -190.5t-193 -79.5zM324 57q83 0 136.5 58t53.5 141v2q0 84 -55.5 143t-136.5 59q-82 0 -135.5 -58.5t-53.5 -141.5v-2q0 -84 55 -142.5t136 -58.5zM325 591
q-28 0 -47 19l-75 71q-14 14 -14 23q0 10 18 20t36 10q21 0 36 -23l60 -91q5 -7 5 -15q0 -14 -19 -14z" />
    <glyph glyph-name="oacute" unicode="&#xf3;" horiz-adv-x="646" 
d="M321 591q-19 0 -19 14q0 8 5 15l60 91q15 23 36 23q18 0 36 -10t18 -20q0 -9 -14 -23l-75 -71q-19 -19 -47 -19zM322 -12q-115 0 -191.5 78.5t-76.5 189.5v2q0 111 77.5 190.5t192.5 79.5t192 -78.5t77 -189.5v-2q0 -111 -78 -190.5t-193 -79.5zM324 57q83 0 136.5 58
t53.5 141v2q0 84 -55.5 143t-136.5 59q-82 0 -135.5 -58.5t-53.5 -141.5v-2q0 -84 55 -142.5t136 -58.5z" />
    <glyph glyph-name="ocircumflex" unicode="&#xf4;" horiz-adv-x="646" 
d="M322 662l-59 -52q-20 -19 -48 -19q-18 0 -18 14q0 5 7 17l70 86q19 22 40 22h18q21 0 40 -22l70 -86q7 -12 7 -17q0 -14 -19 -14q-29 0 -49 19zM322 -12q-115 0 -191.5 78.5t-76.5 189.5v2q0 111 77.5 190.5t192.5 79.5t192 -78.5t77 -189.5v-2q0 -111 -78 -190.5
t-193 -79.5zM324 57q83 0 136.5 58t53.5 141v2q0 84 -55.5 143t-136.5 59q-82 0 -135.5 -58.5t-53.5 -141.5v-2q0 -84 55 -142.5t136 -58.5z" />
    <glyph glyph-name="otilde" unicode="&#xf5;" horiz-adv-x="646" 
d="M322 -12q-115 0 -191.5 78.5t-76.5 189.5v2q0 111 77.5 190.5t192.5 79.5t192 -78.5t77 -189.5v-2q0 -111 -78 -190.5t-193 -79.5zM324 57q83 0 136.5 58t53.5 141v2q0 84 -55.5 143t-136.5 59q-82 0 -135.5 -58.5t-53.5 -141.5v-2q0 -84 55 -142.5t136 -58.5zM215 600
q-9 -17 -23 -17q-11 0 -18.5 7t-7.5 17q0 4 3 16q15 43 35.5 62t52.5 19q24 0 71 -20t63 -20q17 0 27 8t19 27q9 17 23 17q11 0 18.5 -7t7.5 -17q0 -1 -3 -16q-15 -43 -35.5 -62t-52.5 -19q-24 0 -71 20t-63 20q-17 0 -27 -8t-19 -27z" />
    <glyph glyph-name="odieresis" unicode="&#xf6;" horiz-adv-x="646" 
d="M412 695q20 0 33.5 -13t13.5 -32v-15q0 -19 -13.5 -32t-33.5 -13t-33.5 13t-13.5 32v15q0 19 13.5 32t33.5 13zM234 695q20 0 33.5 -13t13.5 -32v-15q0 -19 -13.5 -32t-33.5 -13t-33.5 13t-13.5 32v15q0 19 13.5 32t33.5 13zM322 -12q-115 0 -191.5 78.5t-76.5 189.5v2
q0 111 77.5 190.5t192.5 79.5t192 -78.5t77 -189.5v-2q0 -111 -78 -190.5t-193 -79.5zM324 57q83 0 136.5 58t53.5 141v2q0 84 -55.5 143t-136.5 59q-82 0 -135.5 -58.5t-53.5 -141.5v-2q0 -84 55 -142.5t136 -58.5z" />
    <glyph glyph-name="divide" unicode="&#xf7;" horiz-adv-x="625" 
d="M527 317h-429q-14 0 -24.5 10.5t-10.5 24.5t10.5 24.5t24.5 10.5h429q14 0 24.5 -10.5t10.5 -24.5t-10.5 -24.5t-24.5 -10.5zM313 607q21 0 36 -15t15 -35v-13q0 -20 -15 -35t-36 -15q-22 0 -37 15t-15 35v13q0 20 15 35t37 15zM313 210q21 0 36 -15t15 -35v-13
q0 -20 -15 -35t-36 -15q-22 0 -37 15t-15 35v13q0 20 15 35t37 15z" />
    <glyph glyph-name="oslash" unicode="&#xf8;" horiz-adv-x="646" 
d="M322 -12q-93 0 -166 55l-40 -41q-12 -12 -25 -12q-11 0 -19.5 7.5t-8.5 18.5q0 14 11 23l42 43q-62 73 -62 174v2q0 111 77.5 190.5t192.5 79.5q92 0 165 -55l41 43q12 12 26 12q11 0 19 -7.5t8 -18.5q0 -13 -10 -23l-43 -45q63 -74 63 -174v-2q0 -111 -78 -190.5
t-193 -79.5zM132 258q0 -69 37 -121l272 282q-52 42 -119 42q-83 0 -136.5 -58.5t-53.5 -142.5v-2zM324 56q83 0 137 58.5t54 141.5v2q0 67 -38 121l-271 -281q52 -42 118 -42z" />
    <glyph glyph-name="ugrave" unicode="&#xf9;" horiz-adv-x="616" 
d="M529 483v-449q0 -16 -11 -27.5t-27 -11.5t-27 11.5t-11 27.5v56q-63 -101 -177 -101q-92 0 -145 56.5t-53 150.5v287q0 17 11 28t27 11t27.5 -11.5t11.5 -27.5v-268q0 -73 37.5 -114.5t105.5 -41.5q67 0 111 45t44 117v262q0 17 11 28t27 11t27 -11.5t11 -27.5zM305 591
q-28 0 -47 19l-75 71q-14 14 -14 23q0 10 18 20t36 10q21 0 36 -23l60 -91q5 -7 5 -15q0 -14 -19 -14z" />
    <glyph glyph-name="uacute" unicode="&#xfa;" horiz-adv-x="616" 
d="M301 591q-19 0 -19 14q0 8 5 15l60 91q15 23 36 23q18 0 36 -10t18 -20q0 -9 -14 -23l-75 -71q-19 -19 -47 -19zM529 483v-449q0 -16 -11 -27.5t-27 -11.5t-27 11.5t-11 27.5v56q-63 -101 -177 -101q-92 0 -145 56.5t-53 150.5v287q0 17 11 28t27 11t27.5 -11.5
t11.5 -27.5v-268q0 -73 37.5 -114.5t105.5 -41.5q67 0 111 45t44 117v262q0 17 11 28t27 11t27 -11.5t11 -27.5z" />
    <glyph glyph-name="ucircumflex" unicode="&#xfb;" horiz-adv-x="616" 
d="M302 662l-59 -52q-20 -19 -48 -19q-18 0 -18 14q0 5 7 17l70 86q19 22 40 22h18q21 0 40 -22l70 -86q7 -12 7 -17q0 -14 -19 -14q-29 0 -49 19zM529 483v-449q0 -16 -11 -27.5t-27 -11.5t-27 11.5t-11 27.5v56q-63 -101 -177 -101q-92 0 -145 56.5t-53 150.5v287
q0 17 11 28t27 11t27.5 -11.5t11.5 -27.5v-268q0 -73 37.5 -114.5t105.5 -41.5q67 0 111 45t44 117v262q0 17 11 28t27 11t27 -11.5t11 -27.5z" />
    <glyph glyph-name="udieresis" unicode="&#xfc;" horiz-adv-x="616" 
d="M392 695q20 0 33.5 -13t13.5 -32v-15q0 -19 -13.5 -32t-33.5 -13t-33.5 13t-13.5 32v15q0 19 13.5 32t33.5 13zM214 695q20 0 33.5 -13t13.5 -32v-15q0 -19 -13.5 -32t-33.5 -13t-33.5 13t-13.5 32v15q0 19 13.5 32t33.5 13zM529 483v-449q0 -16 -11 -27.5t-27 -11.5
t-27 11.5t-11 27.5v56q-63 -101 -177 -101q-92 0 -145 56.5t-53 150.5v287q0 17 11 28t27 11t27.5 -11.5t11.5 -27.5v-268q0 -73 37.5 -114.5t105.5 -41.5q67 0 111 45t44 117v262q0 17 11 28t27 11t27 -11.5t11 -27.5z" />
    <glyph glyph-name="yacute" unicode="&#xfd;" horiz-adv-x="587" 
d="M161 -163q-42 0 -85 15q-24 10 -24 33q0 14 10 23.5t23 9.5q7 0 19 -4q27 -9 56 -9q35 0 58.5 21.5t45.5 70.5l4 8l-216 458q-5 12 -5 21q0 16 11.5 27t27.5 11q27 0 39 -30l180 -406l160 407q11 29 37 29q16 0 27 -11t11 -27q0 -7 -4 -19l-202 -482
q-33 -79 -73.5 -112.5t-99.5 -33.5zM294 591q-19 0 -19 14q0 8 5 15l60 91q15 23 36 23q18 0 36 -10t18 -20q0 -9 -14 -23l-75 -71q-19 -19 -47 -19z" />
    <glyph glyph-name="thorn" unicode="&#xfe;" 
d="M86 -126v822q0 16 11 27.5t27 11.5t27.5 -11.5t11.5 -27.5v-283q78 115 198 115q99 0 173 -73t74 -195v-2q0 -121 -74 -195t-173 -74q-122 0 -198 110v-225q0 -17 -11 -28t-27 -11q-17 0 -28 11.5t-11 27.5zM347 58q78 0 130 54t52 145v2q0 89 -53 144.5t-129 55.5
q-75 0 -131 -56.5t-56 -142.5v-2q0 -87 56 -143.5t131 -56.5z" />
    <glyph glyph-name="ydieresis" unicode="&#xff;" horiz-adv-x="587" 
d="M161 -163q-42 0 -85 15q-24 10 -24 33q0 14 10 23.5t23 9.5q7 0 19 -4q27 -9 56 -9q35 0 58.5 21.5t45.5 70.5l4 8l-216 458q-5 12 -5 21q0 16 11.5 27t27.5 11q27 0 39 -30l180 -406l160 407q11 29 37 29q16 0 27 -11t11 -27q0 -7 -4 -19l-202 -482
q-33 -79 -73.5 -112.5t-99.5 -33.5zM385 695q20 0 33.5 -13t13.5 -32v-15q0 -19 -13.5 -32t-33.5 -13t-33.5 13t-13.5 32v15q0 19 13.5 32t33.5 13zM207 695q20 0 33.5 -13t13.5 -32v-15q0 -19 -13.5 -32t-33.5 -13t-33.5 13t-13.5 32v15q0 19 13.5 32t33.5 13z" />
    <glyph glyph-name="Amacron" unicode="&#x100;" horiz-adv-x="784" 
d="M51 31q0 11 5 21l284 621q16 35 50 35h4q35 0 49 -35l284 -620q5 -12 5 -20q0 -16 -11 -27t-27 -11q-26 0 -39 29l-73 161h-384l-73 -163q-11 -27 -38 -27q-15 0 -25.5 10.5t-10.5 25.5zM229 257h322l-161 358zM523 792h-264q-13 0 -22.5 9.5t-9.5 22.5t9.5 22.5
t22.5 9.5h264q13 0 22.5 -9.5t9.5 -22.5t-9.5 -22.5t-22.5 -9.5z" />
    <glyph glyph-name="amacron" unicode="&#x101;" horiz-adv-x="579" 
d="M240 -11q-78 0 -135.5 43t-57.5 118v2q0 80 60 123.5t161 43.5q81 0 159 -22v18q0 69 -40 105t-114 36q-69 0 -134 -29q-7 -3 -14 -3q-14 0 -24 10t-10 23q0 24 21 32q81 35 169 35q110 0 167 -57q53 -53 53 -151v-283q0 -16 -10.5 -27t-26.5 -11t-26.5 10.5t-10.5 25.5
v47q-68 -89 -187 -89zM255 50q72 0 122.5 39.5t50.5 100.5v50q-76 22 -152 22q-72 0 -111.5 -29t-39.5 -78v-2q0 -47 37.5 -75t92.5 -28zM421 615h-264q-13 0 -22.5 9.5t-9.5 22.5t9.5 22.5t22.5 9.5h264q13 0 22.5 -9.5t9.5 -22.5t-9.5 -22.5t-22.5 -9.5z" />
    <glyph glyph-name="Abreve" unicode="&#x102;" horiz-adv-x="784" 
d="M51 31q0 11 5 21l284 621q16 35 50 35h4q35 0 49 -35l284 -620q5 -12 5 -20q0 -16 -11 -27t-27 -11q-26 0 -39 29l-73 161h-384l-73 -163q-11 -27 -38 -27q-15 0 -25.5 10.5t-10.5 25.5zM229 257h322l-161 358zM391 770q-92 0 -132 73q-10 17 -10 35q0 13 7.5 21.5
t20.5 8.5q18 0 28 -19q22 -55 86 -55t86 55q10 19 28 19q13 0 20.5 -8.5t7.5 -21.5q0 -18 -10 -35q-40 -73 -132 -73z" />
    <glyph glyph-name="abreve" unicode="&#x103;" horiz-adv-x="579" 
d="M240 -11q-78 0 -135.5 43t-57.5 118v2q0 80 60 123.5t161 43.5q81 0 159 -22v18q0 69 -40 105t-114 36q-69 0 -134 -29q-7 -3 -14 -3q-14 0 -24 10t-10 23q0 24 21 32q81 35 169 35q110 0 167 -57q53 -53 53 -151v-283q0 -16 -10.5 -27t-26.5 -11t-26.5 10.5t-10.5 25.5
v47q-68 -89 -187 -89zM255 50q72 0 122.5 39.5t50.5 100.5v50q-76 22 -152 22q-72 0 -111.5 -29t-39.5 -78v-2q0 -47 37.5 -75t92.5 -28zM289 593q-92 0 -132 73q-10 17 -10 35q0 13 7.5 21.5t20.5 8.5q18 0 28 -19q22 -55 86 -55t86 55q10 19 28 19q13 0 20.5 -8.5
t7.5 -21.5q0 -18 -10 -35q-40 -73 -132 -73z" />
    <glyph glyph-name="Aogonek" unicode="&#x104;" horiz-adv-x="790" 
d="M54 31q0 8 5 21l284 621q16 35 50 35h4q34 0 50 -35l285 -624q5 -10 5 -20q0 -16 -16 -32q-44 -38 -44 -70q0 -34 50 -44q29 -6 29 -24q0 -23 -28 -23q-40 0 -78.5 18.5t-38.5 61.5q0 44 55 91l-80 178h-385l-73 -163q-11 -27 -37 -27q-16 0 -26.5 10.5t-10.5 25.5z
M232 257h322l-160 358z" />
    <glyph glyph-name="aogonek" unicode="&#x105;" horiz-adv-x="579" 
d="M374 -85q0 45 58 95q-5 4 -5 67v1q-68 -89 -187 -89q-78 0 -135.5 43t-57.5 118v2q0 80 60 123.5t161 43.5q81 0 159 -22v18q0 69 -40 105t-114 36q-69 0 -134 -29q-7 -3 -14 -3q-14 0 -24 10t-10 23q0 24 21 32q81 35 169 35q110 0 167 -57q53 -53 53 -151v-285
q0 -20 -18 -35q-43 -39 -43 -69q0 -35 49 -44q29 -6 29 -24q0 -23 -27 -23q-23 0 -47 5.5t-47 24.5t-23 49zM255 50q72 0 122.5 39.5t50.5 100.5v50q-76 22 -152 22q-72 0 -111.5 -29t-39.5 -78v-2q0 -47 37.5 -75t92.5 -28z" />
    <glyph glyph-name="Cacute" unicode="&#x106;" horiz-adv-x="738" 
d="M412 768q-19 0 -19 14q0 8 5 15l60 91q15 23 36 23q18 0 36 -10t18 -20q0 -9 -14 -23l-75 -71q-19 -19 -47 -19zM419 -12q-150 0 -250.5 104t-100.5 256v2q0 151 101 256.5t253 105.5q79 0 137.5 -23t112.5 -68q16 -14 16 -32q0 -16 -12 -27.5t-28 -11.5q-12 0 -26 9
q-90 80 -201 80q-116 0 -193.5 -83t-77.5 -204v-2q0 -122 78 -205.5t193 -83.5t208 85q11 11 25 11q15 0 26.5 -11.5t11.5 -26.5q0 -17 -13 -28q-113 -103 -260 -103z" />
    <glyph glyph-name="cacute" unicode="&#x107;" horiz-adv-x="571" 
d="M311 591q-19 0 -19 14q0 8 5 15l60 91q15 23 36 23q18 0 36 -10t18 -20q0 -9 -14 -23l-75 -71q-19 -19 -47 -19zM319 -12q-112 0 -188.5 79t-76.5 189v2q0 111 76.5 190.5t188.5 79.5q108 0 190 -75q12 -10 12 -27q0 -16 -11 -26.5t-26 -10.5q-14 0 -25 9q-67 62 -141 62
q-78 0 -131.5 -58t-53.5 -142v-2q0 -84 54.5 -142.5t135.5 -58.5q77 0 144 63q10 10 22 10q14 0 24.5 -10.5t10.5 -24.5t-10 -24q-83 -83 -195 -83z" />
    <glyph glyph-name="Cdotaccent" unicode="&#x10a;" horiz-adv-x="738" 
d="M419 -12q-150 0 -250.5 104t-100.5 256v2q0 151 101 256.5t253 105.5q79 0 137.5 -23t112.5 -68q16 -14 16 -32q0 -16 -12 -27.5t-28 -11.5q-12 0 -26 9q-90 80 -201 80q-116 0 -193.5 -83t-77.5 -204v-2q0 -122 78 -205.5t193 -83.5t208 85q11 11 25 11q15 0 26.5 -11.5
t11.5 -26.5q0 -17 -13 -28q-113 -103 -260 -103zM462 827v-14q0 -20 -14 -33t-34 -13t-34 13t-14 33v14q0 20 13.5 32.5t34.5 12.5t34.5 -12.5t13.5 -32.5z" />
    <glyph glyph-name="cdotaccent" unicode="&#x10b;" horiz-adv-x="571" 
d="M319 -12q-112 0 -188.5 79t-76.5 189v2q0 111 76.5 190.5t188.5 79.5q108 0 190 -75q12 -10 12 -27q0 -16 -11 -26.5t-26 -10.5q-14 0 -25 9q-67 62 -141 62q-78 0 -131.5 -58t-53.5 -142v-2q0 -84 54.5 -142.5t135.5 -58.5q77 0 144 63q10 10 22 10q14 0 24.5 -10.5
t10.5 -24.5t-10 -24q-83 -83 -195 -83zM362 650v-14q0 -20 -14 -33t-34 -13t-34 13t-14 33v14q0 20 13.5 32.5t34.5 12.5t34.5 -12.5t13.5 -32.5z" />
    <glyph glyph-name="Ccaron" unicode="&#x10c;" horiz-adv-x="738" 
d="M415 836l59 53q20 18 48 18q18 0 18 -14q0 -5 -7 -16l-70 -86q-18 -23 -40 -23h-18q-22 0 -40 23l-70 86q-7 11 -7 16q0 14 19 14q29 0 49 -18zM419 -12q-150 0 -250.5 104t-100.5 256v2q0 151 101 256.5t253 105.5q79 0 137.5 -23t112.5 -68q16 -14 16 -32
q0 -16 -12 -27.5t-28 -11.5q-12 0 -26 9q-90 80 -201 80q-116 0 -193.5 -83t-77.5 -204v-2q0 -122 78 -205.5t193 -83.5t208 85q11 11 25 11q15 0 26.5 -11.5t11.5 -26.5q0 -17 -13 -28q-113 -103 -260 -103z" />
    <glyph glyph-name="ccaron" unicode="&#x10d;" horiz-adv-x="571" 
d="M315 659l59 53q20 18 48 18q18 0 18 -14q0 -6 -7 -16l-70 -86q-18 -23 -40 -23h-18q-22 0 -40 23l-70 86q-7 10 -7 16q0 14 19 14q29 0 49 -18zM319 -12q-112 0 -188.5 79t-76.5 189v2q0 111 76.5 190.5t188.5 79.5q108 0 190 -75q12 -10 12 -27q0 -16 -11 -26.5
t-26 -10.5q-14 0 -25 9q-67 62 -141 62q-78 0 -131.5 -58t-53.5 -142v-2q0 -84 54.5 -142.5t135.5 -58.5q77 0 144 63q10 10 22 10q14 0 24.5 -10.5t10.5 -24.5t-10 -24q-83 -83 -195 -83z" />
    <glyph glyph-name="Dcaron" unicode="&#x10e;" horiz-adv-x="782" 
d="M376 826l59 53q20 18 48 18q18 0 18 -14q0 -5 -7 -16l-70 -86q-18 -23 -40 -23h-18q-22 0 -40 23l-70 86q-7 11 -7 16q0 14 19 14q29 0 49 -18zM99 40v620q0 16 11.5 28t27.5 12h204q163 0 267.5 -99.5t104.5 -248.5v-2q0 -150 -104.5 -250t-267.5 -100h-204
q-16 0 -27.5 12t-11.5 28zM178 73h164q130 0 210 78t80 197v2q0 119 -80 198t-210 79h-164v-554z" />
    <glyph glyph-name="dcaron" unicode="&#x10f;" 
d="M642 586l9 116q3 32 34 32h15q22 0 22 -21q0 -9 -5 -24l-35 -106q-6 -20 -22 -20q-21 0 -18 23zM578 696v-662q0 -16 -11 -27.5t-27 -11.5t-27.5 11.5t-11.5 27.5v70q-78 -115 -198 -115q-99 0 -173 73t-74 195v2q0 121 74 195t173 74q122 0 198 -110v278q0 17 11 28
t27 11q17 0 28 -11.5t11 -27.5zM317 459q-78 0 -130 -54t-52 -145v-2q0 -89 53.5 -144.5t128.5 -55.5t131 56.5t56 143.5v2q0 86 -56 142.5t-131 56.5z" />
    <glyph glyph-name="Dcroat" unicode="&#x110;" horiz-adv-x="812" 
d="M85 388h44v272q0 16 11.5 28t27.5 12h204q163 0 267.5 -99.5t104.5 -248.5v-2q0 -150 -104.5 -250t-267.5 -100h-204q-16 0 -27.5 12t-11.5 28v276h-44q-15 0 -25.5 10.5t-10.5 25.5t10.5 25.5t25.5 10.5zM208 627v-239h179q14 0 25 -10.5t11 -25.5t-11 -25.5t-25 -10.5
h-179v-243h164q130 0 210 78t80 197v2q0 119 -80 198t-210 79h-164z" />
    <glyph glyph-name="dcroat" unicode="&#x111;" 
d="M578 696v-29h46q11 0 19.5 -8t8.5 -19t-8.5 -19.5t-19.5 -8.5h-46v-578q0 -16 -11 -27.5t-27 -11.5t-27.5 11.5t-11.5 27.5v70q-78 -115 -198 -115q-99 0 -173 73t-74 195v2q0 121 74 195t173 74q122 0 198 -110v194h-154q-11 0 -19 8.5t-8 19.5t8 19t19 8h154v29
q0 17 11 28t27 11q17 0 28 -11.5t11 -27.5zM317 459q-78 0 -130 -54t-52 -145v-2q0 -89 53.5 -144.5t128.5 -55.5t131 56.5t56 143.5v2q0 86 -56 142.5t-131 56.5z" />
    <glyph glyph-name="Emacron" unicode="&#x112;" horiz-adv-x="670" 
d="M138 0q-16 0 -27.5 12t-11.5 28v620q0 16 11.5 28t27.5 12h435q15 0 25.5 -10.5t10.5 -25.5t-10.5 -25.5t-25.5 -10.5h-395v-239h350q15 0 25.5 -11t10.5 -25q0 -15 -10.5 -25.5t-25.5 -10.5h-350v-245h400q15 0 25.5 -10.5t10.5 -25.5t-10.5 -25.5t-25.5 -10.5h-440z
M485 782h-264q-13 0 -22.5 9.5t-9.5 22.5t9.5 22.5t22.5 9.5h264q13 0 22.5 -9.5t9.5 -22.5t-9.5 -22.5t-22.5 -9.5z" />
    <glyph glyph-name="emacron" unicode="&#x113;" horiz-adv-x="592" 
d="M132 287h333q-6 76 -49 126t-116 50q-67 0 -113.5 -50t-54.5 -126zM507 66q-81 -78 -195 -78q-109 0 -183.5 75.5t-74.5 193.5v2q0 113 71 191t177 78q110 0 175 -77t65 -185q0 -15 -10.5 -25.5t-25.5 -10.5h-374q8 -82 59.5 -128.5t122.5 -46.5q84 0 149 60q11 9 22 9
q14 0 24 -9.5t10 -23.5q0 -15 -12 -25zM433 615h-264q-13 0 -22.5 9.5t-9.5 22.5t9.5 22.5t22.5 9.5h264q13 0 22.5 -9.5t9.5 -22.5t-9.5 -22.5t-22.5 -9.5z" />
    <glyph glyph-name="Ebreve" unicode="&#x114;" horiz-adv-x="670" 
d="M138 0q-16 0 -27.5 12t-11.5 28v620q0 16 11.5 28t27.5 12h435q15 0 25.5 -10.5t10.5 -25.5t-10.5 -25.5t-25.5 -10.5h-395v-239h350q15 0 25.5 -11t10.5 -25q0 -15 -10.5 -25.5t-25.5 -10.5h-350v-245h400q15 0 25.5 -10.5t10.5 -25.5t-10.5 -25.5t-25.5 -10.5h-440z
M353 760q-92 0 -132 73q-10 17 -10 35q0 13 7.5 21.5t20.5 8.5q18 0 28 -19q22 -55 86 -55t86 55q10 19 28 19q13 0 20.5 -8.5t7.5 -21.5q0 -18 -10 -35q-40 -73 -132 -73z" />
    <glyph glyph-name="ebreve" unicode="&#x115;" horiz-adv-x="592" 
d="M132 287h333q-6 76 -49 126t-116 50q-67 0 -113.5 -50t-54.5 -126zM507 66q-81 -78 -195 -78q-109 0 -183.5 75.5t-74.5 193.5v2q0 113 71 191t177 78q110 0 175 -77t65 -185q0 -15 -10.5 -25.5t-25.5 -10.5h-374q8 -82 59.5 -128.5t122.5 -46.5q84 0 149 60q11 9 22 9
q14 0 24 -9.5t10 -23.5q0 -15 -12 -25zM301 593q-92 0 -132 73q-10 17 -10 35q0 13 7.5 21.5t20.5 8.5q18 0 28 -19q22 -55 86 -55t86 55q10 19 28 19q13 0 20.5 -8.5t7.5 -21.5q0 -18 -10 -35q-40 -73 -132 -73z" />
    <glyph glyph-name="Edotaccent" unicode="&#x116;" horiz-adv-x="670" 
d="M138 0q-16 0 -27.5 12t-11.5 28v620q0 16 11.5 28t27.5 12h435q15 0 25.5 -10.5t10.5 -25.5t-10.5 -25.5t-25.5 -10.5h-395v-239h350q15 0 25.5 -11t10.5 -25q0 -15 -10.5 -25.5t-25.5 -10.5h-350v-245h400q15 0 25.5 -10.5t10.5 -25.5t-10.5 -25.5t-25.5 -10.5h-440z
M401 817v-14q0 -20 -14 -33t-34 -13t-34 13t-14 33v14q0 20 13.5 32.5t34.5 12.5t34.5 -12.5t13.5 -32.5z" />
    <glyph glyph-name="edotaccent" unicode="&#x117;" horiz-adv-x="592" 
d="M132 287h333q-6 76 -49 126t-116 50q-67 0 -113.5 -50t-54.5 -126zM507 66q-81 -78 -195 -78q-109 0 -183.5 75.5t-74.5 193.5v2q0 113 71 191t177 78q110 0 175 -77t65 -185q0 -15 -10.5 -25.5t-25.5 -10.5h-374q8 -82 59.5 -128.5t122.5 -46.5q84 0 149 60q11 9 22 9
q14 0 24 -9.5t10 -23.5q0 -15 -12 -25zM349 650v-14q0 -20 -14 -33t-34 -13t-34 13t-14 33v14q0 20 13.5 32.5t34.5 12.5t34.5 -12.5t13.5 -32.5z" />
    <glyph glyph-name="Eogonek" unicode="&#x118;" horiz-adv-x="670" 
d="M138 0q-16 0 -27.5 12t-11.5 28v620q0 16 11.5 28t27.5 12h435q15 0 25.5 -10.5t10.5 -25.5t-10.5 -25.5t-25.5 -10.5h-395v-239h350q15 0 25.5 -11t10.5 -25q0 -15 -10.5 -25.5t-25.5 -10.5h-350v-245h399q16 0 26.5 -9.5t10.5 -23.5q0 -20 -22 -37q-31 -25 -43 -41
t-12 -35q0 -33 48 -43q30 -5 30 -24q0 -23 -28 -23q-23 0 -47 5.5t-47 24.5t-23 50q0 41 51 84h-383z" />
    <glyph glyph-name="eogonek" unicode="&#x119;" horiz-adv-x="592" 
d="M542 266q0 -15 -10.5 -25.5t-25.5 -10.5h-374q8 -82 59.5 -128.5t122.5 -46.5q84 0 149 60q11 9 22 9q14 0 24 -9.5t10 -23.5q0 -15 -12 -25q-6 -6 -40 -36q-65 -56 -65 -97q0 -40 50 -50q30 -5 30 -24q0 -23 -28 -23q-47 0 -82 21t-35 63q0 38 36 74q-29 -6 -61 -6
q-109 0 -183.5 75.5t-74.5 193.5v2q0 113 71 191t177 78q110 0 175 -77t65 -185zM132 287h333q-6 76 -49 126t-116 50q-67 0 -113.5 -50t-54.5 -126z" />
    <glyph glyph-name="Ecaron" unicode="&#x11a;" horiz-adv-x="670" 
d="M354 826l59 53q20 18 48 18q18 0 18 -14q0 -5 -7 -16l-70 -86q-18 -23 -40 -23h-18q-22 0 -40 23l-70 86q-7 11 -7 16q0 14 19 14q29 0 49 -18zM138 0q-16 0 -27.5 12t-11.5 28v620q0 16 11.5 28t27.5 12h435q15 0 25.5 -10.5t10.5 -25.5t-10.5 -25.5t-25.5 -10.5h-395
v-239h350q15 0 25.5 -11t10.5 -25q0 -15 -10.5 -25.5t-25.5 -10.5h-350v-245h400q15 0 25.5 -10.5t10.5 -25.5t-10.5 -25.5t-25.5 -10.5h-440z" />
    <glyph glyph-name="ecaron" unicode="&#x11b;" horiz-adv-x="592" 
d="M302 659l59 53q20 18 48 18q18 0 18 -14q0 -6 -7 -16l-70 -86q-18 -23 -40 -23h-18q-22 0 -40 23l-70 86q-7 10 -7 16q0 14 19 14q29 0 49 -18zM132 287h333q-6 76 -49 126t-116 50q-67 0 -113.5 -50t-54.5 -126zM507 66q-81 -78 -195 -78q-109 0 -183.5 75.5
t-74.5 193.5v2q0 113 71 191t177 78q110 0 175 -77t65 -185q0 -15 -10.5 -25.5t-25.5 -10.5h-374q8 -82 59.5 -128.5t122.5 -46.5q84 0 149 60q11 9 22 9q14 0 24 -9.5t10 -23.5q0 -15 -12 -25z" />
    <glyph glyph-name="Gbreve" unicode="&#x11e;" horiz-adv-x="784" 
d="M424 -12q-161 0 -258.5 103t-97.5 257v2q0 148 99 255t252 107q137 0 239 -75q16 -12 16 -32q0 -16 -11.5 -28t-27.5 -12q-12 0 -25 10q-84 64 -194 64q-114 0 -190 -84t-76 -203v-2q0 -127 75.5 -209t201.5 -82q116 0 202 70v174h-188q-14 0 -24.5 10.5t-10.5 24.5
q0 15 10.5 25.5t24.5 10.5h225q16 0 27.5 -12t11.5 -28v-213q0 -30 -27 -48q-116 -85 -254 -85zM412 770q-92 0 -132 73q-10 17 -10 35q0 13 7.5 21.5t20.5 8.5q18 0 28 -19q22 -55 86 -55t86 55q10 19 28 19q13 0 20.5 -8.5t7.5 -21.5q0 -18 -10 -35q-40 -73 -132 -73z" />
    <glyph glyph-name="gbreve" unicode="&#x11f;" 
d="M315 -162q-117 0 -216 61q-20 10 -20 32q0 13 11 23.5t24 10.5q9 0 17 -5q84 -56 183 -56q87 0 137.5 47.5t50.5 136.5v61q-82 -109 -203 -109q-98 0 -170.5 67.5t-72.5 174.5v2q0 109 73 176.5t170 67.5q124 0 202 -104v59q0 16 11 27.5t27 11.5t27.5 -11.5t11.5 -27.5
v-393q0 -117 -66 -183q-69 -69 -197 -69zM314 108q76 0 133 49.5t57 125.5v2q0 77 -56.5 126t-133.5 49q-75 0 -127 -48t-52 -126v-2q0 -76 52.5 -126t126.5 -50zM328 593q-92 0 -132 73q-10 17 -10 35q0 13 7.5 21.5t20.5 8.5q18 0 28 -19q22 -55 86 -55t86 55q10 19 28 19
q13 0 20.5 -8.5t7.5 -21.5q0 -18 -10 -35q-40 -73 -132 -73z" />
    <glyph glyph-name="Gdotaccent" unicode="&#x120;" horiz-adv-x="784" 
d="M424 -12q-161 0 -258.5 103t-97.5 257v2q0 148 99 255t252 107q137 0 239 -75q16 -12 16 -32q0 -16 -11.5 -28t-27.5 -12q-12 0 -25 10q-84 64 -194 64q-114 0 -190 -84t-76 -203v-2q0 -127 75.5 -209t201.5 -82q116 0 202 70v174h-188q-14 0 -24.5 10.5t-10.5 24.5
q0 15 10.5 25.5t24.5 10.5h225q16 0 27.5 -12t11.5 -28v-213q0 -30 -27 -48q-116 -85 -254 -85zM460 827v-14q0 -20 -14 -33t-34 -13t-34 13t-14 33v14q0 20 13.5 32.5t34.5 12.5t34.5 -12.5t13.5 -32.5z" />
    <glyph glyph-name="gdotaccent" unicode="&#x121;" 
d="M315 -162q-117 0 -216 61q-20 10 -20 32q0 13 11 23.5t24 10.5q9 0 17 -5q84 -56 183 -56q87 0 137.5 47.5t50.5 136.5v61q-82 -109 -203 -109q-98 0 -170.5 67.5t-72.5 174.5v2q0 109 73 176.5t170 67.5q124 0 202 -104v59q0 16 11 27.5t27 11.5t27.5 -11.5t11.5 -27.5
v-393q0 -117 -66 -183q-69 -69 -197 -69zM314 108q76 0 133 49.5t57 125.5v2q0 77 -56.5 126t-133.5 49q-75 0 -127 -48t-52 -126v-2q0 -76 52.5 -126t126.5 -50zM376 650v-14q0 -20 -14 -33t-34 -13t-34 13t-14 33v14q0 20 13.5 32.5t34.5 12.5t34.5 -12.5t13.5 -32.5z" />
    <glyph glyph-name="Gcommaaccent" unicode="&#x122;" horiz-adv-x="784" 
d="M405 -155q-40 7 -40 41v5q0 18 13 30.5t33 12.5q21 0 34 -14t13 -38v-5q0 -61 -32 -90q-13 -13 -34.5 -21.5t-37.5 -8.5q-19 0 -19 14q0 13 17 17q29 8 41.5 21t11.5 36zM424 -12q-161 0 -258.5 103t-97.5 257v2q0 148 99 255t252 107q137 0 239 -75q16 -12 16 -32
q0 -16 -11.5 -28t-27.5 -12q-12 0 -25 10q-84 64 -194 64q-114 0 -190 -84t-76 -203v-2q0 -127 75.5 -209t201.5 -82q116 0 202 70v174h-188q-14 0 -24.5 10.5t-10.5 24.5q0 15 10.5 25.5t24.5 10.5h225q16 0 27.5 -12t11.5 -28v-213q0 -30 -27 -48q-116 -85 -254 -85z" />
    <glyph glyph-name="gcommaaccent" unicode="&#x123;" 
d="M334 679q40 -7 40 -41v-5q0 -18 -13 -30.5t-33 -12.5q-21 0 -34 14t-13 38v5q0 61 32 90q13 13 34.5 21.5t37.5 8.5q19 0 19 -14q0 -13 -17 -17q-29 -8 -41.5 -21t-11.5 -36zM315 -162q-117 0 -216 61q-20 10 -20 32q0 13 11 23.5t24 10.5q9 0 17 -5q84 -56 183 -56
q87 0 137.5 47.5t50.5 136.5v61q-82 -109 -203 -109q-98 0 -170.5 67.5t-72.5 174.5v2q0 109 73 176.5t170 67.5q124 0 202 -104v59q0 16 11 27.5t27 11.5t27.5 -11.5t11.5 -27.5v-393q0 -117 -66 -183q-69 -69 -197 -69zM314 108q76 0 133 49.5t57 125.5v2q0 77 -56.5 126
t-133.5 49q-75 0 -127 -48t-52 -126v-2q0 -76 52.5 -126t126.5 -50z" />
    <glyph glyph-name="Hbar" unicode="&#x126;" horiz-adv-x="804" 
d="M120 35v476h-47q-13 0 -22 8.5t-9 21.5q0 12 9 21t22 9h47v94q0 16 11.5 28t27.5 12q17 0 28.5 -11.5t11.5 -28.5v-94h404v94q0 17 11.5 28.5t28.5 11.5q16 0 27.5 -12t11.5 -28v-94h49q12 0 21 -9t9 -21q0 -13 -9 -21.5t-21 -8.5h-49v-476q0 -16 -11.5 -28t-27.5 -12
q-17 0 -28.5 11.5t-11.5 28.5v280h-404v-280q0 -17 -11.5 -28.5t-28.5 -11.5q-16 0 -27.5 12t-11.5 28zM199 389h404v122h-404v-122z" />
    <glyph glyph-name="hbar" unicode="&#x127;" horiz-adv-x="616" 
d="M86 34v578h-46q-11 0 -19.5 8.5t-8.5 19.5t8.5 19t19.5 8h46v29q0 16 11 27.5t27 11.5t27.5 -11.5t11.5 -27.5v-29h154q11 0 19.5 -8t8.5 -19t-8.5 -19.5t-19.5 -8.5h-154v-185q61 101 177 101q92 0 145 -56.5t53 -150.5v-287q0 -16 -11 -27.5t-27 -11.5t-27.5 11.5
t-11.5 27.5v268q0 73 -37.5 114.5t-105.5 41.5q-67 0 -111 -45t-44 -117v-262q0 -17 -11 -28t-27 -11q-17 0 -28 11.5t-11 27.5z" />
    <glyph glyph-name="Imacron" unicode="&#x12a;" horiz-adv-x="291" 
d="M106 35v630q0 16 11.5 28t27.5 12q17 0 28.5 -11.5t11.5 -28.5v-630q0 -17 -11.5 -28.5t-28.5 -11.5q-16 0 -27.5 12t-11.5 28zM278 782h-264q-13 0 -22.5 9.5t-9.5 22.5t9.5 22.5t22.5 9.5h264q13 0 22.5 -9.5t9.5 -22.5t-9.5 -22.5t-22.5 -9.5z" />
    <glyph glyph-name="imacron" unicode="&#x12b;" horiz-adv-x="263" 
d="M93 34v449q0 16 11 27.5t27 11.5q17 0 28 -11t11 -28v-449q0 -17 -11 -28t-27 -11t-27.5 11.5t-11.5 27.5zM264 615h-264q-13 0 -22.5 9.5t-9.5 22.5t9.5 22.5t22.5 9.5h264q13 0 22.5 -9.5t9.5 -22.5t-9.5 -22.5t-22.5 -9.5z" />
    <glyph glyph-name="Ibreve" unicode="&#x12c;" horiz-adv-x="291" 
d="M106 35v630q0 16 11.5 28t27.5 12q17 0 28.5 -11.5t11.5 -28.5v-630q0 -17 -11.5 -28.5t-28.5 -11.5q-16 0 -27.5 12t-11.5 28zM146 760q-92 0 -132 73q-10 17 -10 35q0 13 7.5 21.5t20.5 8.5q18 0 28 -19q22 -55 86 -55t86 55q10 19 28 19q13 0 20.5 -8.5t7.5 -21.5
q0 -18 -10 -35q-40 -73 -132 -73z" />
    <glyph glyph-name="ibreve" unicode="&#x12d;" horiz-adv-x="263" 
d="M93 34v449q0 16 11 27.5t27 11.5q17 0 28 -11t11 -28v-449q0 -17 -11 -28t-27 -11t-27.5 11.5t-11.5 27.5zM132 593q-92 0 -132 73q-10 17 -10 35q0 13 7.5 21.5t20.5 8.5q18 0 28 -19q22 -55 86 -55t86 55q10 19 28 19q13 0 20.5 -8.5t7.5 -21.5q0 -18 -10 -35
q-40 -73 -132 -73z" />
    <glyph glyph-name="Iogonek" unicode="&#x12e;" horiz-adv-x="291" 
d="M58 -84q0 45 55 92q-7 6 -7 16v641q0 16 11.5 28t27.5 12q17 0 28.5 -11.5t11.5 -28.5v-633q0 -19 -17 -35q-44 -40 -44 -70q0 -34 50 -44q29 -6 29 -24q0 -23 -27 -23q-41 0 -79.5 18.5t-38.5 61.5z" />
    <glyph glyph-name="iogonek" unicode="&#x12f;" horiz-adv-x="263" 
d="M170 483v-452q0 -20 -18 -35q-43 -39 -43 -69q0 -35 49 -44q29 -6 29 -24q0 -23 -27 -23q-23 0 -47 5.5t-47 24.5t-23 49q0 47 58 94q-8 6 -8 16v458q0 16 11 27.5t27 11.5q17 0 28 -11t11 -28zM86 666v13q0 18 13 29.5t32 11.5q20 0 33 -11.5t13 -29.5v-13
q0 -18 -13 -29.5t-33 -11.5q-19 0 -32 11.5t-13 29.5z" />
    <glyph glyph-name="Idotaccent" unicode="&#x130;" horiz-adv-x="291" 
d="M106 35v630q0 16 11.5 28t27.5 12q17 0 28.5 -11.5t11.5 -28.5v-630q0 -17 -11.5 -28.5t-28.5 -11.5q-16 0 -27.5 12t-11.5 28zM194 817v-14q0 -20 -14 -33t-34 -13t-34 13t-14 33v14q0 20 13.5 32.5t34.5 12.5t34.5 -12.5t13.5 -32.5z" />
    <glyph glyph-name="dotlessi" unicode="&#x131;" horiz-adv-x="263" 
d="M93 34v449q0 16 11 27.5t27 11.5q17 0 28 -11t11 -28v-449q0 -17 -11 -28t-27 -11t-27.5 11.5t-11.5 27.5z" />
    <glyph glyph-name="Kcommaaccent" unicode="&#x136;" horiz-adv-x="714" 
d="M356 -149q-40 7 -40 41v5q0 18 13 30.5t33 12.5q21 0 34 -14t13 -38v-5q0 -61 -32 -90q-13 -13 -34.5 -21.5t-37.5 -8.5q-19 0 -19 14q0 13 17 17q29 8 41.5 21t11.5 36zM99 35v630q0 16 11.5 28t27.5 12t28 -11.5t12 -28.5v-383l399 409q16 14 31 14t26.5 -12t11.5 -27
t-13 -28l-248 -246l266 -328q11 -14 11 -29q0 -16 -12 -28t-28 -12q-19 0 -32 18l-261 325l-151 -151v-152q0 -17 -12 -28.5t-28 -11.5t-27.5 12t-11.5 28z" />
    <glyph glyph-name="kcommaaccent" unicode="&#x137;" horiz-adv-x="568" 
d="M292 -154q-40 7 -40 41v5q0 18 13 30.5t33 12.5q21 0 34 -14t13 -38v-5q0 -61 -32 -90q-13 -13 -34.5 -21.5t-37.5 -8.5q-19 0 -19 14q0 13 17 17q29 8 41.5 21t11.5 36zM86 34v662q0 16 11 27.5t27 11.5t27.5 -11.5t11.5 -27.5v-474l280 285q13 15 30 15q15 0 25 -10.5
t10 -25.5t-15 -30l-169 -166l185 -233q10 -13 10 -26q0 -16 -10.5 -26t-26.5 -10q-19 0 -33 18l-179 226l-107 -106v-99q0 -17 -11 -28t-27 -11q-17 0 -28 11.5t-11 27.5z" />
    <glyph glyph-name="Lacute" unicode="&#x139;" horiz-adv-x="619" 
d="M152 758q-19 0 -19 14q0 8 5 15l60 91q15 23 36 23q18 0 36 -10t18 -20q0 -9 -14 -23l-75 -71q-19 -19 -47 -19zM99 40v625q0 16 11.5 28t27.5 12t28 -11.5t12 -28.5v-592h363q15 0 25.5 -11t10.5 -26t-10.5 -25.5t-25.5 -10.5h-403q-16 0 -27.5 12t-11.5 28z" />
    <glyph glyph-name="lacute" unicode="&#x13a;" horiz-adv-x="263" 
d="M132 779q-19 0 -19 14q0 8 5 15l60 91q15 23 36 23q18 0 36 -10t18 -20q0 -9 -14 -23l-75 -71q-19 -19 -47 -19zM93 34v662q0 16 11 27.5t27 11.5t27.5 -11.5t11.5 -27.5v-662q0 -17 -11 -28t-27 -11t-27.5 11.5t-11.5 27.5z" />
    <glyph glyph-name="Lcommaaccent" unicode="&#x13b;" horiz-adv-x="619" 
d="M325 -154q-40 7 -40 41v5q0 18 13 30.5t33 12.5q21 0 34 -14t13 -38v-5q0 -61 -32 -90q-13 -13 -34.5 -21.5t-37.5 -8.5q-19 0 -19 14q0 13 17 17q29 8 41.5 21t11.5 36zM99 40v625q0 16 11.5 28t27.5 12t28 -11.5t12 -28.5v-592h363q15 0 25.5 -11t10.5 -26t-10.5 -25.5
t-25.5 -10.5h-403q-16 0 -27.5 12t-11.5 28z" />
    <glyph glyph-name="lcommaaccent" unicode="&#x13c;" horiz-adv-x="263" 
d="M125 -154q-40 7 -40 41v5q0 18 13 30.5t33 12.5q21 0 34 -14t13 -38v-5q0 -61 -32 -90q-13 -13 -34.5 -21.5t-37.5 -8.5q-19 0 -19 14q0 13 17 17q29 8 41.5 21t11.5 36zM93 34v662q0 16 11 27.5t27 11.5t27.5 -11.5t11.5 -27.5v-662q0 -17 -11 -28t-27 -11t-27.5 11.5
t-11.5 27.5z" />
    <glyph glyph-name="Lcaron" unicode="&#x13d;" horiz-adv-x="619" 
d="M270 554l9 116q3 32 34 32h15q22 0 22 -21q0 -9 -5 -24l-35 -106q-6 -20 -22 -20q-21 0 -18 23zM99 40v625q0 16 11.5 28t27.5 12t28 -11.5t12 -28.5v-592h363q15 0 25.5 -11t10.5 -26t-10.5 -25.5t-25.5 -10.5h-403q-16 0 -27.5 12t-11.5 28z" />
    <glyph glyph-name="lcaron" unicode="&#x13e;" horiz-adv-x="263" 
d="M236 585l9 116q3 32 34 32h15q22 0 22 -21q0 -9 -5 -24l-35 -106q-6 -20 -22 -20q-21 0 -18 23zM93 34v662q0 16 11 27.5t27 11.5t27.5 -11.5t11.5 -27.5v-662q0 -17 -11 -28t-27 -11t-27.5 11.5t-11.5 27.5z" />
    <glyph glyph-name="Ldot" unicode="&#x13f;" horiz-adv-x="619" 
d="M99 40v625q0 16 11.5 28t27.5 12t28 -11.5t12 -28.5v-592h363q15 0 25.5 -11t10.5 -26t-10.5 -25.5t-25.5 -10.5h-403q-16 0 -27.5 12t-11.5 28zM512 376v-14q0 -20 -14 -33t-34 -13t-34 13t-14 33v14q0 20 13.5 32.5t34.5 12.5t34.5 -12.5t13.5 -32.5z" />
    <glyph glyph-name="ldot" unicode="&#x140;" horiz-adv-x="331" 
d="M341 376v-14q0 -18 -12.5 -31t-30.5 -13t-30.5 13t-12.5 31v14q0 18 12.5 31t30.5 13t30.5 -13t12.5 -31zM93 34v662q0 16 11 27.5t27 11.5t27.5 -11.5t11.5 -27.5v-662q0 -17 -11 -28t-27 -11t-27.5 11.5t-11.5 27.5z" />
    <glyph glyph-name="Lslash" unicode="&#x141;" horiz-adv-x="649" 
d="M402 385l-195 -60v-252h364q15 0 25.5 -11t10.5 -26t-10.5 -25.5t-25.5 -10.5h-403q-16 0 -27.5 12t-11.5 28v262l-29 -9q-8 -3 -17 -3q-14 0 -24 10t-10 25q0 25 26 34l54 16v290q0 17 11.5 28.5t27.5 11.5t27.5 -11.5t11.5 -28.5v-266l169 52q15 3 17 3q15 0 25 -10.5
t10 -25.5q0 -26 -26 -33z" />
    <glyph glyph-name="lslash" unicode="&#x142;" horiz-adv-x="323" 
d="M256 361l-56 -17v-310q0 -17 -11 -28t-27 -11t-27 11t-11 28v287l-31 -9q-7 -3 -16 -3q-15 0 -25 10t-10 25q0 25 26 34q25 7 56 17v301q0 16 10.5 27.5t26.5 11.5t27.5 -11.5t11.5 -27.5v-278l30 9q8 3 17 3q14 0 24 -10t10 -25q0 -25 -25 -34z" />
    <glyph glyph-name="Nacute" unicode="&#x143;" horiz-adv-x="790" 
d="M392 758q-19 0 -19 14q0 8 5 15l60 91q15 23 36 23q18 0 36 -10t18 -20q0 -9 -14 -23l-75 -71q-19 -19 -47 -19zM99 34v630q0 16 11.5 27.5t27.5 11.5h11q22 0 40 -23l425 -542v528q0 16 11.5 27.5t27.5 11.5t27 -11.5t11 -27.5v-632q0 -16 -10 -26.5t-26 -10.5h-4
q-20 0 -41 24l-434 555v-542q0 -16 -11.5 -27.5t-27.5 -11.5t-27 11.5t-11 27.5z" />
    <glyph glyph-name="nacute" unicode="&#x144;" horiz-adv-x="616" 
d="M309 591q-19 0 -19 14q0 8 5 15l60 91q15 23 36 23q18 0 36 -10t18 -20q0 -9 -14 -23l-75 -71q-19 -19 -47 -19zM86 34v449q0 16 11 27.5t27 11.5t27.5 -11t11.5 -28v-56q61 101 177 101q92 0 145 -56.5t53 -150.5v-287q0 -16 -11 -27.5t-27 -11.5t-27.5 11.5t-11.5 27.5
v268q0 73 -37.5 114.5t-105.5 41.5q-67 0 -111 -45t-44 -117v-262q0 -17 -11 -28t-27 -11q-17 0 -28 11.5t-11 27.5z" />
    <glyph glyph-name="Ncommaaccent" unicode="&#x145;" horiz-adv-x="790" 
d="M388 -149q-40 7 -40 41v5q0 18 13 30.5t33 12.5q21 0 34 -14t13 -38v-5q0 -61 -32 -90q-13 -13 -34.5 -21.5t-37.5 -8.5q-19 0 -19 14q0 13 17 17q29 8 41.5 21t11.5 36zM99 34v630q0 16 11.5 27.5t27.5 11.5h11q22 0 40 -23l425 -542v528q0 16 11.5 27.5t27.5 11.5
t27 -11.5t11 -27.5v-632q0 -16 -10 -26.5t-26 -10.5h-4q-20 0 -41 24l-434 555v-542q0 -16 -11.5 -27.5t-27.5 -11.5t-27 11.5t-11 27.5z" />
    <glyph glyph-name="ncommaaccent" unicode="&#x146;" horiz-adv-x="616" 
d="M304 -154q-40 7 -40 41v5q0 18 13 30.5t33 12.5q21 0 34 -14t13 -38v-5q0 -61 -32 -90q-13 -13 -34.5 -21.5t-37.5 -8.5q-19 0 -19 14q0 13 17 17q29 8 41.5 21t11.5 36zM86 34v449q0 16 11 27.5t27 11.5t27.5 -11t11.5 -28v-56q61 101 177 101q92 0 145 -56.5t53 -150.5
v-287q0 -16 -11 -27.5t-27 -11.5t-27.5 11.5t-11.5 27.5v268q0 73 -37.5 114.5t-105.5 41.5q-67 0 -111 -45t-44 -117v-262q0 -17 -11 -28t-27 -11q-17 0 -28 11.5t-11 27.5z" />
    <glyph glyph-name="Ncaron" unicode="&#x147;" horiz-adv-x="790" 
d="M396 826l59 53q20 18 48 18q18 0 18 -14q0 -5 -7 -16l-70 -86q-18 -23 -40 -23h-18q-22 0 -40 23l-70 86q-7 11 -7 16q0 14 19 14q29 0 49 -18zM99 34v630q0 16 11.5 27.5t27.5 11.5h11q22 0 40 -23l425 -542v528q0 16 11.5 27.5t27.5 11.5t27 -11.5t11 -27.5v-632
q0 -16 -10 -26.5t-26 -10.5h-4q-20 0 -41 24l-434 555v-542q0 -16 -11.5 -27.5t-27.5 -11.5t-27 11.5t-11 27.5z" />
    <glyph glyph-name="ncaron" unicode="&#x148;" horiz-adv-x="616" 
d="M312 659l59 53q20 18 48 18q18 0 18 -14q0 -6 -7 -16l-70 -86q-18 -23 -40 -23h-18q-22 0 -40 23l-70 86q-7 10 -7 16q0 14 19 14q29 0 49 -18zM86 34v449q0 16 11 27.5t27 11.5t27.5 -11t11.5 -28v-56q61 101 177 101q92 0 145 -56.5t53 -150.5v-287q0 -16 -11 -27.5
t-27 -11.5t-27.5 11.5t-11.5 27.5v268q0 73 -37.5 114.5t-105.5 41.5q-67 0 -111 -45t-44 -117v-262q0 -17 -11 -28t-27 -11q-17 0 -28 11.5t-11 27.5z" />
    <glyph glyph-name="Omacron" unicode="&#x14c;" horiz-adv-x="850" 
d="M557 792h-264q-13 0 -22.5 9.5t-9.5 22.5t9.5 22.5t22.5 9.5h264q13 0 22.5 -9.5t9.5 -22.5t-9.5 -22.5t-22.5 -9.5zM424 -12q-156 0 -256 105.5t-100 254.5v2q0 149 101 255.5t257 106.5t256 -105.5t100 -254.5v-2q0 -149 -101 -255.5t-257 -106.5zM426 61
q119 0 196.5 83t77.5 204v2q0 121 -78.5 205t-197.5 84t-196.5 -83t-77.5 -204v-2q0 -121 78.5 -205t197.5 -84z" />
    <glyph glyph-name="omacron" unicode="&#x14d;" horiz-adv-x="646" 
d="M455 615h-264q-13 0 -22.5 9.5t-9.5 22.5t9.5 22.5t22.5 9.5h264q13 0 22.5 -9.5t9.5 -22.5t-9.5 -22.5t-22.5 -9.5zM322 -12q-115 0 -191.5 78.5t-76.5 189.5v2q0 111 77.5 190.5t192.5 79.5t192 -78.5t77 -189.5v-2q0 -111 -78 -190.5t-193 -79.5zM324 57
q83 0 136.5 58t53.5 141v2q0 84 -55.5 143t-136.5 59q-82 0 -135.5 -58.5t-53.5 -141.5v-2q0 -84 55 -142.5t136 -58.5z" />
    <glyph glyph-name="Obreve" unicode="&#x14e;" horiz-adv-x="850" 
d="M424 -12q-156 0 -256 105.5t-100 254.5v2q0 149 101 255.5t257 106.5t256 -105.5t100 -254.5v-2q0 -149 -101 -255.5t-257 -106.5zM426 61q119 0 196.5 83t77.5 204v2q0 121 -78.5 205t-197.5 84t-196.5 -83t-77.5 -204v-2q0 -121 78.5 -205t197.5 -84zM425 770
q-92 0 -132 73q-10 17 -10 35q0 13 7.5 21.5t20.5 8.5q18 0 28 -19q22 -55 86 -55t86 55q10 19 28 19q13 0 20.5 -8.5t7.5 -21.5q0 -18 -10 -35q-40 -73 -132 -73z" />
    <glyph glyph-name="obreve" unicode="&#x14f;" horiz-adv-x="646" 
d="M322 -12q-115 0 -191.5 78.5t-76.5 189.5v2q0 111 77.5 190.5t192.5 79.5t192 -78.5t77 -189.5v-2q0 -111 -78 -190.5t-193 -79.5zM324 57q83 0 136.5 58t53.5 141v2q0 84 -55.5 143t-136.5 59q-82 0 -135.5 -58.5t-53.5 -141.5v-2q0 -84 55 -142.5t136 -58.5zM323 593
q-92 0 -132 73q-10 17 -10 35q0 13 7.5 21.5t20.5 8.5q18 0 28 -19q22 -55 86 -55t86 55q10 19 28 19q13 0 20.5 -8.5t7.5 -21.5q0 -18 -10 -35q-40 -73 -132 -73z" />
    <glyph glyph-name="Ohungarumlaut" unicode="&#x150;" horiz-adv-x="850" 
d="M493 768q-20 0 -20 14q0 7 6 15l61 92q14 22 34 22q18 0 34.5 -9.5t16.5 -19.5t-12 -22l-74 -73q-20 -19 -46 -19zM329 768q-20 0 -20 14q0 7 6 15l61 92q14 22 34 22q18 0 34.5 -9.5t16.5 -19.5t-12 -22l-74 -73q-20 -19 -46 -19zM424 -12q-156 0 -256 105.5t-100 254.5
v2q0 149 101 255.5t257 106.5t256 -105.5t100 -254.5v-2q0 -149 -101 -255.5t-257 -106.5zM426 61q119 0 196.5 83t77.5 204v2q0 121 -78.5 205t-197.5 84t-196.5 -83t-77.5 -204v-2q0 -121 78.5 -205t197.5 -84z" />
    <glyph glyph-name="ohungarumlaut" unicode="&#x151;" horiz-adv-x="646" 
d="M392 591q-20 0 -20 14q0 7 6 15l61 92q14 22 34 22q18 0 34.5 -9.5t16.5 -19.5t-12 -22l-74 -73q-20 -19 -46 -19zM228 591q-20 0 -20 14q0 7 6 15l61 92q14 22 34 22q18 0 34.5 -9.5t16.5 -19.5t-12 -22l-74 -73q-20 -19 -46 -19zM322 -12q-115 0 -191.5 78.5
t-76.5 189.5v2q0 111 77.5 190.5t192.5 79.5t192 -78.5t77 -189.5v-2q0 -111 -78 -190.5t-193 -79.5zM324 57q83 0 136.5 58t53.5 141v2q0 84 -55.5 143t-136.5 59q-82 0 -135.5 -58.5t-53.5 -141.5v-2q0 -84 55 -142.5t136 -58.5z" />
    <glyph glyph-name="OE" unicode="&#x152;" horiz-adv-x="1131" 
d="M440 0q-164 0 -268 99t-104 249v2q0 150 104.5 250t267.5 100h594q15 0 25.5 -10.5t10.5 -25.5t-10.5 -25.5t-25.5 -10.5h-377v-239h332q15 0 25.5 -11t10.5 -25q0 -15 -10.5 -25.5t-25.5 -10.5h-332v-245h382q15 0 25.5 -10.5t10.5 -25.5t-10.5 -25.5t-25.5 -10.5h-599z
M440 73h138v554h-138q-130 0 -210 -78t-80 -197v-2q0 -119 80 -198t210 -79z" />
    <glyph glyph-name="oe" unicode="&#x153;" horiz-adv-x="1049" 
d="M589 287h333q-6 76 -48.5 126t-115.5 50q-68 0 -114.5 -49.5t-54.5 -126.5zM323 57q82 0 135 58t53 141v2q0 84 -55 143t-135 59q-82 0 -135 -58.5t-53 -141.5v-2q0 -84 55 -142.5t135 -58.5zM965 66q-83 -78 -195 -78q-72 0 -131.5 37t-91.5 102q-32 -63 -92.5 -101
t-135.5 -38q-112 0 -188.5 79t-76.5 189v2q0 111 77.5 190.5t190.5 79.5q74 0 134 -37.5t92 -99.5q30 63 86 100t126 37q110 0 175 -77t65 -185q0 -15 -11 -25.5t-26 -10.5h-373q7 -81 58.5 -128t122.5 -47q83 0 150 60q11 9 21 9q14 0 24 -9.5t10 -23.5t-11 -25z" />
    <glyph glyph-name="Racute" unicode="&#x154;" horiz-adv-x="723" 
d="M99 35v625q0 16 11.5 28t27.5 12h262q129 0 199 -70q54 -54 54 -138v-2q0 -83 -50.5 -135t-136.5 -68l174 -224q13 -15 13 -29q0 -16 -12.5 -27.5t-27.5 -11.5q-21 0 -37 21l-197 256h-201v-237q0 -17 -12 -28.5t-28 -11.5t-27.5 12t-11.5 28zM178 343h215q80 0 130 39
t50 105v2q0 65 -47.5 101.5t-131.5 36.5h-216v-284zM355 758q-19 0 -19 14q0 8 5 15l60 91q15 23 36 23q18 0 36 -10t18 -20q0 -9 -14 -23l-75 -71q-19 -19 -47 -19z" />
    <glyph glyph-name="racute" unicode="&#x155;" horiz-adv-x="405" 
d="M213 591q-19 0 -19 14q0 8 5 15l60 91q15 23 36 23q18 0 36 -10t18 -20q0 -9 -14 -23l-75 -71q-19 -19 -47 -19zM86 34v449q0 16 11 27.5t27 11.5t27.5 -11t11.5 -28v-97q28 63 78 100.5t100 37.5q17 0 27.5 -11t10.5 -28q0 -16 -9.5 -26.5t-24.5 -12.5q-80 -10 -131 -70
t-51 -166v-176q0 -16 -11 -27.5t-27 -11.5q-17 0 -28 11.5t-11 27.5z" />
    <glyph glyph-name="Rcommaaccent" unicode="&#x156;" horiz-adv-x="723" 
d="M99 35v625q0 16 11.5 28t27.5 12h262q129 0 199 -70q54 -54 54 -138v-2q0 -83 -50.5 -135t-136.5 -68l174 -224q13 -15 13 -29q0 -16 -12.5 -27.5t-27.5 -11.5q-21 0 -37 21l-197 256h-201v-237q0 -17 -12 -28.5t-28 -11.5t-27.5 12t-11.5 28zM178 343h215q80 0 130 39
t50 105v2q0 65 -47.5 101.5t-131.5 36.5h-216v-284zM351 -149q-40 7 -40 41v5q0 18 13 30.5t33 12.5q21 0 34 -14t13 -38v-5q0 -61 -32 -90q-13 -13 -34.5 -21.5t-37.5 -8.5q-19 0 -19 14q0 13 17 17q29 8 41.5 21t11.5 36z" />
    <glyph glyph-name="rcommaaccent" unicode="&#x157;" horiz-adv-x="405" 
d="M126 -154q-40 7 -40 41v5q0 18 13 30.5t33 12.5q21 0 34 -14t13 -38v-5q0 -61 -32 -90q-13 -13 -34.5 -21.5t-37.5 -8.5q-19 0 -19 14q0 13 17 17q29 8 41.5 21t11.5 36zM86 34v449q0 16 11 27.5t27 11.5t27.5 -11t11.5 -28v-97q28 63 78 100.5t100 37.5q17 0 27.5 -11
t10.5 -28q0 -16 -9.5 -26.5t-24.5 -12.5q-80 -10 -131 -70t-51 -166v-176q0 -16 -11 -27.5t-27 -11.5q-17 0 -28 11.5t-11 27.5z" />
    <glyph glyph-name="Rcaron" unicode="&#x158;" horiz-adv-x="723" 
d="M99 35v625q0 16 11.5 28t27.5 12h262q129 0 199 -70q54 -54 54 -138v-2q0 -83 -50.5 -135t-136.5 -68l174 -224q13 -15 13 -29q0 -16 -12.5 -27.5t-27.5 -11.5q-21 0 -37 21l-197 256h-201v-237q0 -17 -12 -28.5t-28 -11.5t-27.5 12t-11.5 28zM178 343h215q80 0 130 39
t50 105v2q0 65 -47.5 101.5t-131.5 36.5h-216v-284zM358 826l59 53q20 18 48 18q18 0 18 -14q0 -5 -7 -16l-70 -86q-18 -23 -40 -23h-18q-22 0 -40 23l-70 86q-7 11 -7 16q0 14 19 14q29 0 49 -18z" />
    <glyph glyph-name="rcaron" unicode="&#x159;" horiz-adv-x="405" 
d="M217 659l59 53q20 18 48 18q18 0 18 -14q0 -6 -7 -16l-70 -86q-18 -23 -40 -23h-18q-22 0 -40 23l-70 86q-7 10 -7 16q0 14 19 14q29 0 49 -18zM86 34v449q0 16 11 27.5t27 11.5t27.5 -11t11.5 -28v-97q28 63 78 100.5t100 37.5q17 0 27.5 -11t10.5 -28q0 -16 -9.5 -26.5
t-24.5 -12.5q-80 -10 -131 -70t-51 -166v-176q0 -16 -11 -27.5t-27 -11.5q-17 0 -28 11.5t-11 27.5z" />
    <glyph glyph-name="Sacute" unicode="&#x15a;" horiz-adv-x="640" 
d="M324 768q-19 0 -19 14q0 8 5 15l60 91q15 23 36 23q18 0 36 -10t18 -20q0 -9 -14 -23l-75 -71q-19 -19 -47 -19zM339 -10q-147 0 -265 94q-15 10 -15 30q0 16 11 27.5t27 11.5q15 0 24 -9q98 -83 221 -83q70 0 113 33.5t43 85.5v2q0 51 -38 81t-144 52
q-124 27 -179.5 72.5t-55.5 129.5v2q0 83 65 137t165 54q127 0 223 -69q17 -13 17 -32q0 -16 -11 -27t-27 -11q-13 0 -23 7q-84 61 -181 61q-67 0 -108 -32.5t-41 -80.5v-2q0 -52 39.5 -82t150.5 -54q119 -26 173.5 -72.5t54.5 -125.5v-2q0 -89 -67 -143.5t-172 -54.5z" />
    <glyph glyph-name="sacute" unicode="&#x15b;" horiz-adv-x="498" 
d="M250 591q-19 0 -19 14q0 8 5 15l60 91q15 23 36 23q18 0 36 -10t18 -20q0 -9 -14 -23l-75 -71q-19 -19 -47 -19zM257 -10q-108 0 -199 65q-14 10 -14 28q0 14 10 23.5t24 9.5q12 0 19 -6q81 -55 164 -55q47 0 77 22.5t30 59.5v2q0 35 -32.5 54t-96.5 37q-39 11 -62 20
t-52 25.5t-43 41.5t-14 59v2q0 66 49.5 107t126.5 41q84 0 165 -44q19 -11 19 -32q0 -14 -10 -23.5t-24 -9.5q-9 0 -17 4q-70 40 -135 40q-45 0 -72.5 -21t-27.5 -54v-2q0 -14 8 -26t18 -20t31.5 -17t34.5 -13t41 -13q29 -9 48.5 -16t44 -19.5t39 -27t24.5 -36.5t10 -49v-2
q0 -72 -52 -113.5t-132 -41.5z" />
    <glyph glyph-name="Scedilla" unicode="&#x15e;" horiz-adv-x="640" 
d="M578 188q0 -84 -60 -137.5t-156 -59.5l-54 -117q-12 -23 -31 -23q-15 0 -31.5 10.5t-16.5 21.5q0 7 6 18l62 91q-123 12 -223 92q-15 10 -15 30q0 16 11 27.5t27 11.5q15 0 24 -9q98 -83 221 -83q70 0 113 33.5t43 85.5v2q0 51 -38 81t-144 52q-124 27 -179.5 72.5
t-55.5 129.5v2q0 83 65 137t165 54q127 0 223 -69q17 -13 17 -32q0 -16 -11 -27t-27 -11q-13 0 -23 7q-84 61 -181 61q-67 0 -108 -32.5t-41 -80.5v-2q0 -52 39.5 -82t150.5 -54q119 -26 173.5 -72.5t54.5 -125.5v-2z" />
    <glyph glyph-name="scedilla" unicode="&#x15f;" horiz-adv-x="498" 
d="M441 145q0 -67 -46 -108t-118 -46l-54 -117q-11 -23 -31 -23q-15 0 -31.5 10.5t-16.5 21.5q0 7 6 18l63 92q-87 13 -155 62q-14 10 -14 28q0 14 10 23.5t24 9.5q12 0 19 -6q81 -55 164 -55q47 0 77 22.5t30 59.5v2q0 35 -32.5 54t-96.5 37q-39 11 -62 20t-52 25.5
t-43 41.5t-14 59v2q0 66 49.5 107t126.5 41q84 0 165 -44q19 -11 19 -32q0 -14 -10 -23.5t-24 -9.5q-9 0 -17 4q-70 40 -135 40q-45 0 -72.5 -21t-27.5 -54v-2q0 -14 8 -26t18 -20t31.5 -17t34.5 -13t41 -13q29 -9 48.5 -16t44 -19.5t39 -27t24.5 -36.5t10 -49v-2z" />
    <glyph glyph-name="Scaron" unicode="&#x160;" horiz-adv-x="640" 
d="M327 836l59 53q20 18 48 18q18 0 18 -14q0 -5 -7 -16l-70 -86q-18 -23 -40 -23h-18q-22 0 -40 23l-70 86q-7 11 -7 16q0 14 19 14q29 0 49 -18zM339 -10q-147 0 -265 94q-15 10 -15 30q0 16 11 27.5t27 11.5q15 0 24 -9q98 -83 221 -83q70 0 113 33.5t43 85.5v2
q0 51 -38 81t-144 52q-124 27 -179.5 72.5t-55.5 129.5v2q0 83 65 137t165 54q127 0 223 -69q17 -13 17 -32q0 -16 -11 -27t-27 -11q-13 0 -23 7q-84 61 -181 61q-67 0 -108 -32.5t-41 -80.5v-2q0 -52 39.5 -82t150.5 -54q119 -26 173.5 -72.5t54.5 -125.5v-2
q0 -89 -67 -143.5t-172 -54.5z" />
    <glyph glyph-name="scaron" unicode="&#x161;" horiz-adv-x="498" 
d="M253 659l59 53q20 18 48 18q18 0 18 -14q0 -6 -7 -16l-70 -86q-18 -23 -40 -23h-18q-22 0 -40 23l-70 86q-7 10 -7 16q0 14 19 14q29 0 49 -18zM257 -10q-108 0 -199 65q-14 10 -14 28q0 14 10 23.5t24 9.5q12 0 19 -6q81 -55 164 -55q47 0 77 22.5t30 59.5v2
q0 35 -32.5 54t-96.5 37q-39 11 -62 20t-52 25.5t-43 41.5t-14 59v2q0 66 49.5 107t126.5 41q84 0 165 -44q19 -11 19 -32q0 -14 -10 -23.5t-24 -9.5q-9 0 -17 4q-70 40 -135 40q-45 0 -72.5 -21t-27.5 -54v-2q0 -14 8 -26t18 -20t31.5 -17t34.5 -13t41 -13q29 -9 48.5 -16
t44 -19.5t39 -27t24.5 -36.5t10 -49v-2q0 -72 -52 -113.5t-132 -41.5z" />
    <glyph glyph-name="Tcommaaccent" unicode="&#x162;" horiz-adv-x="648" 
d="M317 -154q-40 7 -40 41v5q0 18 13 30.5t33 12.5q21 0 34 -14t13 -38v-5q0 -61 -32 -90q-13 -13 -34.5 -21.5t-37.5 -8.5q-19 0 -19 14q0 13 17 17q29 8 41.5 21t11.5 36zM284 35v592h-203q-15 0 -26 10.5t-11 25.5t11 26t26 11h486q15 0 26 -11t11 -26t-11 -25.5
t-26 -10.5h-203v-592q0 -17 -12 -28.5t-28 -11.5t-28 11.5t-12 28.5z" />
    <glyph glyph-name="tcommaaccent" unicode="&#x163;" horiz-adv-x="404" 
d="M219 -154q-40 7 -40 41v5q0 18 13 30.5t33 12.5q21 0 34 -14t13 -38v-5q0 -61 -32 -90q-13 -13 -34.5 -21.5t-37.5 -8.5q-19 0 -19 14q0 13 17 17q29 8 41.5 21t11.5 36zM259 -9q-67 0 -106.5 35.5t-39.5 110.5v312h-42q-13 0 -23.5 10.5t-10.5 23.5q0 14 10 24t24 10h42
v122q0 16 11 27.5t27 11.5t27.5 -11.5t11.5 -27.5v-122h134q14 0 24.5 -10t10.5 -24t-10.5 -24t-24.5 -10h-134v-302q0 -86 87 -86q16 0 31 3l16 4q14 0 23.5 -10t9.5 -23q0 -22 -22 -30q-34 -14 -76 -14z" />
    <glyph glyph-name="Tcaron" unicode="&#x164;" horiz-adv-x="648" 
d="M325 826l59 53q20 18 48 18q18 0 18 -14q0 -5 -7 -16l-70 -86q-18 -23 -40 -23h-18q-22 0 -40 23l-70 86q-7 11 -7 16q0 14 19 14q29 0 49 -18zM284 35v592h-203q-15 0 -26 10.5t-11 25.5t11 26t26 11h486q15 0 26 -11t11 -26t-11 -25.5t-26 -10.5h-203v-592
q0 -17 -12 -28.5t-28 -11.5t-28 11.5t-12 28.5z" />
    <glyph glyph-name="tcaron" unicode="&#x165;" horiz-adv-x="404" 
d="M295 602l9 116q3 32 34 32h15q22 0 22 -21q0 -9 -5 -24l-35 -106q-6 -20 -22 -20q-21 0 -18 23zM259 -9q-67 0 -106.5 35.5t-39.5 110.5v312h-42q-13 0 -23.5 10.5t-10.5 23.5q0 14 10 24t24 10h42v122q0 16 11 27.5t27 11.5t27.5 -11.5t11.5 -27.5v-122h134
q14 0 24.5 -10t10.5 -24t-10.5 -24t-24.5 -10h-134v-302q0 -86 87 -86q16 0 31 3l16 4q14 0 23.5 -10t9.5 -23q0 -22 -22 -30q-34 -14 -76 -14z" />
    <glyph glyph-name="Umacron" unicode="&#x16a;" horiz-adv-x="759" 
d="M379 -11q-133 0 -212 79.5t-79 224.5v372q0 16 11.5 28t27.5 12q17 0 28.5 -11.5t11.5 -28.5v-367q0 -112 57 -174t157 -62q99 0 155 59t56 172v372q0 17 12 28.5t28 11.5t27.5 -12t11.5 -28v-366q0 -150 -79 -230t-213 -80zM511 782h-264q-13 0 -22.5 9.5t-9.5 22.5
t9.5 22.5t22.5 9.5h264q13 0 22.5 -9.5t9.5 -22.5t-9.5 -22.5t-22.5 -9.5z" />
    <glyph glyph-name="umacron" unicode="&#x16b;" horiz-adv-x="616" 
d="M529 483v-449q0 -16 -11 -27.5t-27 -11.5t-27 11.5t-11 27.5v56q-63 -101 -177 -101q-92 0 -145 56.5t-53 150.5v287q0 17 11 28t27 11t27.5 -11.5t11.5 -27.5v-268q0 -73 37.5 -114.5t105.5 -41.5q67 0 111 45t44 117v262q0 17 11 28t27 11t27 -11.5t11 -27.5zM435 615
h-264q-13 0 -22.5 9.5t-9.5 22.5t9.5 22.5t22.5 9.5h264q13 0 22.5 -9.5t9.5 -22.5t-9.5 -22.5t-22.5 -9.5z" />
    <glyph glyph-name="Ubreve" unicode="&#x16c;" horiz-adv-x="759" 
d="M379 -11q-133 0 -212 79.5t-79 224.5v372q0 16 11.5 28t27.5 12q17 0 28.5 -11.5t11.5 -28.5v-367q0 -112 57 -174t157 -62q99 0 155 59t56 172v372q0 17 12 28.5t28 11.5t27.5 -12t11.5 -28v-366q0 -150 -79 -230t-213 -80zM379 758q-92 0 -132 73q-10 17 -10 35
q0 13 7.5 21.5t20.5 8.5q18 0 28 -19q22 -55 86 -55t86 55q10 19 28 19q13 0 20.5 -8.5t7.5 -21.5q0 -18 -10 -35q-40 -73 -132 -73z" />
    <glyph glyph-name="ubreve" unicode="&#x16d;" horiz-adv-x="616" 
d="M529 483v-449q0 -16 -11 -27.5t-27 -11.5t-27 11.5t-11 27.5v56q-63 -101 -177 -101q-92 0 -145 56.5t-53 150.5v287q0 17 11 28t27 11t27.5 -11.5t11.5 -27.5v-268q0 -73 37.5 -114.5t105.5 -41.5q67 0 111 45t44 117v262q0 17 11 28t27 11t27 -11.5t11 -27.5zM303 593
q-92 0 -132 73q-10 17 -10 35q0 13 7.5 21.5t20.5 8.5q18 0 28 -19q22 -55 86 -55t86 55q10 19 28 19q13 0 20.5 -8.5t7.5 -21.5q0 -18 -10 -35q-40 -73 -132 -73z" />
    <glyph glyph-name="Uring" unicode="&#x16e;" horiz-adv-x="759" 
d="M379 748q-42 0 -73 29.5t-31 69.5v2q0 40 31 69.5t73 29.5t73 -29.5t31 -69.5v-2q0 -40 -31 -69.5t-73 -29.5zM379 786q25 0 43.5 18t18.5 43v2q0 25 -18.5 43t-43.5 18t-43.5 -18t-18.5 -43v-2q0 -25 18.5 -43t43.5 -18zM379 -11q-133 0 -212 79.5t-79 224.5v372
q0 16 11.5 28t27.5 12q17 0 28.5 -11.5t11.5 -28.5v-367q0 -112 57 -174t157 -62q99 0 155 59t56 172v372q0 17 12 28.5t28 11.5t27.5 -12t11.5 -28v-366q0 -150 -79 -230t-213 -80z" />
    <glyph glyph-name="uring" unicode="&#x16f;" horiz-adv-x="616" 
d="M303 590q-42 0 -73 29.5t-31 69.5v2q0 40 31 69.5t73 29.5t73 -29.5t31 -69.5v-2q0 -40 -31 -69.5t-73 -29.5zM303 628q25 0 43.5 18t18.5 43v2q0 25 -18.5 43t-43.5 18t-43.5 -18t-18.5 -43v-2q0 -25 18.5 -43t43.5 -18zM529 483v-449q0 -16 -11 -27.5t-27 -11.5
t-27 11.5t-11 27.5v56q-63 -101 -177 -101q-92 0 -145 56.5t-53 150.5v287q0 17 11 28t27 11t27.5 -11.5t11.5 -27.5v-268q0 -73 37.5 -114.5t105.5 -41.5q67 0 111 45t44 117v262q0 17 11 28t27 11t27 -11.5t11 -27.5z" />
    <glyph glyph-name="Uhungarumlaut" unicode="&#x170;" horiz-adv-x="759" 
d="M379 -11q-133 0 -212 79.5t-79 224.5v372q0 16 11.5 28t27.5 12q17 0 28.5 -11.5t11.5 -28.5v-367q0 -112 57 -174t157 -62q99 0 155 59t56 172v372q0 17 12 28.5t28 11.5t27.5 -12t11.5 -28v-366q0 -150 -79 -230t-213 -80zM448 758q-20 0 -20 14q0 7 6 15l61 92
q14 22 34 22q18 0 34.5 -9.5t16.5 -19.5t-12 -22l-74 -73q-20 -19 -46 -19zM284 758q-20 0 -20 14q0 7 6 15l61 92q14 22 34 22q18 0 34.5 -9.5t16.5 -19.5t-12 -22l-74 -73q-20 -19 -46 -19z" />
    <glyph glyph-name="uhungarumlaut" unicode="&#x171;" horiz-adv-x="616" 
d="M529 483v-449q0 -16 -11 -27.5t-27 -11.5t-27 11.5t-11 27.5v56q-63 -101 -177 -101q-92 0 -145 56.5t-53 150.5v287q0 17 11 28t27 11t27.5 -11.5t11.5 -27.5v-268q0 -73 37.5 -114.5t105.5 -41.5q67 0 111 45t44 117v262q0 17 11 28t27 11t27 -11.5t11 -27.5zM372 591
q-20 0 -20 14q0 7 6 15l61 92q14 22 34 22q18 0 34.5 -9.5t16.5 -19.5t-12 -22l-74 -73q-20 -19 -46 -19zM208 591q-20 0 -20 14q0 7 6 15l61 92q14 22 34 22q18 0 34.5 -9.5t16.5 -19.5t-12 -22l-74 -73q-20 -19 -46 -19z" />
    <glyph glyph-name="Uogonek" unicode="&#x172;" horiz-adv-x="759" 
d="M304 -84q0 38 37 75q-117 11 -185 89t-68 213v372q0 16 11.5 28t27.5 12q17 0 28.5 -11.5t11.5 -28.5v-367q0 -112 57 -174t157 -62q99 0 155 59t56 172v372q0 17 12 28.5t28 11.5t27.5 -12t11.5 -28v-366q0 -142 -71 -221.5t-193 -87.5q-37 -33 -37 -63q0 -34 50 -44
q29 -6 29 -24q0 -23 -28 -23q-40 0 -78.5 18.5t-38.5 61.5z" />
    <glyph glyph-name="uogonek" unicode="&#x173;" horiz-adv-x="616" 
d="M529 483v-452q0 -19 -17 -35q-44 -38 -44 -69q0 -34 49 -44q29 -5 29 -24q0 -23 -27 -23q-23 0 -47 5.5t-47 24.5t-23 49q0 47 58 94q-7 6 -7 79v2q-63 -101 -177 -101q-92 0 -145 56.5t-53 150.5v287q0 17 11 28t27 11t27.5 -11.5t11.5 -27.5v-268q0 -73 37.5 -114.5
t105.5 -41.5q67 0 111 45t44 117v262q0 17 11 28t27 11t27 -11.5t11 -27.5z" />
    <glyph glyph-name="Wcircumflex" unicode="&#x174;" horiz-adv-x="1101" 
d="M549 829l-59 -52q-20 -19 -48 -19q-18 0 -18 14q0 5 7 17l70 86q19 22 40 22h18q21 0 40 -22l70 -86q7 -12 7 -17q0 -14 -19 -14q-29 0 -49 19zM281 25l-224 622q-4 12 -4 18q0 16 12.5 28t28.5 12q30 0 41 -33l193 -556l183 558q10 31 39 31h5q29 0 39 -31l183 -558
l194 558q10 31 38 31q16 0 28 -12t12 -27q0 -4 -5 -19l-224 -622q-12 -34 -41 -34h-6q-29 0 -41 34l-182 538l-181 -538q-12 -34 -41 -34h-6q-30 0 -41 34z" />
    <glyph glyph-name="wcircumflex" unicode="&#x175;" horiz-adv-x="858" 
d="M427 662l-59 -52q-20 -19 -48 -19q-18 0 -18 14q0 5 7 17l70 86q19 22 40 22h18q21 0 40 -22l70 -86q7 -12 7 -17q0 -14 -19 -14q-29 0 -49 19zM255 -8q-31 0 -43 35l-157 437q-5 15 -5 21q0 15 11 26t28 11q29 0 39 -32l130 -388l131 389q10 31 38 31h4q30 0 40 -31
l130 -389l132 390q9 30 37 30q16 0 27 -10.5t11 -25.5q0 -6 -5 -21l-158 -438q-12 -35 -42 -35h-3q-31 0 -42 35l-129 377l-130 -377q-11 -35 -42 -35h-2z" />
    <glyph glyph-name="Ycircumflex" unicode="&#x176;" horiz-adv-x="708" 
d="M314 35v240l-260 364q-9 14 -9 27q0 16 12 27.5t29 11.5q21 0 38 -24l231 -333l233 333q17 24 37 24q16 0 27.5 -11.5t11.5 -27.5q0 -11 -11 -29l-259 -360v-242q0 -17 -12 -28.5t-28 -11.5t-28 11.5t-12 28.5zM353 829l-59 -52q-20 -19 -48 -19q-18 0 -18 14q0 5 7 17
l70 86q19 22 40 22h18q21 0 40 -22l70 -86q7 -12 7 -17q0 -14 -19 -14q-29 0 -49 19z" />
    <glyph glyph-name="ycircumflex" unicode="&#x177;" horiz-adv-x="587" 
d="M161 -163q-42 0 -85 15q-24 10 -24 33q0 14 10 23.5t23 9.5q7 0 19 -4q27 -9 56 -9q35 0 58.5 21.5t45.5 70.5l4 8l-216 458q-5 12 -5 21q0 16 11.5 27t27.5 11q27 0 39 -30l180 -406l160 407q11 29 37 29q16 0 27 -11t11 -27q0 -7 -4 -19l-202 -482
q-33 -79 -73.5 -112.5t-99.5 -33.5zM295 662l-59 -52q-20 -19 -48 -19q-18 0 -18 14q0 5 7 17l70 86q19 22 40 22h18q21 0 40 -22l70 -86q7 -12 7 -17q0 -14 -19 -14q-29 0 -49 19z" />
    <glyph glyph-name="Ydieresis" unicode="&#x178;" horiz-adv-x="708" 
d="M314 35v240l-260 364q-9 14 -9 27q0 16 12 27.5t29 11.5q21 0 38 -24l231 -333l233 333q17 24 37 24q16 0 27.5 -11.5t11.5 -27.5q0 -11 -11 -29l-259 -360v-242q0 -17 -12 -28.5t-28 -11.5t-28 11.5t-12 28.5zM443 862q20 0 33.5 -13t13.5 -32v-15q0 -19 -13.5 -32
t-33.5 -13t-33.5 13t-13.5 32v15q0 19 13.5 32t33.5 13zM265 862q20 0 33.5 -13t13.5 -32v-15q0 -19 -13.5 -32t-33.5 -13t-33.5 13t-13.5 32v15q0 19 13.5 32t33.5 13z" />
    <glyph glyph-name="Zacute" unicode="&#x179;" horiz-adv-x="693" 
d="M352 758q-19 0 -19 14q0 8 5 15l60 91q15 23 36 23q18 0 36 -10t18 -20q0 -9 -14 -23l-75 -71q-19 -19 -47 -19zM104 0q-15 0 -26 10t-11 24v2q0 18 14 35l439 558h-406q-15 0 -25.5 10.5t-10.5 24.5q0 15 10.5 25.5t25.5 10.5h477q14 0 25 -10.5t11 -23.5v-2
q0 -18 -14 -35l-439 -558h422q15 0 25.5 -10.5t10.5 -24.5q0 -15 -10.5 -25.5t-25.5 -10.5h-492z" />
    <glyph glyph-name="zacute" unicode="&#x17a;" horiz-adv-x="556" 
d="M280 591q-19 0 -19 14q0 8 5 15l60 91q15 23 36 23q18 0 36 -10t18 -20q0 -9 -14 -23l-75 -71q-19 -19 -47 -19zM93 0q-15 0 -26 9t-11 22v2q0 18 16 35l327 384h-302q-14 0 -23.5 9.5t-9.5 22.5q0 14 10 23.5t23 9.5h369q16 0 26.5 -9t10.5 -22v-2q0 -18 -16 -35
l-327 -384h315q13 0 23 -9.5t10 -22.5t-10 -23t-23 -10h-382z" />
    <glyph glyph-name="Zdotaccent" unicode="&#x17b;" horiz-adv-x="693" 
d="M104 0q-15 0 -26 10t-11 24v2q0 18 14 35l439 558h-406q-15 0 -25.5 10.5t-10.5 24.5q0 15 10.5 25.5t25.5 10.5h477q14 0 25 -10.5t11 -23.5v-2q0 -18 -14 -35l-439 -558h422q15 0 25.5 -10.5t10.5 -24.5q0 -15 -10.5 -25.5t-25.5 -10.5h-492zM402 817v-14
q0 -20 -14 -33t-34 -13t-34 13t-14 33v14q0 20 13.5 32.5t34.5 12.5t34.5 -12.5t13.5 -32.5z" />
    <glyph glyph-name="zdotaccent" unicode="&#x17c;" horiz-adv-x="556" 
d="M93 0q-15 0 -26 9t-11 22v2q0 18 16 35l327 384h-302q-14 0 -23.5 9.5t-9.5 22.5q0 14 10 23.5t23 9.5h369q16 0 26.5 -9t10.5 -22v-2q0 -18 -16 -35l-327 -384h315q13 0 23 -9.5t10 -22.5t-10 -23t-23 -10h-382zM330 650v-14q0 -20 -14 -33t-34 -13t-34 13t-14 33v14
q0 20 13.5 32.5t34.5 12.5t34.5 -12.5t13.5 -32.5z" />
    <glyph glyph-name="Zcaron" unicode="&#x17d;" horiz-adv-x="693" 
d="M355 826l59 53q20 18 48 18q18 0 18 -14q0 -5 -7 -16l-70 -86q-18 -23 -40 -23h-18q-22 0 -40 23l-70 86q-7 11 -7 16q0 14 19 14q29 0 49 -18zM104 0q-15 0 -26 10t-11 24v2q0 18 14 35l439 558h-406q-15 0 -25.5 10.5t-10.5 24.5q0 15 10.5 25.5t25.5 10.5h477
q14 0 25 -10.5t11 -23.5v-2q0 -18 -14 -35l-439 -558h422q15 0 25.5 -10.5t10.5 -24.5q0 -15 -10.5 -25.5t-25.5 -10.5h-492z" />
    <glyph glyph-name="zcaron" unicode="&#x17e;" horiz-adv-x="556" 
d="M283 659l59 53q20 18 48 18q18 0 18 -14q0 -6 -7 -16l-70 -86q-18 -23 -40 -23h-18q-22 0 -40 23l-70 86q-7 10 -7 16q0 14 19 14q29 0 49 -18zM93 0q-15 0 -26 9t-11 22v2q0 18 16 35l327 384h-302q-14 0 -23.5 9.5t-9.5 22.5q0 14 10 23.5t23 9.5h369q16 0 26.5 -9
t10.5 -22v-2q0 -18 -16 -35l-327 -384h315q13 0 23 -9.5t10 -22.5t-10 -23t-23 -10h-382z" />
    <glyph glyph-name="florin" unicode="&#x192;" horiz-adv-x="514" 
d="M99 -6q-23 0 -36 9t-13 24q0 31 39 33q61 2 74 76l44 237h-69q-14 0 -24 10t-10 23q0 14 10 24t24 10h80l23 120q14 75 51.5 110.5t104.5 35.5q32 0 56 -5q13 -2 21.5 -11.5t8.5 -22.5t-9.5 -23t-23.5 -10q-1 0 -15.5 2.5t-25.5 2.5q-39 0 -60 -21t-30 -70l-20 -108h115
q14 0 24 -10t10 -24q0 -13 -10 -23t-24 -10h-127l-45 -245q-26 -134 -143 -134z" />
    <glyph glyph-name="Aringacute" unicode="&#x1fa;" horiz-adv-x="790" 
d="M393 897q-19 0 -19 14q0 8 5 15l60 91q15 23 36 23q18 0 36 -10t18 -20q0 -9 -14 -23l-75 -71q-19 -19 -47 -19zM444 680l288 -630q3 -9 3 -16q0 -15 -11.5 -27t-27.5 -12q-24 0 -38 29l-72 161h-385l-73 -163q-11 -27 -37 -27q-15 0 -26 11t-11 26q0 5 4 17l288 631
q-25 12 -40 35.5t-15 50.5v2q0 40 31 69.5t73 29.5t73 -29.5t31 -69.5v-2q0 -27 -15 -50.5t-40 -35.5zM395 705q25 0 43.5 18t18.5 43v2q0 25 -18.5 43t-43.5 18t-43.5 -18t-18.5 -43v-2q0 -25 18.5 -43t43.5 -18zM232 257h322l-160 358z" />
    <glyph glyph-name="aringacute" unicode="&#x1fb;" horiz-adv-x="579" 
d="M240 -11q-78 0 -135.5 43t-57.5 118v2q0 80 60 123.5t161 43.5q81 0 159 -22v18q0 69 -40 105t-114 36q-69 0 -134 -29q-7 -3 -14 -3q-14 0 -24 10t-10 23q0 24 21 32q81 35 169 35q110 0 167 -57q53 -53 53 -151v-283q0 -16 -10.5 -27t-26.5 -11t-26.5 10.5t-10.5 25.5
v47q-68 -89 -187 -89zM255 50q72 0 122.5 39.5t50.5 100.5v50q-76 22 -152 22q-72 0 -111.5 -29t-39.5 -78v-2q0 -47 37.5 -75t92.5 -28zM289 593q-42 0 -73 29.5t-31 69.5v2q0 40 31 69.5t73 29.5t73 -29.5t31 -69.5v-2q0 -40 -31 -69.5t-73 -29.5zM289 631q25 0 43.5 18
t18.5 43v2q0 25 -18.5 43t-43.5 18t-43.5 -18t-18.5 -43v-2q0 -25 18.5 -43t43.5 -18zM287 827q-19 0 -19 14q0 8 5 15l60 91q15 23 36 23q18 0 36 -10t18 -20q0 -9 -14 -23l-75 -71q-19 -19 -47 -19z" />
    <glyph glyph-name="AEacute" unicode="&#x1fc;" horiz-adv-x="1045" 
d="M627 758q-19 0 -19 14q0 8 5 15l60 91q15 23 36 23q18 0 36 -10t18 -20q0 -9 -14 -23l-75 -71q-19 -19 -47 -19zM34 29q0 6 7 22l372 623q16 26 44 26h491q15 0 25.5 -10.5t10.5 -25.5t-10.5 -25.5t-25.5 -10.5h-377v-239h332q15 0 25.5 -11t10.5 -25q0 -15 -10.5 -25.5
t-25.5 -10.5h-332v-245h382q15 0 25.5 -10.5t10.5 -25.5t-10.5 -25.5t-25.5 -10.5h-422q-17 0 -28.5 12t-11.5 28v145h-286l-101 -169q-10 -21 -34 -21q-14 0 -25 10t-11 24zM247 257h244v373h-23z" />
    <glyph glyph-name="aeacute" unicode="&#x1fd;" horiz-adv-x="953" 
d="M473 591q-19 0 -19 14q0 8 5 15l60 91q15 23 36 23q18 0 36 -10t18 -20q0 -9 -14 -23l-75 -71q-19 -19 -47 -19zM493 287h333q-6 76 -48.5 126t-115.5 50q-68 0 -114.5 -49.5t-54.5 -126.5zM251 51q104 0 186 92q-18 45 -21 98q-80 21 -144 21q-70 0 -108.5 -29
t-38.5 -78v-2q0 -47 36 -74.5t90 -27.5zM869 66q-83 -78 -196 -78q-62 0 -116 27.5t-89 76.5q-99 -103 -226 -103q-80 0 -137.5 42.5t-57.5 118.5v2q0 80 59.5 123.5t157.5 43.5q75 0 153 -22v18q0 69 -38.5 105t-110.5 36q-65 0 -129 -29q-7 -3 -14 -3q-14 0 -24 10t-10 23
q0 24 21 32q78 35 164 35q151 0 190 -111q31 53 83 84t115 31q110 0 175 -77t65 -185q0 -15 -11 -25.5t-26 -10.5h-373q7 -81 58.5 -128t122.5 -47q83 0 150 60q11 9 21 9q14 0 24 -9.5t10 -23.5t-11 -25z" />
    <glyph glyph-name="Oslashacute" unicode="&#x1fe;" horiz-adv-x="850" 
d="M424 -12q-129 0 -224 76l-60 -62q-12 -12 -25 -12t-21.5 8.5t-8.5 20.5q0 14 10 24l60 64q-87 99 -87 241v2q0 149 101 255.5t257 106.5q129 0 224 -77l60 63q12 12 25 12t21.5 -8.5t8.5 -20.5q0 -14 -10 -24l-61 -65q88 -101 88 -240v-2q0 -149 -101 -255.5t-257 -106.5
zM150 350q0 -106 61 -184l387 411q-76 63 -174 63q-118 0 -196 -83.5t-78 -204.5v-2zM426 60q118 0 196 83.5t78 204.5v2q0 106 -61 184l-387 -412q73 -62 174 -62zM422 768q-19 0 -19 14q0 8 5 15l60 91q15 23 36 23q18 0 36 -10t18 -20q0 -9 -14 -23l-75 -71
q-19 -19 -47 -19z" />
    <glyph glyph-name="oslashacute" unicode="&#x1ff;" horiz-adv-x="646" 
d="M322 -12q-93 0 -166 55l-40 -41q-12 -12 -25 -12q-11 0 -19.5 7.5t-8.5 18.5q0 14 11 23l42 43q-62 73 -62 174v2q0 111 77.5 190.5t192.5 79.5q92 0 165 -55l41 43q12 12 26 12q11 0 19 -7.5t8 -18.5q0 -13 -10 -23l-43 -45q63 -74 63 -174v-2q0 -111 -78 -190.5
t-193 -79.5zM132 258q0 -69 37 -121l272 282q-52 42 -119 42q-83 0 -136.5 -58.5t-53.5 -142.5v-2zM324 56q83 0 137 58.5t54 141.5v2q0 67 -38 121l-271 -281q52 -42 118 -42zM321 591q-19 0 -19 14q0 8 5 15l60 91q15 23 36 23q18 0 36 -10t18 -20q0 -9 -14 -23l-75 -71
q-19 -19 -47 -19z" />
    <glyph glyph-name="Scommaaccent" unicode="&#x218;" horiz-adv-x="640" 
d="M320 -155q-40 7 -40 41v5q0 18 13 30.5t33 12.5q21 0 34 -14t13 -38v-5q0 -61 -32 -90q-13 -13 -34.5 -21.5t-37.5 -8.5q-19 0 -19 14q0 13 17 17q29 8 41.5 21t11.5 36zM339 -10q-147 0 -265 94q-15 10 -15 30q0 16 11 27.5t27 11.5q15 0 24 -9q98 -83 221 -83
q70 0 113 33.5t43 85.5v2q0 51 -38 81t-144 52q-124 27 -179.5 72.5t-55.5 129.5v2q0 83 65 137t165 54q127 0 223 -69q17 -13 17 -32q0 -16 -11 -27t-27 -11q-13 0 -23 7q-84 61 -181 61q-67 0 -108 -32.5t-41 -80.5v-2q0 -52 39.5 -82t150.5 -54q119 -26 173.5 -72.5
t54.5 -125.5v-2q0 -89 -67 -143.5t-172 -54.5z" />
    <glyph glyph-name="scommaaccent" unicode="&#x219;" horiz-adv-x="498" 
d="M245 -154q-40 7 -40 41v5q0 18 13 30.5t33 12.5q21 0 34 -14t13 -38v-5q0 -61 -32 -90q-13 -13 -34.5 -21.5t-37.5 -8.5q-19 0 -19 14q0 13 17 17q29 8 41.5 21t11.5 36zM257 -10q-108 0 -199 65q-14 10 -14 28q0 14 10 23.5t24 9.5q12 0 19 -6q81 -55 164 -55
q47 0 77 22.5t30 59.5v2q0 35 -32.5 54t-96.5 37q-39 11 -62 20t-52 25.5t-43 41.5t-14 59v2q0 66 49.5 107t126.5 41q84 0 165 -44q19 -11 19 -32q0 -14 -10 -23.5t-24 -9.5q-9 0 -17 4q-70 40 -135 40q-45 0 -72.5 -21t-27.5 -54v-2q0 -14 8 -26t18 -20t31.5 -17t34.5 -13
t41 -13q29 -9 48.5 -16t44 -19.5t39 -27t24.5 -36.5t10 -49v-2q0 -72 -52 -113.5t-132 -41.5z" />
    <glyph glyph-name="schwa" unicode="&#x259;" horiz-adv-x="592" 
d="M459 230h-333q6 -76 49 -126t116 -50q67 0 113.5 50t54.5 126zM84 451q81 78 195 78q109 0 183.5 -75.5t74.5 -193.5v-2q0 -113 -71 -191t-177 -78q-110 0 -175 77t-65 185q0 15 10.5 25.5t25.5 10.5h374q-8 82 -59.5 128.5t-122.5 46.5q-84 0 -149 -60q-11 -9 -22 -9
q-14 0 -24 9.5t-10 23.5t12 25z" />
    <glyph glyph-name="circumflex" unicode="&#x2c6;" horiz-adv-x="500" 
d="M249 662l-59 -52q-20 -19 -48 -19q-18 0 -18 14q0 5 7 17l70 86q19 22 40 22h18q21 0 40 -22l70 -86q7 -12 7 -17q0 -14 -19 -14q-29 0 -49 19z" />
    <glyph glyph-name="caron" unicode="&#x2c7;" horiz-adv-x="500" 
d="M251 659l59 53q20 18 48 18q18 0 18 -14q0 -6 -7 -16l-70 -86q-18 -23 -40 -23h-18q-22 0 -40 23l-70 86q-7 10 -7 16q0 14 19 14q29 0 49 -18z" />
    <glyph glyph-name="breve" unicode="&#x2d8;" horiz-adv-x="500" 
d="M250 593q-92 0 -132 73q-10 17 -10 35q0 13 7.5 21.5t20.5 8.5q18 0 28 -19q22 -55 86 -55t86 55q10 19 28 19q13 0 20.5 -8.5t7.5 -21.5q0 -18 -10 -35q-40 -73 -132 -73z" />
    <glyph glyph-name="dotaccent" unicode="&#x2d9;" horiz-adv-x="500" 
d="M298 650v-14q0 -20 -14 -33t-34 -13t-34 13t-14 33v14q0 20 13.5 32.5t34.5 12.5t34.5 -12.5t13.5 -32.5z" />
    <glyph glyph-name="ring" unicode="&#x2da;" horiz-adv-x="500" 
d="M250 593q-42 0 -73 29.5t-31 69.5v2q0 40 31 69.5t73 29.5t73 -29.5t31 -69.5v-2q0 -40 -31 -69.5t-73 -29.5zM250 631q25 0 43.5 18t18.5 43v2q0 25 -18.5 43t-43.5 18t-43.5 -18t-18.5 -43v-2q0 -25 18.5 -43t43.5 -18z" />
    <glyph glyph-name="ogonek" unicode="&#x2db;" horiz-adv-x="500" 
d="M190 -84q0 45 65 100l53 -13q-52 -43 -52 -76q0 -34 50 -44q29 -6 29 -24q0 -23 -28 -23q-40 0 -78.5 18.5t-38.5 61.5z" />
    <glyph glyph-name="tilde" unicode="&#x2dc;" horiz-adv-x="500" 
d="M139 600q-9 -17 -23 -17q-11 0 -18.5 7t-7.5 17q0 4 3 16q15 43 35.5 62t52.5 19q24 0 71 -20t63 -20q17 0 27 8t19 27q9 17 23 17q11 0 18.5 -7t7.5 -17q0 -1 -3 -16q-15 -43 -35.5 -62t-52.5 -19q-24 0 -71 20t-63 20q-17 0 -27 -8t-19 -27z" />
    <glyph glyph-name="hungarumlaut" unicode="&#x2dd;" horiz-adv-x="500" 
d="M278 591q-20 0 -20 14q0 7 6 15l61 92q14 22 34 22q18 0 34.5 -9.5t16.5 -19.5t-12 -22l-74 -73q-20 -19 -46 -19zM114 591q-20 0 -20 14q0 7 6 15l61 92q14 22 34 22q18 0 34.5 -9.5t16.5 -19.5t-12 -22l-74 -73q-20 -19 -46 -19z" />
    <glyph glyph-name="commaaccent" unicode="&#x326;" horiz-adv-x="500" 
d="M244 -154q-40 7 -40 41v5q0 18 13 30.5t33 12.5q21 0 34 -14t13 -38v-5q0 -61 -32 -90q-13 -13 -34.5 -21.5t-37.5 -8.5q-19 0 -19 14q0 13 17 17q29 8 41.5 21t11.5 36z" />
    <glyph glyph-name="Wgrave" unicode="&#x1e80;" horiz-adv-x="1101" 
d="M281 25l-224 622q-4 12 -4 18q0 16 12.5 28t28.5 12q30 0 41 -33l193 -556l183 558q10 31 39 31h5q29 0 39 -31l183 -558l194 558q10 31 38 31q16 0 28 -12t12 -27q0 -4 -5 -19l-224 -622q-12 -34 -41 -34h-6q-29 0 -41 34l-182 538l-181 -538q-12 -34 -41 -34h-6
q-30 0 -41 34zM552 758q-28 0 -47 19l-75 71q-14 14 -14 23q0 10 18 20t36 10q21 0 36 -23l60 -91q5 -7 5 -15q0 -14 -19 -14z" />
    <glyph glyph-name="wgrave" unicode="&#x1e81;" horiz-adv-x="858" 
d="M255 -8q-31 0 -43 35l-157 437q-5 15 -5 21q0 15 11 26t28 11q29 0 39 -32l130 -388l131 389q10 31 38 31h4q30 0 40 -31l130 -389l132 390q9 30 37 30q16 0 27 -10.5t11 -25.5q0 -6 -5 -21l-158 -438q-12 -35 -42 -35h-3q-31 0 -42 35l-129 377l-130 -377
q-11 -35 -42 -35h-2zM430 591q-28 0 -47 19l-75 71q-14 14 -14 23q0 10 18 20t36 10q21 0 36 -23l60 -91q5 -7 5 -15q0 -14 -19 -14z" />
    <glyph glyph-name="Wacute" unicode="&#x1e82;" horiz-adv-x="1101" 
d="M548 758q-19 0 -19 14q0 8 5 15l60 91q15 23 36 23q18 0 36 -10t18 -20q0 -9 -14 -23l-75 -71q-19 -19 -47 -19zM281 25l-224 622q-4 12 -4 18q0 16 12.5 28t28.5 12q30 0 41 -33l193 -556l183 558q10 31 39 31h5q29 0 39 -31l183 -558l194 558q10 31 38 31q16 0 28 -12
t12 -27q0 -4 -5 -19l-224 -622q-12 -34 -41 -34h-6q-29 0 -41 34l-182 538l-181 -538q-12 -34 -41 -34h-6q-30 0 -41 34z" />
    <glyph glyph-name="wacute" unicode="&#x1e83;" horiz-adv-x="858" 
d="M426 591q-19 0 -19 14q0 8 5 15l60 91q15 23 36 23q18 0 36 -10t18 -20q0 -9 -14 -23l-75 -71q-19 -19 -47 -19zM255 -8q-31 0 -43 35l-157 437q-5 15 -5 21q0 15 11 26t28 11q29 0 39 -32l130 -388l131 389q10 31 38 31h4q30 0 40 -31l130 -389l132 390q9 30 37 30
q16 0 27 -10.5t11 -25.5q0 -6 -5 -21l-158 -438q-12 -35 -42 -35h-3q-31 0 -42 35l-129 377l-130 -377q-11 -35 -42 -35h-2z" />
    <glyph glyph-name="Wdieresis" unicode="&#x1e84;" horiz-adv-x="1101" 
d="M639 862q20 0 33.5 -13t13.5 -32v-15q0 -19 -13.5 -32t-33.5 -13t-33.5 13t-13.5 32v15q0 19 13.5 32t33.5 13zM461 862q20 0 33.5 -13t13.5 -32v-15q0 -19 -13.5 -32t-33.5 -13t-33.5 13t-13.5 32v15q0 19 13.5 32t33.5 13zM281 25l-224 622q-4 12 -4 18q0 16 12.5 28
t28.5 12q30 0 41 -33l193 -556l183 558q10 31 39 31h5q29 0 39 -31l183 -558l194 558q10 31 38 31q16 0 28 -12t12 -27q0 -4 -5 -19l-224 -622q-12 -34 -41 -34h-6q-29 0 -41 34l-182 538l-181 -538q-12 -34 -41 -34h-6q-30 0 -41 34z" />
    <glyph glyph-name="wdieresis" unicode="&#x1e85;" horiz-adv-x="858" 
d="M517 695q20 0 33.5 -13t13.5 -32v-15q0 -19 -13.5 -32t-33.5 -13t-33.5 13t-13.5 32v15q0 19 13.5 32t33.5 13zM339 695q20 0 33.5 -13t13.5 -32v-15q0 -19 -13.5 -32t-33.5 -13t-33.5 13t-13.5 32v15q0 19 13.5 32t33.5 13zM255 -8q-31 0 -43 35l-157 437q-5 15 -5 21
q0 15 11 26t28 11q29 0 39 -32l130 -388l131 389q10 31 38 31h4q30 0 40 -31l130 -389l132 390q9 30 37 30q16 0 27 -10.5t11 -25.5q0 -6 -5 -21l-158 -438q-12 -35 -42 -35h-3q-31 0 -42 35l-129 377l-130 -377q-11 -35 -42 -35h-2z" />
    <glyph glyph-name="Ygrave" unicode="&#x1ef2;" horiz-adv-x="708" 
d="M314 35v240l-260 364q-9 14 -9 27q0 16 12 27.5t29 11.5q21 0 38 -24l231 -333l233 333q17 24 37 24q16 0 27.5 -11.5t11.5 -27.5q0 -11 -11 -29l-259 -360v-242q0 -17 -12 -28.5t-28 -11.5t-28 11.5t-12 28.5zM356 758q-28 0 -47 19l-75 71q-14 14 -14 23q0 10 18 20
t36 10q21 0 36 -23l60 -91q5 -7 5 -15q0 -14 -19 -14z" />
    <glyph glyph-name="ygrave" unicode="&#x1ef3;" horiz-adv-x="587" 
d="M161 -163q-42 0 -85 15q-24 10 -24 33q0 14 10 23.5t23 9.5q7 0 19 -4q27 -9 56 -9q35 0 58.5 21.5t45.5 70.5l4 8l-216 458q-5 12 -5 21q0 16 11.5 27t27.5 11q27 0 39 -30l180 -406l160 407q11 29 37 29q16 0 27 -11t11 -27q0 -7 -4 -19l-202 -482
q-33 -79 -73.5 -112.5t-99.5 -33.5zM298 591q-28 0 -47 19l-75 71q-14 14 -14 23q0 10 18 20t36 10q21 0 36 -23l60 -91q5 -7 5 -15q0 -14 -19 -14z" />
    <glyph glyph-name="enspace" unicode="&#x2002;" horiz-adv-x="500" 
 />
    <glyph glyph-name="emspace" unicode="&#x2003;" horiz-adv-x="1000" 
 />
    <glyph glyph-name="threeperemspace" unicode="&#x2004;" horiz-adv-x="333" 
 />
    <glyph glyph-name="fourperemspace" unicode="&#x2005;" horiz-adv-x="250" 
 />
    <glyph glyph-name="thinspace" unicode="&#x2009;" horiz-adv-x="133" 
 />
    <glyph glyph-name="hairspace" unicode="&#x200a;" horiz-adv-x="75" 
 />
    <glyph glyph-name="endash" unicode="&#x2013;" horiz-adv-x="528" 
d="M98 262q-16 0 -27 11.5t-11 27.5q0 15 11 26.5t27 11.5h332q16 0 27 -11.5t11 -26.5q0 -16 -11 -27.5t-27 -11.5h-332z" />
    <glyph glyph-name="emdash" unicode="&#x2014;" horiz-adv-x="898" 
d="M98 262q-16 0 -27 11.5t-11 27.5q0 15 11 26.5t27 11.5h702q16 0 27 -11.5t11 -26.5q0 -16 -11 -27.5t-27 -11.5h-702z" />
    <glyph glyph-name="quoteleft" unicode="&#x2018;" horiz-adv-x="245" 
d="M196 683q0 -13 -14 -18q-59 -27 -55 -82q16 -4 27 -16.5t11 -31.5v-15q0 -20 -13.5 -33.5t-32.5 -13.5q-22 0 -35 15.5t-13 39.5v19q0 85 35 120q15 15 35.5 26t32.5 11q22 0 22 -21z" />
    <glyph glyph-name="quoteright" unicode="&#x2019;" horiz-adv-x="245" 
d="M50 494q0 14 13 19q59 26 56 82q-39 9 -39 47v16q0 20 13.5 33.5t32.5 13.5q22 0 35.5 -15.5t13.5 -39.5v-19q0 -84 -36 -120q-15 -16 -35 -26.5t-33 -10.5q-21 0 -21 20z" />
    <glyph glyph-name="quotesinglbase" unicode="&#x201a;" horiz-adv-x="245" 
d="M45 -100q0 13 13 18q59 26 56 82q-39 9 -39 48v16q0 20 13 33t33 13q22 0 35.5 -15t13.5 -40v-19q0 -84 -36 -120q-15 -15 -35.5 -25.5t-32.5 -10.5q-21 0 -21 20z" />
    <glyph glyph-name="quotedblleft" unicode="&#x201c;" horiz-adv-x="445" 
d="M396 683q0 -13 -14 -18q-59 -27 -55 -82q16 -4 27 -16.5t11 -31.5v-15q0 -20 -13.5 -33.5t-32.5 -13.5q-22 0 -35 15.5t-13 39.5v19q0 85 35 120q15 15 35.5 26t32.5 11q22 0 22 -21zM196 683q0 -13 -14 -18q-59 -27 -55 -82q16 -4 27 -16.5t11 -31.5v-15
q0 -20 -13.5 -33.5t-32.5 -13.5q-22 0 -35 15.5t-13 39.5v19q0 85 35 120q15 15 35.5 26t32.5 11q22 0 22 -21z" />
    <glyph glyph-name="quotedblright" unicode="&#x201d;" horiz-adv-x="445" 
d="M50 494q0 14 13 19q59 26 56 82q-39 9 -39 47v16q0 20 13.5 33.5t32.5 13.5q22 0 35.5 -15.5t13.5 -39.5v-19q0 -84 -36 -120q-15 -16 -35 -26.5t-33 -10.5q-21 0 -21 20zM250 494q0 14 13 19q59 26 56 82q-39 9 -39 47v16q0 20 13.5 33.5t32.5 13.5q22 0 35.5 -15.5
t13.5 -39.5v-19q0 -84 -36 -120q-15 -16 -35 -26.5t-33 -10.5q-21 0 -21 20z" />
    <glyph glyph-name="quotedblbase" unicode="&#x201e;" horiz-adv-x="445" 
d="M45 -100q0 13 13 18q59 26 56 82q-39 9 -39 48v16q0 20 13 33t33 13q22 0 35.5 -15t13.5 -40v-19q0 -84 -36 -120q-15 -15 -35.5 -25.5t-32.5 -10.5q-21 0 -21 20zM245 -100q0 13 13 18q59 26 56 82q-39 9 -39 48v16q0 19 13.5 32.5t32.5 13.5q22 0 35.5 -15.5
t13.5 -39.5v-19q0 -84 -36 -120q-15 -15 -35.5 -25.5t-32.5 -10.5q-21 0 -21 20z" />
    <glyph glyph-name="dagger" unicode="&#x2020;" horiz-adv-x="410" 
d="M178 262l6 258l-100 -7q-11 -1 -19.5 7t-8.5 19t8.5 19.5t19.5 7.5l99 -7l-7 114q-1 13 7.5 22.5t21.5 9.5t21.5 -9.5t7.5 -22.5l-7 -114l99 7q11 1 19.5 -7.5t8.5 -19.5t-8.5 -19t-19.5 -7l-100 7l6 -258q0 -13 -8 -21t-19 -8t-19 8t-8 21z" />
    <glyph glyph-name="daggerdbl" unicode="&#x2021;" horiz-adv-x="430" 
d="M186 27l7 114l-99 -7q-11 -1 -19.5 7.5t-8.5 19.5t8.5 19t19.5 7l100 -7l-6 170l6 170l-100 -7q-11 -1 -19.5 7t-8.5 19t8.5 19.5t19.5 7.5l99 -7l-7 114q-1 13 7.5 22.5t21.5 9.5t21.5 -9.5t7.5 -22.5l-7 -114l99 7q11 1 19.5 -7.5t8.5 -19.5t-8.5 -19t-19.5 -7l-100 7
l6 -170l-6 -170l100 7q11 1 19.5 -7t8.5 -19t-8.5 -19.5t-19.5 -7.5l-99 7l7 -114q1 -13 -7.5 -22.5t-21.5 -9.5t-21.5 9.5t-7.5 22.5z" />
    <glyph glyph-name="bullet" unicode="&#x2022;" horiz-adv-x="478" 
d="M239 221q-54 0 -92.5 38t-38.5 92v2q0 54 39 92t92 38q52 0 91.5 -38.5t39.5 -91.5v-2q0 -54 -38.5 -92t-92.5 -38z" />
    <glyph glyph-name="ellipsis" unicode="&#x2026;" horiz-adv-x="723" 
d="M556 63q0 20 13 33.5t33 13.5t33 -13.5t13 -33.5v-20q0 -20 -13 -34t-33 -14t-33 14t-13 34v20zM315 63q0 20 13 33.5t34 13.5q20 0 33 -13.5t13 -33.5v-20q0 -20 -13 -34t-33 -14q-21 0 -34 13.5t-13 34.5v20zM75 63q0 20 13 33.5t33 13.5q21 0 34 -13.5t13 -33.5v-20
q0 -21 -13 -34.5t-34 -13.5q-20 0 -33 14t-13 34v20z" />
    <glyph glyph-name="perthousand" unicode="&#x2030;" horiz-adv-x="1211" 
d="M210 350q-69 0 -113.5 52t-44.5 125v2q0 73 45 126t115 53q69 0 113 -52t44 -125v-2q0 -73 -45 -126t-114 -53zM149 23q0 10 6 19l476 649q11 14 25 14q12 0 20.5 -8.5t8.5 -19.5q0 -10 -6 -19l-476 -649q-10 -14 -25 -14q-12 0 -20.5 8.5t-8.5 19.5zM999 -8
q-69 0 -113 52t-44 125v2q0 73 45 126t114 53t113.5 -52t44.5 -125v-2q0 -73 -45 -126t-115 -53zM622 -8q-69 0 -113 52t-44 125v2q0 73 45 126t114 53t113 -52t44 -125v-2q0 -74 -44.5 -126.5t-114.5 -52.5zM212 406q40 0 65.5 35t25.5 86v2q0 52 -27 87.5t-66 35.5
q-40 0 -65.5 -35t-25.5 -86v-2q0 -52 27 -87.5t66 -35.5zM1001 48q40 0 65.5 35t25.5 86v2q0 52 -27 87.5t-66 35.5q-40 0 -65.5 -35t-25.5 -86v-2q0 -52 27 -87.5t66 -35.5zM624 48q40 0 65.5 35t25.5 86v2q0 52 -27 87.5t-66 35.5q-40 0 -65.5 -35t-25.5 -86v-2
q0 -52 27 -87.5t66 -35.5z" />
    <glyph glyph-name="guilsinglleft" unicode="&#x2039;" horiz-adv-x="328" 
d="M227 42q-16 0 -28 16l-133 173q-12 15 -12 28q0 12 12 27l132 172q11 16 29 16q14 0 23.5 -9.5t9.5 -22.5q0 -11 -9 -24l-118 -158l119 -162q8 -11 8 -23q0 -13 -10 -23t-23 -10z" />
    <glyph glyph-name="guilsinglright" unicode="&#x203a;" horiz-adv-x="328" 
d="M101 474q17 0 27 -15l134 -174q12 -15 12 -27t-12 -27l-132 -172q-14 -17 -30 -17q-13 0 -22.5 9.5t-9.5 23.5q0 12 9 23l118 159l-119 162q-9 14 -8 23q0 14 9.5 23t23.5 9z" />
    <glyph glyph-name="fraction" unicode="&#x2044;" horiz-adv-x="429" 
d="M-48 -71q0 11 5 19l434 795q12 20 31 20q14 0 23.5 -9.5t9.5 -22.5q0 -11 -5 -19l-435 -795q-10 -20 -30 -20q-14 0 -23.5 9.5t-9.5 22.5z" />
    <glyph glyph-name="Euro" unicode="&#x20ac;" horiz-adv-x="720" 
d="M663 137q0 -10 -8 -22q-92 -127 -225 -127q-105 0 -180.5 68t-102.5 181h-64q-13 0 -22 9t-9 22t9 22.5t22 9.5h54q-2 32 -2 49q0 31 3 59h-55q-13 0 -22 9t-9 22t9 22t22 9h67q29 108 102.5 175t172.5 67q136 0 226 -116q10 -12 10 -26q0 -15 -11 -26t-26 -11
q-18 0 -30 14q-36 48 -75.5 71t-96.5 23q-66 0 -117 -46.5t-74 -124.5h230q13 0 22.5 -9t9.5 -22t-9.5 -22t-22.5 -9h-244q-3 -28 -3 -57q0 -35 2 -51h245q13 0 22.5 -9.5t9.5 -22.5t-9.5 -22t-22.5 -9h-233q23 -82 77 -130t128 -48q94 0 166 99q11 14 28 14q15 0 25.5 -10
t10.5 -25z" />
    <glyph glyph-name="published" unicode="&#x2117;" horiz-adv-x="830" 
d="M414 -12q-151 0 -256 105.5t-105 254.5v2q0 149 106 255.5t257 106.5t256 -105.5t105 -254.5v-2q0 -149 -106 -255.5t-257 -106.5zM414 19q140 0 235 97t95 234v2q0 137 -94.5 233t-233.5 96q-140 0 -235 -97t-95 -234v-2q0 -137 94.5 -233t233.5 -96zM292 195v320
q0 12 8.5 20t19.5 8h118q66 0 105 -32t39 -88v-2q0 -59 -43.5 -91.5t-107.5 -32.5h-83v-102q0 -11 -8.5 -19.5t-19.5 -8.5t-19.5 8.5t-8.5 19.5zM348 347h84q43 0 68.5 19.5t25.5 53.5v2q0 71 -93 71h-85v-146z" />
    <glyph glyph-name="servicemark" unicode="&#x2120;" horiz-adv-x="707" 
d="M353 409v270q0 10 6 16t15 6h6q14 0 20 -11l109 -168l109 168q8 11 20 11h5q9 0 15.5 -6.5t6.5 -15.5v-270q0 -9 -6.5 -15.5t-16.5 -6.5q-9 0 -15 6.5t-6 15.5v208l-93 -139q-6 -13 -19 -13q-12 0 -20 13l-93 139v-208q0 -9 -6.5 -15.5t-15.5 -6.5q-8 0 -14.5 6.5
t-6.5 15.5zM35 445q0 20 19 20q8 0 15 -5q46 -35 98 -35q31 0 49.5 13.5t18.5 34.5v1q0 20 -17 32t-63 22q-56 12 -82 31.5t-26 57.5v1q0 38 31 62.5t79 24.5q57 0 100 -29q11 -7 11 -19q0 -8 -5.5 -14t-13.5 -6q-7 0 -15 5q-37 25 -79 25q-29 0 -46.5 -13t-17.5 -33
t17 -32.5t64 -22.5q54 -12 80.5 -32t26.5 -56v-1q0 -40 -32.5 -65t-80.5 -25q-69 0 -120 40q-11 7 -11 18z" />
    <glyph glyph-name="trademark" unicode="&#x2122;" horiz-adv-x="690" 
d="M125 409v249h-83q-8 0 -14.5 6.5t-6.5 14.5t6.5 14.5t14.5 6.5h209q9 0 15 -6.5t6 -14.5t-6 -14.5t-15 -6.5h-82v-249q0 -9 -6.5 -15.5t-16.5 -6.5q-9 0 -15 6.5t-6 15.5zM336 409v270q0 22 22 22h6q12 0 20 -11l108 -168l110 168q8 11 19 11h6q8 0 14.5 -6.5t6.5 -15.5
v-270q0 -9 -6.5 -15.5t-15.5 -6.5t-15 6.5t-6 15.5v208l-93 -139q-8 -13 -20 -13t-20 13l-92 139v-208q0 -9 -6.5 -15.5t-15.5 -6.5t-15.5 6.5t-6.5 15.5z" />
    <glyph glyph-name="minus" unicode="&#x2212;" horiz-adv-x="625" 
d="M525 315h-424q-16 0 -27 10.5t-11 26.5q0 15 11 26t27 11h424q15 0 26 -11t11 -26q0 -16 -11 -26.5t-26 -10.5z" />
    <glyph glyph-name="Q.alt" horiz-adv-x="850" 
d="M782 350q0 -81 -32.5 -154t-91.5 -123l106 -103q17 -17 17 -34q0 -18 -12.5 -30t-30.5 -12q-19 0 -36 17l-118 113q-74 -36 -160 -36q-156 0 -256 105.5t-100 254.5v2q0 149 101 255.5t257 106.5t256 -105.5t100 -254.5v-2zM700 348v2q0 121 -78.5 205t-197.5 84
t-196.5 -83t-77.5 -204v-2q0 -121 78.5 -205t197.5 -84t196.5 83t77.5 204z" />
    <glyph glyph-name="a.alt" 
d="M501 418v65q0 16 11 27.5t27 11.5t27.5 -11.5t11.5 -27.5v-449q0 -16 -11 -27.5t-27 -11.5t-27.5 11.5t-11.5 27.5v70q-78 -115 -198 -115q-99 0 -173 73t-74 195v2q0 121 74 195t173 74q122 0 198 -110zM317 459q-78 0 -130 -54t-52 -145v-2q0 -89 53.5 -144.5
t128.5 -55.5t131 56.5t56 143.5v2q0 86 -56 142.5t-131 56.5z" />
    <glyph glyph-name="aacute.alt" 
d="M333 591q-19 0 -19 14q0 8 5 15l60 91q15 23 36 23q18 0 36 -10t18 -20q0 -9 -14 -23l-75 -71q-19 -19 -47 -19zM501 418v65q0 16 11 27.5t27 11.5t27.5 -11.5t11.5 -27.5v-449q0 -16 -11 -27.5t-27 -11.5t-27.5 11.5t-11.5 27.5v70q-78 -115 -198 -115q-99 0 -173 73
t-74 195v2q0 121 74 195t173 74q122 0 198 -110zM317 459q-78 0 -130 -54t-52 -145v-2q0 -89 53.5 -144.5t128.5 -55.5t131 56.5t56 143.5v2q0 86 -56 142.5t-131 56.5z" />
    <glyph glyph-name="abreve.alt" 
d="M501 418v65q0 16 11 27.5t27 11.5t27.5 -11.5t11.5 -27.5v-449q0 -16 -11 -27.5t-27 -11.5t-27.5 11.5t-11.5 27.5v70q-78 -115 -198 -115q-99 0 -173 73t-74 195v2q0 121 74 195t173 74q122 0 198 -110zM317 459q-78 0 -130 -54t-52 -145v-2q0 -89 53.5 -144.5
t128.5 -55.5t131 56.5t56 143.5v2q0 86 -56 142.5t-131 56.5zM335 593q-92 0 -132 73q-10 17 -10 35q0 13 7.5 21.5t20.5 8.5q18 0 28 -19q22 -55 86 -55t86 55q10 19 28 19q13 0 20.5 -8.5t7.5 -21.5q0 -18 -10 -35q-40 -73 -132 -73z" />
    <glyph glyph-name="acircumflex.alt" 
d="M334 662l-59 -52q-20 -19 -48 -19q-18 0 -18 14q0 5 7 17l70 86q19 22 40 22h18q21 0 40 -22l70 -86q7 -12 7 -17q0 -14 -19 -14q-29 0 -49 19zM501 418v65q0 16 11 27.5t27 11.5t27.5 -11.5t11.5 -27.5v-449q0 -16 -11 -27.5t-27 -11.5t-27.5 11.5t-11.5 27.5v70
q-78 -115 -198 -115q-99 0 -173 73t-74 195v2q0 121 74 195t173 74q122 0 198 -110zM317 459q-78 0 -130 -54t-52 -145v-2q0 -89 53.5 -144.5t128.5 -55.5t131 56.5t56 143.5v2q0 86 -56 142.5t-131 56.5z" />
    <glyph glyph-name="adieresis.alt" 
d="M424 695q20 0 33.5 -13t13.5 -32v-15q0 -19 -13.5 -32t-33.5 -13t-33.5 13t-13.5 32v15q0 19 13.5 32t33.5 13zM246 695q20 0 33.5 -13t13.5 -32v-15q0 -19 -13.5 -32t-33.5 -13t-33.5 13t-13.5 32v15q0 19 13.5 32t33.5 13zM501 418v65q0 16 11 27.5t27 11.5t27.5 -11.5
t11.5 -27.5v-449q0 -16 -11 -27.5t-27 -11.5t-27.5 11.5t-11.5 27.5v70q-78 -115 -198 -115q-99 0 -173 73t-74 195v2q0 121 74 195t173 74q122 0 198 -110zM317 459q-78 0 -130 -54t-52 -145v-2q0 -89 53.5 -144.5t128.5 -55.5t131 56.5t56 143.5v2q0 86 -56 142.5
t-131 56.5z" />
    <glyph glyph-name="agrave.alt" 
d="M501 418v65q0 16 11 27.5t27 11.5t27.5 -11.5t11.5 -27.5v-449q0 -16 -11 -27.5t-27 -11.5t-27.5 11.5t-11.5 27.5v70q-78 -115 -198 -115q-99 0 -173 73t-74 195v2q0 121 74 195t173 74q122 0 198 -110zM317 459q-78 0 -130 -54t-52 -145v-2q0 -89 53.5 -144.5
t128.5 -55.5t131 56.5t56 143.5v2q0 86 -56 142.5t-131 56.5zM337 591q-28 0 -47 19l-75 71q-14 14 -14 23q0 10 18 20t36 10q21 0 36 -23l60 -91q5 -7 5 -15q0 -14 -19 -14z" />
    <glyph glyph-name="amacron.alt" 
d="M501 418v65q0 16 11 27.5t27 11.5t27.5 -11.5t11.5 -27.5v-449q0 -16 -11 -27.5t-27 -11.5t-27.5 11.5t-11.5 27.5v70q-78 -115 -198 -115q-99 0 -173 73t-74 195v2q0 121 74 195t173 74q122 0 198 -110zM317 459q-78 0 -130 -54t-52 -145v-2q0 -89 53.5 -144.5
t128.5 -55.5t131 56.5t56 143.5v2q0 86 -56 142.5t-131 56.5zM467 615h-264q-13 0 -22.5 9.5t-9.5 22.5t9.5 22.5t22.5 9.5h264q13 0 22.5 -9.5t9.5 -22.5t-9.5 -22.5t-22.5 -9.5z" />
    <glyph glyph-name="aogonek.alt" 
d="M317 459q-78 0 -130 -54t-52 -145v-2q0 -89 53.5 -144.5t128.5 -55.5t131 56.5t56 143.5v2q0 86 -56 142.5t-131 56.5zM501 418v65q0 16 11 27.5t27 11.5t27.5 -11.5t11.5 -27.5v-452q0 -18 -18 -35q-44 -40 -44 -69q0 -34 49 -44q30 -5 30 -24q0 -23 -28 -23
q-23 0 -47 5.5t-47 24.5t-23 49q0 46 58 94q-7 7 -7 93v2q-78 -115 -198 -115q-99 0 -173 73t-74 195v2q0 121 74 195t173 74q122 0 198 -110z" />
    <glyph glyph-name="aring.alt" 
d="M335 593q-42 0 -73 29.5t-31 69.5v2q0 40 31 69.5t73 29.5t73 -29.5t31 -69.5v-2q0 -40 -31 -69.5t-73 -29.5zM335 631q25 0 43.5 18t18.5 43v2q0 25 -18.5 43t-43.5 18t-43.5 -18t-18.5 -43v-2q0 -25 18.5 -43t43.5 -18zM501 418v65q0 16 11 27.5t27 11.5t27.5 -11.5
t11.5 -27.5v-449q0 -16 -11 -27.5t-27 -11.5t-27.5 11.5t-11.5 27.5v70q-78 -115 -198 -115q-99 0 -173 73t-74 195v2q0 121 74 195t173 74q122 0 198 -110zM317 459q-78 0 -130 -54t-52 -145v-2q0 -89 53.5 -144.5t128.5 -55.5t131 56.5t56 143.5v2q0 86 -56 142.5
t-131 56.5z" />
    <glyph glyph-name="aring.alt2" horiz-adv-x="579" 
d="M240 -11q-78 0 -135.5 43t-57.5 118v2q0 80 60 123.5t161 43.5q81 0 159 -22v18q0 69 -40 105t-114 36q-69 0 -134 -29q-7 -3 -14 -3q-14 0 -24 10t-10 23q0 24 21 32q54 23 103 31q-29 26 -29 66v2q0 41 31 70.5t73 29.5t73 -29.5t31 -70.5v-2q0 -43 -35 -71
q53 -13 89 -48q53 -53 53 -151v-283q0 -16 -10.5 -27t-26.5 -11t-26.5 10.5t-10.5 25.5v47q-68 -89 -187 -89zM255 50q72 0 122.5 39.5t50.5 100.5v50q-76 22 -152 22q-72 0 -111.5 -29t-39.5 -78v-2q0 -47 37.5 -75t92.5 -28zM290 525q25 0 43.5 18t18.5 43v2
q0 25 -18.5 43t-43.5 18t-43.5 -18t-18.5 -43v-2q0 -25 18.5 -43t43.5 -18z" />
    <glyph glyph-name="aringacute.alt" 
d="M333 827q-19 0 -19 14q0 8 5 15l60 91q15 23 36 23q18 0 36 -10t18 -20q0 -9 -14 -23l-75 -71q-19 -19 -47 -19zM335 593q-42 0 -73 29.5t-31 69.5v2q0 40 31 69.5t73 29.5t73 -29.5t31 -69.5v-2q0 -40 -31 -69.5t-73 -29.5zM335 631q25 0 43.5 18t18.5 43v2
q0 25 -18.5 43t-43.5 18t-43.5 -18t-18.5 -43v-2q0 -25 18.5 -43t43.5 -18zM501 418v65q0 16 11 27.5t27 11.5t27.5 -11.5t11.5 -27.5v-449q0 -16 -11 -27.5t-27 -11.5t-27.5 11.5t-11.5 27.5v70q-78 -115 -198 -115q-99 0 -173 73t-74 195v2q0 121 74 195t173 74
q122 0 198 -110zM317 459q-78 0 -130 -54t-52 -145v-2q0 -89 53.5 -144.5t128.5 -55.5t131 56.5t56 143.5v2q0 86 -56 142.5t-131 56.5z" />
    <glyph glyph-name="aringacute.alt2" horiz-adv-x="579" 
d="M240 -11q-78 0 -135.5 43t-57.5 118v2q0 80 60 123.5t161 43.5q81 0 159 -22v18q0 69 -40 105t-114 36q-69 0 -134 -29q-7 -3 -14 -3q-14 0 -24 10t-10 23q0 24 21 32q54 23 103 31q-29 26 -29 66v2q0 41 31 70.5t73 29.5t73 -29.5t31 -70.5v-2q0 -43 -35 -71
q53 -13 89 -48q53 -53 53 -151v-283q0 -16 -10.5 -27t-26.5 -11t-26.5 10.5t-10.5 25.5v47q-68 -89 -187 -89zM255 50q72 0 122.5 39.5t50.5 100.5v50q-76 22 -152 22q-72 0 -111.5 -29t-39.5 -78v-2q0 -47 37.5 -75t92.5 -28zM290 525q25 0 43.5 18t18.5 43v2
q0 25 -18.5 43t-43.5 18t-43.5 -18t-18.5 -43v-2q0 -25 18.5 -43t43.5 -18zM287 721q-19 0 -19 14q0 8 5 15l60 91q15 23 36 23q18 0 36 -10t18 -20q0 -9 -14 -23l-75 -71q-19 -19 -47 -19z" />
    <glyph glyph-name="atilde.alt" 
d="M501 418v65q0 16 11 27.5t27 11.5t27.5 -11.5t11.5 -27.5v-449q0 -16 -11 -27.5t-27 -11.5t-27.5 11.5t-11.5 27.5v70q-78 -115 -198 -115q-99 0 -173 73t-74 195v2q0 121 74 195t173 74q122 0 198 -110zM317 459q-78 0 -130 -54t-52 -145v-2q0 -89 53.5 -144.5
t128.5 -55.5t131 56.5t56 143.5v2q0 86 -56 142.5t-131 56.5zM228 600q-8 -17 -23 -17q-11 0 -18.5 7t-7.5 17q0 4 3 16q15 43 35.5 62t52.5 19q24 0 71 -20t63 -20q17 0 27 8t19 27q8 17 23 17q11 0 18.5 -7t7.5 -17q0 -1 -3 -16q-15 -43 -35.5 -62t-52.5 -19q-24 0 -71 20
t-63 20q-17 0 -27 -8t-19 -27z" />
    <glyph glyph-name="three.alt" horiz-adv-x="604" 
d="M306 -12q-145 0 -242 104q-13 13 -13 30q0 16 11 26.5t27 10.5q17 0 28 -12q78 -87 191 -87q70 0 114 35.5t44 94.5v2q0 59 -49.5 93t-137.5 34h-42q-14 0 -24 10t-10 24t10 24t24 10h44q73 0 119.5 35t46.5 94v2q0 53 -41.5 87.5t-108.5 34.5q-98 0 -167 -83
q-12 -14 -28 -14q-15 0 -25.5 10.5t-10.5 25.5q0 14 10 26q87 107 223 107q100 0 164 -53t64 -134v-2q0 -117 -122 -164q141 -46 141 -167v-2q0 -86 -67 -144t-173 -58z" />
    <glyph glyph-name="registered.alt" horiz-adv-x="830" 
d="M414 -12q-151 0 -256 105.5t-105 254.5v2q0 149 106 255.5t257 106.5t256 -105.5t105 -254.5v-2q0 -149 -106 -255.5t-257 -106.5zM414 19q140 0 235 97t95 234v2q0 137 -94.5 233t-233.5 96q-140 0 -235 -97t-95 -234v-2q0 -137 94.5 -233t233.5 -96zM273 197v322
q0 11 8 19t19 8h139q71 0 110 -39q30 -28 30 -72v-2q0 -42 -25.5 -70t-69.5 -38l88 -109q7 -10 7 -20q0 -11 -8 -18.5t-19 -7.5q-14 0 -23 12l-105 133h-96v-118q0 -11 -8.5 -19t-19.5 -8t-19 8t-8 19zM328 364h106q40 0 64 17.5t24 48.5v2q0 29 -22.5 46.5t-62.5 17.5h-109
v-132z" />
    <glyph glyph-name="NUL" horiz-adv-x="0" 
 />
    <glyph glyph-name="hfjslug" horiz-adv-x="694" 
d="M644 -200h-208l-8 14h-163l-8 -14h-207v303q14 0 23 9.5t9 22.5t-9.5 22.5t-22.5 9.5v554h100l30 79h334l29 -79h101v-921zM400 563v-172h15v78h38v14h-38v66h43v14h-58zM184 563v-172h15v79h47v-79h15v172h-15v-79h-47v79h-15zM460 394q10 -4 21 -4q31 0 31 36v137h-16
v-137q0 -22 -16 -22q-8 0 -20 5v-15zM371 465l-13 3q-4 -18 -8 -30h-1l-16 31q23 21 23 42q0 31 -27 31q-12 0 -20 -9t-8 -22t14 -39q-23 -18 -23 -47q0 -16 8 -26.5t21 -10.5q19 0 29 24h1l12 -24l12 6l-17 32q6 14 13 39zM523 323v-46h8v12l8 8l15 -20h10l-20 26l18 20
h-10l-20 -24h-1v24h-8zM488 292l10 -15h9l-12 17q10 4 10 14q0 15 -17 15h-20v-46h8v15h12zM426 276q10 0 17 7t7 17q0 9 -7 16.5t-17 7.5t-17 -7.5t-7 -16.5q0 -10 7 -17t17 -7zM370 301l-13 22h-9l18 -29v-17h8v17l18 29h-9zM193 323v-46h34v7h-26v13h23v7h-23v12h26v7
h-34zM132 323v-46h8v32l25 -32h7v46h-8v-32l-25 32h-7zM241 323l14 -47h8l11 34h1l11 -34h8l14 47h-8l-10 -35h-1l-11 35h-7l-11 -35h-1l-10 35h-8zM327 479q-12 22 -12 32q0 19 14 19q13 0 13 -19q0 -15 -15 -32zM342 423q-8 -21 -20 -21q-16 0 -16 25q0 19 16 35zM487 299
h-11v17h11q10 0 10 -8q0 -9 -10 -9zM426 283q-16 0 -16 17q0 6 4.5 11.5t11.5 5.5t11.5 -5.5t4.5 -11.5q0 -17 -16 -17z" />
    <glyph glyph-name="i.dot" horiz-adv-x="263" 
d="M86 666v13q0 18 13 29.5t32 11.5q20 0 33 -11.5t13 -29.5v-13q0 -18 -13 -29.5t-33 -11.5q-19 0 -32 11.5t-13 29.5zM93 34v449q0 16 11 27.5t27 11.5q17 0 28 -11t11 -28v-449q0 -17 -11 -28t-27 -11t-27.5 11.5t-11.5 27.5z" />
    <glyph glyph-name="caron.alt" horiz-adv-x="500" 
d="M210 584l9 116q3 32 34 32h15q22 0 22 -21q0 -9 -5 -24l-35 -106q-6 -20 -22 -20q-21 0 -18 23z" />
    </font>
</defs>
</svg>
